EB Garamond-Regular.ufo
<glyph name="exclam" format="1">
  <advance width="285"/>
  <unicode hex="0021"/>
  <note>
    exclam
  </note>
  <outline>
    <contour>
      <point x="168" y="205"/>
      <point x="174" y="222"/>
      <point x="176" y="244" type="curve" smooth="yes"/>
      <point x="188" y="357"/>
      <point x="206" y="531"/>
      <point x="206" y="594" type="curve" smooth="yes"/>
      <point x="206" y="623"/>
      <point x="188" y="649"/>
      <point x="161" y="649" type="curve" smooth="yes"/>
      <point x="134" y="649"/>
      <point x="114" y="623"/>
      <point x="114" y="594" type="curve" smooth="yes"/>
      <point x="114" y="531"/>
      <point x="128" y="358"/>
      <point x="140" y="244" type="curve" smooth="yes"/>
      <point x="143" y="215"/>
      <point x="148" y="205"/>
      <point x="158" y="205" type="curve" smooth="yes"/>
    </contour>
    <contour>
      <point x="193" y="-14"/>
      <point x="220" y="13"/>
      <point x="220" y="46" type="curve" smooth="yes"/>
      <point x="220" y="79"/>
      <point x="193" y="106"/>
      <point x="160" y="106" type="curve" smooth="yes"/>
      <point x="127" y="106"/>
      <point x="100" y="79"/>
      <point x="100" y="46" type="curve" smooth="yes"/>
      <point x="100" y="13"/>
      <point x="127" y="-14"/>
      <point x="160" y="-14" type="curve" smooth="yes"/>
    </contour>
  </outline>
</glyph>
<glyph name="numbersign" format="1">
  <advance width="468"/>
  <unicode hex="0023"/>
  <note>
	numbersign
  </note>
  <outline>
    <contour>
      <point x="73" y="12"/>
      <point x="87" y="14"/>
      <point x="90" y="27" type="curve" smooth="yes"/>
      <point x="134" y="206" type="line"/>
      <point x="248" y="212" type="line"/>
      <point x="205" y="38" type="line"/>
      <point x="205" y="35" type="line" smooth="yes"/>
      <point x="205" y="29"/>
      <point x="209" y="23"/>
      <point x="215" y="23" type="curve" smooth="yes"/>
      <point x="228" y="23"/>
      <point x="242" y="25"/>
      <point x="245" y="38" type="curve" smooth="yes"/>
      <point x="288" y="214" type="line"/>
      <point x="346" y="217" type="line" smooth="yes"/>
      <point x="368" y="218"/>
      <point x="377" y="255"/>
      <point x="377" y="265" type="curve" smooth="yes"/>
      <point x="377" y="272"/>
      <point x="371" y="277"/>
      <point x="364" y="277" type="curve"/>
      <point x="303" y="274" type="line"/>
      <point x="337" y="412" type="line"/>
      <point x="393" y="415" type="line" smooth="yes"/>
      <point x="415" y="416"/>
      <point x="424" y="454"/>
      <point x="424" y="464" type="curve" smooth="yes"/>
      <point x="424" y="471"/>
      <point x="418" y="475"/>
      <point x="411" y="475" type="curve"/>
      <point x="352" y="472" type="line"/>
      <point x="394" y="644" type="line"/>
      <point x="394" y="646"/>
      <point x="395" y="647"/>
      <point x="395" y="649" type="curve" smooth="yes"/>
      <point x="395" y="655"/>
      <point x="392" y="661"/>
      <point x="387" y="661" type="curve" smooth="yes"/>
      <point x="373" y="661"/>
      <point x="357" y="658"/>
      <point x="354" y="644" type="curve" smooth="yes"/>
      <point x="311" y="470" type="line"/>
      <point x="198" y="464" type="line"/>
      <point x="239" y="633" type="line"/>
      <point x="239" y="635"/>
      <point x="240" y="636"/>
      <point x="240" y="638" type="curve" smooth="yes"/>
      <point x="240" y="644"/>
      <point x="237" y="650"/>
      <point x="232" y="650" type="curve" smooth="yes"/>
      <point x="218" y="650"/>
      <point x="202" y="647"/>
      <point x="199" y="633" type="curve" smooth="yes"/>
      <point x="157" y="462" type="line"/>
      <point x="88" y="459" type="line" smooth="yes"/>
      <point x="67" y="458"/>
      <point x="64" y="421"/>
      <point x="64" y="411" type="curve" smooth="yes"/>
      <point x="64" y="404"/>
      <point x="71" y="399"/>
      <point x="78" y="399" type="curve"/>
      <point x="142" y="402" type="line"/>
      <point x="108" y="264" type="line"/>
      <point x="41" y="261" type="line" smooth="yes"/>
      <point x="20" y="260"/>
      <point x="17" y="223"/>
      <point x="17" y="213" type="curve" smooth="yes"/>
      <point x="17" y="206"/>
      <point x="24" y="201"/>
      <point x="31" y="201" type="curve"/>
      <point x="94" y="204" type="line"/>
      <point x="50" y="27" type="line"/>
      <point x="50" y="24" type="line" smooth="yes"/>
      <point x="50" y="18"/>
      <point x="54" y="12"/>
      <point x="60" y="12" type="curve" smooth="yes"/>
    </contour>
    <contour>
      <point x="183" y="404" type="line"/>
      <point x="296" y="410" type="line"/>
      <point x="263" y="272" type="line"/>
      <point x="149" y="266" type="line"/>
    </contour>
  </outline>
</glyph>
<glyph name="dollar" format="1">
  <advance width="472"/>
  <unicode hex="0024"/>
  <note>
	dollar
  </note>
  <outline>
    <contour>
      <point x="191" y="-116"/>
      <point x="204" y="-112"/>
      <point x="205" y="-101" type="curve" smooth="yes"/>
      <point x="214" y="-25" type="line"/>
      <point x="215" y="-20"/>
      <point x="220" y="-19"/>
      <point x="223" y="-19" type="curve" smooth="yes"/>
      <point x="373" y="-19"/>
      <point x="429" y="91"/>
      <point x="429" y="171" type="curve" smooth="yes"/>
      <point x="429" y="273"/>
      <point x="330" y="331"/>
      <point x="279" y="367" type="curve" smooth="yes"/>
      <point x="265" y="377"/>
      <point x="265" y="378"/>
      <point x="266" y="386" type="curve" smooth="yes"/>
      <point x="294" y="613" type="line"/>
      <point x="294" y="615"/>
      <point x="296" y="618"/>
      <point x="298" y="618" type="curve" smooth="yes"/>
      <point x="329" y="618"/>
      <point x="367" y="566"/>
      <point x="381" y="515" type="curve" smooth="yes"/>
      <point x="385" y="500"/>
      <point x="402" y="490"/>
      <point x="407" y="490" type="curve" smooth="yes"/>
      <point x="412" y="490"/>
      <point x="417" y="506"/>
      <point x="417" y="515" type="curve" smooth="yes"/>
      <point x="417" y="550"/>
      <point x="409" y="588"/>
      <point x="403" y="622" type="curve" smooth="yes"/>
      <point x="401" y="632"/>
      <point x="396" y="642"/>
      <point x="385" y="644" type="curve" smooth="yes"/>
      <point x="370" y="647"/>
      <point x="346" y="655"/>
      <point x="306" y="658" type="curve"/>
      <point x="301" y="659"/>
      <point x="300" y="662"/>
      <point x="300" y="665" type="curve"/>
      <point x="301" y="674"/>
      <point x="303" y="683"/>
      <point x="304" y="693" type="curve"/>
      <point x="304" y="700"/>
      <point x="298" y="708"/>
      <point x="291" y="708" type="curve" smooth="yes"/>
      <point x="278" y="708"/>
      <point x="264" y="704"/>
      <point x="262" y="691" type="curve" smooth="yes"/>
      <point x="258" y="665" type="line"/>
      <point x="258" y="662"/>
      <point x="254" y="660"/>
      <point x="248" y="659" type="curve"/>
      <point x="124" y="651"/>
      <point x="70" y="555"/>
      <point x="70" y="497" type="curve" smooth="yes"/>
      <point x="70" y="417"/>
      <point x="132" y="362"/>
      <point x="201" y="314" type="curve"/>
      <point x="213" y="305"/>
      <point x="213" y="300"/>
      <point x="213" y="297" type="curve"/>
      <point x="180" y="28" type="line" smooth="yes"/>
      <point x="179" y="24"/>
      <point x="176" y="24"/>
      <point x="172" y="26" type="curve" smooth="yes"/>
      <point x="112" y="56"/>
      <point x="85" y="138"/>
      <point x="71" y="165" type="curve" smooth="yes"/>
      <point x="68" y="171"/>
      <point x="66" y="174"/>
      <point x="60" y="174" type="curve" smooth="yes"/>
      <point x="49" y="174"/>
      <point x="40" y="166"/>
      <point x="40" y="158" type="curve"/>
      <point x="42" y="122"/>
      <point x="59" y="45"/>
      <point x="69" y="22" type="curve" smooth="yes"/>
      <point x="71" y="17"/>
      <point x="76" y="11"/>
      <point x="85" y="7" type="curve" smooth="yes"/>
      <point x="109" y="-3"/>
      <point x="132" y="-9"/>
      <point x="168" y="-15" type="curve"/>
      <point x="171" y="-15"/>
      <point x="174" y="-19"/>
      <point x="174" y="-22" type="curve"/>
      <point x="171" y="-49"/>
      <point x="167" y="-75"/>
      <point x="164" y="-102" type="curve"/>
      <point x="164" y="-109"/>
      <point x="172" y="-116"/>
      <point x="180" y="-116" type="curve" smooth="yes"/>
    </contour>
    <contour>
      <point x="223" y="16"/>
      <point x="221" y="18"/>
      <point x="221" y="26" type="curve"/>
      <point x="251" y="270" type="line"/>
      <point x="252" y="274"/>
      <point x="252" y="277"/>
      <point x="253" y="276" type="curve"/>
      <point x="275" y="261"/>
      <point x="339" y="186"/>
      <point x="339" y="148" type="curve" smooth="yes"/>
      <point x="339" y="54"/>
      <point x="304" y="21"/>
      <point x="229" y="16" type="curve"/>
    </contour>
    <contour>
      <point x="180" y="440"/>
      <point x="147" y="476"/>
      <point x="147" y="517" type="curve" smooth="yes"/>
      <point x="147" y="569"/>
      <point x="188" y="622"/>
      <point x="246" y="627" type="curve"/>
      <point x="251" y="627"/>
      <point x="253" y="624"/>
      <point x="253" y="619" type="curve"/>
      <point x="227" y="413" type="line"/>
      <point x="227" y="411"/>
      <point x="226" y="407"/>
      <point x="218" y="411" type="curve"/>
    </contour>
  </outline>
</glyph>
<glyph name="ampersand" format="1">
  <advance width="788"/>
  <unicode hex="0026"/>
  <note>
    ampersand
  </note>
  <outline>
    <contour>
      <point x="305" y="-15"/>
      <point x="350" y="48"/>
      <point x="413" y="116" type="curve"/>
      <point x="419" y="122" type="line"/>
      <point x="432" y="101" type="line" smooth="yes"/>
      <point x="483" y="21"/>
      <point x="511" y="-15"/>
      <point x="586" y="-15" type="curve" smooth="yes"/>
      <point x="641" y="-15"/>
      <point x="715" y="34"/>
      <point x="715" y="51" type="curve" smooth="yes"/>
      <point x="715" y="60"/>
      <point x="712" y="63"/>
      <point x="703" y="63" type="curve" smooth="yes"/>
      <point x="697" y="63"/>
      <point x="691" y="61"/>
      <point x="686" y="58" type="curve" smooth="yes"/>
      <point x="662" y="44"/>
      <point x="636" y="40"/>
      <point x="608" y="40" type="curve" smooth="yes"/>
      <point x="557" y="40"/>
      <point x="518" y="80"/>
      <point x="476" y="141" type="curve" smooth="yes"/>
      <point x="459" y="165" type="line"/>
      <point x="459" y="165"/>
      <point x="625" y="342"/>
      <point x="638" y="353" type="curve" smooth="yes"/>
      <point x="654" y="367"/>
      <point x="680" y="382"/>
      <point x="711" y="384" type="curve"/>
      <point x="720" y="385"/>
      <point x="736" y="395"/>
      <point x="736" y="403" type="curve" smooth="yes"/>
      <point x="736" y="407"/>
      <point x="727" y="412"/>
      <point x="724" y="412" type="curve" smooth="yes"/>
      <point x="700" y="412"/>
      <point x="658" y="397"/>
      <point x="628" y="397" type="curve" smooth="yes"/>
      <point x="613" y="397"/>
      <point x="563" y="402"/>
      <point x="557" y="402" type="curve" smooth="yes"/>
      <point x="553" y="402"/>
      <point x="535" y="401"/>
      <point x="535" y="391" type="curve" smooth="yes"/>
      <point x="535" y="388"/>
      <point x="544" y="381"/>
      <point x="547" y="380" type="curve"/>
      <point x="564" y="377"/>
      <point x="575" y="360"/>
      <point x="575" y="352" type="curve" smooth="yes"/>
      <point x="575" y="337"/>
      <point x="513" y="253"/>
      <point x="465" y="202" type="curve" smooth="yes"/>
      <point x="447" y="183" type="line"/>
      <point x="435" y="201" type="line" smooth="yes"/>
      <point x="395" y="259"/>
      <point x="356" y="291"/>
      <point x="305" y="346" type="curve" smooth="yes"/>
      <point x="292" y="360" type="line"/>
      <point x="306" y="365" type="line" smooth="yes"/>
      <point x="372" y="389"/>
      <point x="412" y="426"/>
      <point x="411" y="477" type="curve" smooth="yes"/>
      <point x="411" y="529"/>
      <point x="370" y="599"/>
      <point x="284" y="599" type="curve" smooth="yes"/>
      <point x="215" y="599"/>
      <point x="145" y="554"/>
      <point x="145" y="484" type="curve" smooth="yes"/>
      <point x="145" y="425"/>
      <point x="191" y="389"/>
      <point x="210" y="367" type="curve"/>
      <point x="225" y="351" type="line"/>
      <point x="205" y="342" type="line" smooth="yes"/>
      <point x="109" y="298"/>
      <point x="38" y="233"/>
      <point x="38" y="127" type="curve" smooth="yes"/>
      <point x="38" y="45"/>
      <point x="109" y="-15"/>
      <point x="212" y="-15" type="curve" smooth="yes"/>
    </contour>
    <contour>
      <point x="165" y="50"/>
      <point x="115" y="99"/>
      <point x="115" y="160" type="curve" smooth="yes"/>
      <point x="115" y="219"/>
      <point x="126" y="290"/>
      <point x="219" y="326" type="curve" smooth="yes"/>
      <point x="240" y="334" type="line"/>
      <point x="252" y="321" type="line" smooth="yes"/>
      <point x="309" y="259"/>
      <point x="362" y="210"/>
      <point x="395" y="159" type="curve" smooth="yes"/>
      <point x="407" y="140" type="line"/>
      <point x="398" y="131" type="line" smooth="yes"/>
      <point x="349" y="79"/>
      <point x="304" y="50"/>
      <point x="238" y="50" type="curve" smooth="yes"/>
    </contour>
    <contour>
      <point x="263" y="393" type="line" smooth="yes"/>
      <point x="211" y="448"/>
      <point x="203" y="469"/>
      <point x="203" y="509" type="curve" smooth="yes"/>
      <point x="203" y="545"/>
      <point x="239" y="573"/>
      <point x="279" y="573" type="curve" smooth="yes"/>
      <point x="325" y="573"/>
      <point x="347" y="528"/>
      <point x="347" y="482" type="curve" smooth="yes"/>
      <point x="347" y="442"/>
      <point x="329" y="399"/>
      <point x="292" y="382" type="curve" smooth="yes"/>
      <point x="279" y="376" type="line"/>
    </contour>
  </outline>
</glyph>
<glyph name="parenright" format="1">
  <advance width="320"/>
  <unicode hex="0029"/>
  <note>
    parenright
  </note>
  <outline>
    <contour>
      <point x="87" y="-213"/>
      <point x="93" y="-211"/>
      <point x="97" y="-207" type="curve" smooth="yes"/>
      <point x="168" y="-136"/>
      <point x="280" y="111"/>
      <point x="280" y="281" type="curve" smooth="yes"/>
      <point x="280" y="451"/>
      <point x="176" y="623"/>
      <point x="105" y="694" type="curve" smooth="yes"/>
      <point x="98" y="701"/>
      <point x="91" y="704"/>
      <point x="81" y="704" type="curve" smooth="yes"/>
      <point x="70" y="704"/>
      <point x="54" y="700"/>
      <point x="54" y="691" type="curve" smooth="yes"/>
      <point x="54" y="688"/>
      <point x="59" y="682"/>
      <point x="62" y="679" type="curve" smooth="yes"/>
      <point x="133" y="608"/>
      <point x="220" y="437"/>
      <point x="220" y="267" type="curve" smooth="yes"/>
      <point x="220" y="97"/>
      <point x="131" y="-110"/>
      <point x="60" y="-181" type="curve" smooth="yes"/>
      <point x="57" y="-184"/>
      <point x="50" y="-192"/>
      <point x="50" y="-195" type="curve" smooth="yes"/>
      <point x="50" y="-205"/>
      <point x="66" y="-213"/>
      <point x="80" y="-213" type="curve" smooth="yes"/>
    </contour>
  </outline>
</glyph>
<glyph name="asterisk" format="1">
  <advance width="340"/>
  <unicode hex="002A"/>
  <note>
    asterisk
  </note>
  <outline>
    <contour>
      <point x="196" y="372"/>
      <point x="201" y="383"/>
      <point x="201" y="394" type="curve"/>
      <point x="200" y="429"/>
      <point x="198" y="459"/>
      <point x="195" y="487" type="curve"/>
      <point x="221" y="476"/>
      <point x="250" y="466"/>
      <point x="282" y="452" type="curve" smooth="yes"/>
      <point x="290" y="449"/>
      <point x="307" y="451"/>
      <point x="307" y="465" type="curve" smooth="yes"/>
      <point x="307" y="472"/>
      <point x="302" y="480"/>
      <point x="295" y="483" type="curve"/>
      <point x="264" y="501"/>
      <point x="239" y="513"/>
      <point x="213" y="525" type="curve"/>
      <point x="286" y="583" type="line"/>
      <point x="291" y="588"/>
      <point x="295" y="594"/>
      <point x="295" y="600" type="curve" smooth="yes"/>
      <point x="295" y="610"/>
      <point x="285" y="614"/>
      <point x="277" y="614" type="curve" smooth="yes"/>
      <point x="273" y="614"/>
      <point x="269" y="613"/>
      <point x="266" y="610" type="curve"/>
      <point x="236" y="592"/>
      <point x="210" y="576"/>
      <point x="187" y="560" type="curve"/>
      <point x="174" y="652" type="line" smooth="yes"/>
      <point x="173" y="661"/>
      <point x="166" y="670"/>
      <point x="157" y="670" type="curve" smooth="yes"/>
      <point x="145" y="670"/>
      <point x="140" y="659"/>
      <point x="140" y="648" type="curve" smooth="yes"/>
      <point x="141" y="613"/>
      <point x="143" y="583"/>
      <point x="146" y="555" type="curve"/>
      <point x="120" y="566"/>
      <point x="91" y="576"/>
      <point x="59" y="590" type="curve"/>
      <point x="51" y="593"/>
      <point x="34" y="591"/>
      <point x="34" y="577" type="curve" smooth="yes"/>
      <point x="34" y="570"/>
      <point x="39" y="562"/>
      <point x="46" y="559" type="curve"/>
      <point x="77" y="541"/>
      <point x="102" y="529"/>
      <point x="128" y="517" type="curve"/>
      <point x="55" y="459" type="line"/>
      <point x="50" y="454"/>
      <point x="46" y="448"/>
      <point x="46" y="442" type="curve" smooth="yes"/>
      <point x="46" y="432"/>
      <point x="56" y="428"/>
      <point x="64" y="428" type="curve" smooth="yes"/>
      <point x="68" y="428"/>
      <point x="72" y="429"/>
      <point x="75" y="432" type="curve"/>
      <point x="105" y="450"/>
      <point x="131" y="466"/>
      <point x="154" y="482" type="curve"/>
      <point x="167" y="390" type="line" smooth="yes"/>
      <point x="168" y="381"/>
      <point x="175" y="372"/>
      <point x="184" y="372" type="curve" smooth="yes"/>
    </contour>
  </outline>
</glyph>
<glyph name="period" format="1">
  <advance width="230"/>
  <unicode hex="002E"/>
  <note>
    period
  </note>
  <outline>
    <contour>
      <point x="145" y="-14"/>
      <point x="170" y="11"/>
      <point x="170" y="41" type="curve" smooth="yes"/>
      <point x="170" y="71"/>
      <point x="145" y="96"/>
      <point x="115" y="96" type="curve" smooth="yes"/>
      <point x="85" y="96"/>
      <point x="60" y="71"/>
      <point x="60" y="41" type="curve" smooth="yes"/>
      <point x="60" y="11"/>
      <point x="85" y="-14"/>
      <point x="115" y="-14" type="curve" smooth="yes"/>
    </contour>
  </outline>
</glyph>
<glyph name="zero" format="1">
  <advance width="507"/>
  <unicode hex="0030"/>
  <note>
    zero
  </note>
  <outline>
    <contour>
      <point x="136" y="413"/>
      <point x="40" y="320"/>
      <point x="40" y="204" type="curve" smooth="yes"/>
      <point x="40" y="85"/>
      <point x="134" y="-15"/>
      <point x="254" y="-15" type="curve" smooth="yes"/>
      <point x="372" y="-15"/>
      <point x="467" y="84"/>
      <point x="467" y="203" type="curve" smooth="yes"/>
      <point x="467" y="320"/>
      <point x="370" y="413"/>
      <point x="252" y="413" type="curve" smooth="yes"/>
    </contour>
    <contour>
      <point x="343" y="372"/>
      <point x="389" y="286"/>
      <point x="389" y="203" type="curve" smooth="yes"/>
      <point x="389" y="78"/>
      <point x="329" y="26"/>
      <point x="247" y="26" type="curve" smooth="yes"/>
      <point x="165" y="26"/>
      <point x="118" y="119"/>
      <point x="118" y="204" type="curve" smooth="yes"/>
      <point x="118" y="301"/>
      <point x="177" y="372"/>
      <point x="259" y="372" type="curve" smooth="yes"/>
    </contour>
  </outline>
</glyph>
<glyph name="one" format="1">
  <advance width="289"/>
  <unicode hex="0031"/>
  <note>
	one
  </note>
  <outline>
    <contour>
      <point x="90" y="-3"/>
      <point x="102" y="2"/>
      <point x="145" y="2" type="curve" smooth="yes"/>
      <point x="187" y="2"/>
      <point x="195" y="-3"/>
      <point x="252" y="-3" type="curve" smooth="yes"/>
      <point x="260" y="-3"/>
      <point x="264" y="3"/>
      <point x="264" y="9" type="curve" smooth="yes"/>
      <point x="264" y="15"/>
      <point x="260" y="21"/>
      <point x="252" y="22" type="curve" smooth="yes"/>
      <point x="208" y="28"/>
      <point x="181" y="29"/>
      <point x="181" y="68" type="curve" smooth="yes"/>
      <point x="181" y="333" type="line" smooth="yes"/>
      <point x="181" y="379"/>
      <point x="214" y="378"/>
      <point x="242" y="384" type="curve" smooth="yes"/>
      <point x="247" y="385"/>
      <point x="250" y="391"/>
      <point x="250" y="396" type="curve" smooth="yes"/>
      <point x="250" y="401"/>
      <point x="248" y="406"/>
      <point x="242" y="406" type="curve" smooth="yes"/>
      <point x="184" y="406"/>
      <point x="183" y="403"/>
      <point x="145" y="403" type="curve" smooth="yes"/>
      <point x="106" y="403"/>
      <point x="106" y="406"/>
      <point x="46" y="406" type="curve" smooth="yes"/>
      <point x="41" y="406"/>
      <point x="39" y="401"/>
      <point x="39" y="395" type="curve" smooth="yes"/>
      <point x="39" y="390"/>
      <point x="41" y="384"/>
      <point x="46" y="384" type="curve"/>
      <point x="73" y="380"/>
      <point x="109" y="380"/>
      <point x="109" y="333" type="curve" smooth="yes"/>
      <point x="109" y="68" type="line" smooth="yes"/>
      <point x="109" y="27"/>
      <point x="63" y="24"/>
      <point x="36" y="22" type="curve"/>
      <point x="28" y="22"/>
      <point x="25" y="17"/>
      <point x="25" y="11" type="curve" smooth="yes"/>
      <point x="25" y="4"/>
      <point x="29" y="-3"/>
      <point x="36" y="-3" type="curve" smooth="yes"/>
    </contour>
  </outline>
</glyph>
<glyph name="six" format="1">
  <advance width="489"/>
  <unicode hex="0036"/>
  <note>
    six
  </note>
  <outline>
    <contour>
      <point x="363" y="-14"/>
      <point x="439" y="93"/>
      <point x="439" y="190" type="curve" smooth="yes"/>
      <point x="439" y="262"/>
      <point x="383" y="313"/>
      <point x="314" y="313" type="curve" smooth="yes"/>
      <point x="277" y="313"/>
      <point x="231" y="291"/>
      <point x="216" y="280" type="curve" smooth="yes"/>
      <point x="205" y="272"/>
      <point x="199" y="267"/>
      <point x="189" y="256" type="curve" smooth="yes"/>
      <point x="182" y="248"/>
      <point x="184" y="239"/>
      <point x="196" y="245" type="curve" smooth="yes"/>
      <point x="219" y="257"/>
      <point x="241" y="260"/>
      <point x="276" y="260" type="curve" smooth="yes"/>
      <point x="329" y="260"/>
      <point x="370" y="203"/>
      <point x="370" y="142" type="curve" smooth="yes"/>
      <point x="370" y="75"/>
      <point x="331" y="22"/>
      <point x="261" y="22" type="curve" smooth="yes"/>
      <point x="186" y="22"/>
      <point x="124" y="96"/>
      <point x="124" y="190" type="curve" smooth="yes"/>
      <point x="124" y="310"/>
      <point x="179" y="407"/>
      <point x="213" y="456" type="curve" smooth="yes"/>
      <point x="264" y="529"/>
      <point x="325" y="575"/>
      <point x="415" y="614" type="curve"/>
      <point x="419" y="616"/>
      <point x="441" y="623"/>
      <point x="441" y="635" type="curve" smooth="yes"/>
      <point x="441" y="638"/>
      <point x="435" y="641"/>
      <point x="427" y="639" type="curve" smooth="yes"/>
      <point x="314" y="611"/>
      <point x="205" y="533"/>
      <point x="156" y="477" type="curve" smooth="yes"/>
      <point x="121" y="436"/>
      <point x="41" y="342"/>
      <point x="41" y="193" type="curve" smooth="yes"/>
      <point x="41" y="73"/>
      <point x="100" y="-14"/>
      <point x="232" y="-14" type="curve" smooth="yes"/>
    </contour>
  </outline>
</glyph>
<glyph name="eight" format="1">
  <advance width="452"/>
  <unicode hex="0038"/>
  <note>
    eight
  </note>
  <outline>
    <contour>
      <point x="308" y="-13"/>
      <point x="397" y="60"/>
      <point x="397" y="157" type="curve" smooth="yes"/>
      <point x="397" y="232"/>
      <point x="349" y="267"/>
      <point x="280" y="315" type="curve" smooth="yes"/>
      <point x="270" y="322"/>
      <point x="269" y="323"/>
      <point x="285" y="335" type="curve" smooth="yes"/>
      <point x="307" y="351"/>
      <point x="317" y="358"/>
      <point x="335" y="374" type="curve" smooth="yes"/>
      <point x="357" y="393"/>
      <point x="383" y="420"/>
      <point x="383" y="465" type="curve" smooth="yes"/>
      <point x="383" y="540"/>
      <point x="310" y="589"/>
      <point x="236" y="589" type="curve" smooth="yes"/>
      <point x="154" y="589"/>
      <point x="68" y="535"/>
      <point x="68" y="455" type="curve" smooth="yes"/>
      <point x="68" y="376"/>
      <point x="113" y="338"/>
      <point x="174" y="295" type="curve" smooth="yes"/>
      <point x="182" y="289"/>
      <point x="186" y="287"/>
      <point x="177" y="282" type="curve" smooth="yes"/>
      <point x="129" y="255"/>
      <point x="55" y="214"/>
      <point x="55" y="132" type="curve" smooth="yes"/>
      <point x="55" y="47"/>
      <point x="131" y="-13"/>
      <point x="216" y="-13" type="curve" smooth="yes"/>
    </contour>
    <contour>
      <point x="167" y="22"/>
      <point x="125" y="84"/>
      <point x="125" y="147" type="curve" smooth="yes"/>
      <point x="125" y="207"/>
      <point x="151" y="229"/>
      <point x="191" y="261" type="curve" smooth="yes"/>
      <point x="196" y="265"/>
      <point x="199" y="267"/>
      <point x="202" y="267" type="curve" smooth="yes"/>
      <point x="207" y="267"/>
      <point x="210" y="264"/>
      <point x="217" y="259" type="curve" smooth="yes"/>
      <point x="270" y="221"/>
      <point x="327" y="176"/>
      <point x="327" y="118" type="curve" smooth="yes"/>
      <point x="327" y="65"/>
      <point x="286" y="22"/>
      <point x="230" y="22" type="curve" smooth="yes"/>
    </contour>
    <contour>
      <point x="181" y="389"/>
      <point x="138" y="402"/>
      <point x="138" y="474" type="curve" smooth="yes"/>
      <point x="138" y="524"/>
      <point x="183" y="565"/>
      <point x="231" y="565" type="curve" smooth="yes"/>
      <point x="278" y="565"/>
      <point x="313" y="519"/>
      <point x="313" y="472" type="curve" smooth="yes"/>
      <point x="313" y="416"/>
      <point x="302" y="375"/>
      <point x="259" y="340" type="curve"/>
      <point x="255" y="337"/>
      <point x="251" y="337"/>
      <point x="247" y="340" type="curve" smooth="yes"/>
    </contour>
  </outline>
</glyph>
<glyph name="E" format="1">
  <advance width="549"/>
  <unicode hex="0045"/>
  <note>
    E
  </note>
  <outline>
    <contour>
      <point x="120" y="-5"/>
      <point x="136" y="1"/>
      <point x="181" y="1" type="curve" smooth="yes"/>
      <point x="281" y="1"/>
      <point x="380" y="-5"/>
      <point x="508" y="-5" type="curve" smooth="yes"/>
      <point x="516" y="-5"/>
      <point x="520" y="3"/>
      <point x="522" y="12" type="curve"/>
      <point x="529" y="38"/>
      <point x="539" y="97"/>
      <point x="539" y="115" type="curve" smooth="yes"/>
      <point x="539" y="123"/>
      <point x="533" y="125"/>
      <point x="526" y="126" type="curve" smooth="yes"/>
      <point x="519" y="127"/>
      <point x="516" y="124"/>
      <point x="512" y="116" type="curve" smooth="yes"/>
      <point x="504" y="99"/>
      <point x="488" y="67"/>
      <point x="470" y="53" type="curve" smooth="yes"/>
      <point x="457" y="43"/>
      <point x="444" y="35"/>
      <point x="394" y="35" type="curve" smooth="yes"/>
      <point x="290" y="35" type="line" smooth="yes"/>
      <point x="245" y="35"/>
      <point x="224" y="51"/>
      <point x="224" y="102" type="curve" smooth="yes"/>
      <point x="224" y="294" type="line" smooth="yes"/>
      <point x="224" y="317"/>
      <point x="235" y="320"/>
      <point x="258" y="320" type="curve" smooth="yes"/>
      <point x="351" y="320" type="line" smooth="yes"/>
      <point x="377" y="320"/>
      <point x="389" y="306"/>
      <point x="397" y="275" type="curve" smooth="yes"/>
      <point x="402" y="254"/>
      <point x="410" y="243"/>
      <point x="420" y="243" type="curve" smooth="yes"/>
      <point x="428" y="243"/>
      <point x="429" y="251"/>
      <point x="429" y="260" type="curve" smooth="yes"/>
      <point x="429" y="268"/>
      <point x="427" y="317"/>
      <point x="427" y="337" type="curve" smooth="yes"/>
      <point x="427" y="353"/>
      <point x="430" y="398"/>
      <point x="430" y="407" type="curve" smooth="yes"/>
      <point x="430" y="417"/>
      <point x="422" y="423"/>
      <point x="417" y="423" type="curve" smooth="yes"/>
      <point x="409" y="423"/>
      <point x="403" y="416"/>
      <point x="399" y="401" type="curve" smooth="yes"/>
      <point x="389" y="364"/>
      <point x="380" y="352"/>
      <point x="341" y="352" type="curve" smooth="yes"/>
      <point x="242" y="352" type="line" smooth="yes"/>
      <point x="232" y="352"/>
      <point x="224" y="362"/>
      <point x="224" y="374" type="curve" smooth="yes"/>
      <point x="224" y="586" type="line" smooth="yes"/>
      <point x="224" y="605"/>
      <point x="249" y="618"/>
      <point x="260" y="618" type="curve" smooth="yes"/>
      <point x="391" y="618" type="line" smooth="yes"/>
      <point x="416" y="618"/>
      <point x="439" y="612"/>
      <point x="458" y="591" type="curve" smooth="yes"/>
      <point x="467" y="581"/>
      <point x="473" y="558"/>
      <point x="480" y="536" type="curve" smooth="yes"/>
      <point x="482" y="529"/>
      <point x="484" y="526"/>
      <point x="491" y="526" type="curve" smooth="yes"/>
      <point x="497" y="526"/>
      <point x="505" y="529"/>
      <point x="505" y="541" type="curve" smooth="yes"/>
      <point x="505" y="568"/>
      <point x="497" y="606"/>
      <point x="490" y="644" type="curve"/>
      <point x="489" y="651"/>
      <point x="479" y="653"/>
      <point x="472" y="653" type="curve" smooth="yes"/>
      <point x="467" y="653"/>
      <point x="432" y="652"/>
      <point x="387" y="651" type="curve" smooth="yes"/>
      <point x="345" y="651"/>
      <point x="294" y="650"/>
      <point x="250" y="650" type="curve" smooth="yes"/>
      <point x="180" y="650"/>
      <point x="148" y="653"/>
      <point x="73" y="653" type="curve" smooth="yes"/>
      <point x="56" y="653"/>
      <point x="44" y="650"/>
      <point x="44" y="642" type="curve" smooth="yes"/>
      <point x="44" y="633"/>
      <point x="54" y="626"/>
      <point x="77" y="622" type="curve" smooth="yes"/>
      <point x="127" y="613"/>
      <point x="144" y="597"/>
      <point x="144" y="549" type="curve" smooth="yes"/>
      <point x="144" y="99" type="line" smooth="yes"/>
      <point x="144" y="51"/>
      <point x="120" y="33"/>
      <point x="70" y="24" type="curve" smooth="yes"/>
      <point x="47" y="20"/>
      <point x="37" y="15"/>
      <point x="37" y="6" type="curve" smooth="yes"/>
      <point x="37" y="-2"/>
      <point x="49" y="-5"/>
      <point x="66" y="-5" type="curve" smooth="yes"/>
    </contour>
    <contour>
      <point x="298" y="675" type="move" name="top.cap"/>
    </contour>
    <contour>
      <point x="293" y="-30" type="move" name="bottom.cap"/>
    </contour>
  </outline>
</glyph>
<glyph name="J" format="1">
  <advance width="300"/>
  <unicode hex="004A"/>
  <note>
    J
  </note>
  <outline>
    <contour>
      <point x="73" y="-200"/>
      <point x="107" y="-180"/>
      <point x="134" y="-148" type="curve" smooth="yes"/>
      <point x="182" y="-92"/>
      <point x="210" y="2"/>
      <point x="210" y="89" type="curve" smooth="yes"/>
      <point x="210" y="551" type="line" smooth="yes"/>
      <point x="210" y="597"/>
      <point x="217" y="613"/>
      <point x="267" y="622" type="curve" smooth="yes"/>
      <point x="290" y="626"/>
      <point x="300" y="633"/>
      <point x="300" y="642" type="curve" smooth="yes"/>
      <point x="300" y="650"/>
      <point x="288" y="653"/>
      <point x="271" y="653" type="curve" smooth="yes"/>
      <point x="217" y="653"/>
      <point x="214" y="650"/>
      <point x="177" y="650" type="curve" smooth="yes"/>
      <point x="131" y="650"/>
      <point x="114" y="653"/>
      <point x="60" y="653" type="curve" smooth="yes"/>
      <point x="43" y="653"/>
      <point x="31" y="650"/>
      <point x="31" y="642" type="curve" smooth="yes"/>
      <point x="31" y="633"/>
      <point x="42" y="626"/>
      <point x="64" y="622" type="curve" smooth="yes"/>
      <point x="112" y="613"/>
      <point x="130" y="597"/>
      <point x="130" y="551" type="curve" smooth="yes"/>
      <point x="130" y="-1" type="line" smooth="yes"/>
      <point x="130" y="-98"/>
      <point x="111" y="-159"/>
      <point x="64" y="-159" type="curve" smooth="yes"/>
      <point x="47" y="-159"/>
      <point x="34" y="-151"/>
      <point x="17" y="-129" type="curve" smooth="yes"/>
      <point x="3" y="-111"/>
      <point x="-13" y="-104"/>
      <point x="-30" y="-104" type="curve" smooth="yes"/>
      <point x="-45" y="-104"/>
      <point x="-69" y="-128"/>
      <point x="-69" y="-151" type="curve" smooth="yes"/>
      <point x="-69" y="-182"/>
      <point x="-34" y="-200"/>
      <point x="34" y="-200" type="curve" smooth="yes"/>
    </contour>
    <contour>
      <point x="164" y="675" type="move" name="top.cap"/>
    </contour>
  </outline>
</glyph>
<glyph name="M" format="1">
  <advance width="901"/>
  <unicode hex="004D"/>
  <note>
    M
  </note>
  <outline>
    <contour>
      <point x="102" y="-5"/>
      <point x="103" y="0"/>
      <point x="139" y="0" type="curve" smooth="yes"/>
      <point x="176" y="0"/>
      <point x="179" y="-5"/>
      <point x="233" y="-5" type="curve" smooth="yes"/>
      <point x="250" y="-5"/>
      <point x="262" y="-2"/>
      <point x="262" y="6" type="curve" smooth="yes"/>
      <point x="262" y="15"/>
      <point x="252" y="20"/>
      <point x="229" y="24" type="curve" smooth="yes"/>
      <point x="188" y="32"/>
      <point x="164" y="66"/>
      <point x="164" y="102" type="curve" smooth="yes"/>
      <point x="164" y="238"/>
      <point x="177" y="330"/>
      <point x="196" y="471" type="curve" smooth="yes"/>
      <point x="197" y="478"/>
      <point x="206" y="478"/>
      <point x="209" y="471" type="curve" smooth="yes"/>
      <point x="284" y="296"/>
      <point x="341" y="152"/>
      <point x="393" y="-4" type="curve" smooth="yes"/>
      <point x="396" y="-13"/>
      <point x="408" y="-12"/>
      <point x="411" y="-5" type="curve" smooth="yes"/>
      <point x="641" y="464" type="line" smooth="yes"/>
      <point x="648" y="477"/>
      <point x="655" y="478"/>
      <point x="657" y="464" type="curve"/>
      <point x="663" y="329"/>
      <point x="669" y="240"/>
      <point x="669" y="96" type="curve" smooth="yes"/>
      <point x="669" y="49"/>
      <point x="657" y="29"/>
      <point x="618" y="24" type="curve" smooth="yes"/>
      <point x="595" y="21"/>
      <point x="585" y="15"/>
      <point x="585" y="6" type="curve" smooth="yes"/>
      <point x="585" y="-2"/>
      <point x="597" y="-5"/>
      <point x="614" y="-5" type="curve" smooth="yes"/>
      <point x="668" y="-5"/>
      <point x="678" y="0"/>
      <point x="719" y="0" type="curve" smooth="yes"/>
      <point x="765" y="0"/>
      <point x="782" y="-5"/>
      <point x="836" y="-5" type="curve" smooth="yes"/>
      <point x="853" y="-5"/>
      <point x="865" y="-2"/>
      <point x="865" y="6" type="curve" smooth="yes"/>
      <point x="865" y="15"/>
      <point x="855" y="20"/>
      <point x="832" y="24" type="curve" smooth="yes"/>
      <point x="782" y="33"/>
      <point x="759" y="54"/>
      <point x="757" y="95" type="curve" smooth="yes"/>
      <point x="749" y="246"/>
      <point x="735" y="382"/>
      <point x="735" y="568" type="curve" smooth="yes"/>
      <point x="735" y="583"/>
      <point x="745" y="596"/>
      <point x="759" y="602" type="curve" smooth="yes"/>
      <point x="777" y="610"/>
      <point x="800" y="618"/>
      <point x="818" y="625" type="curve" smooth="yes"/>
      <point x="838" y="633"/>
      <point x="844" y="637"/>
      <point x="844" y="646" type="curve" smooth="yes"/>
      <point x="844" y="655"/>
      <point x="829" y="656"/>
      <point x="823" y="656" type="curve" smooth="yes"/>
      <point x="800" y="656"/>
      <point x="749" y="648"/>
      <point x="709" y="648" type="curve" smooth="yes"/>
      <point x="673" y="648" type="line" smooth="yes"/>
      <point x="668" y="648"/>
      <point x="665" y="643"/>
      <point x="663" y="635" type="curve" smooth="yes"/>
      <point x="659" y="614"/>
      <point x="651" y="582"/>
      <point x="645" y="560" type="curve"/>
      <point x="448" y="150" type="line" smooth="yes"/>
      <point x="443" y="140"/>
      <point x="429" y="143"/>
      <point x="425" y="153" type="curve" smooth="yes"/>
      <point x="267" y="554" type="line" smooth="yes"/>
      <point x="257" y="579"/>
      <point x="252" y="607"/>
      <point x="245" y="631" type="curve" smooth="yes"/>
      <point x="242" y="641"/>
      <point x="235" y="647"/>
      <point x="226" y="647" type="curve" smooth="yes"/>
      <point x="200" y="647"/>
      <point x="102" y="655"/>
      <point x="76" y="655" type="curve" smooth="yes"/>
      <point x="56" y="655"/>
      <point x="42" y="654"/>
      <point x="42" y="644" type="curve" smooth="yes"/>
      <point x="42" y="635"/>
      <point x="51" y="627"/>
      <point x="64" y="624" type="curve" smooth="yes"/>
      <point x="94" y="618"/>
      <point x="115" y="614"/>
      <point x="139" y="594" type="curve" smooth="yes"/>
      <point x="152" y="583"/>
      <point x="153" y="572"/>
      <point x="154" y="561" type="curve" smooth="yes"/>
      <point x="155" y="551"/>
      <point x="155" y="538"/>
      <point x="155" y="528" type="curve" smooth="yes"/>
      <point x="155" y="444"/>
      <point x="138" y="282"/>
      <point x="114" y="102" type="curve" smooth="yes"/>
      <point x="107" y="55"/>
      <point x="85" y="30"/>
      <point x="52" y="24" type="curve" smooth="yes"/>
      <point x="29" y="20"/>
      <point x="19" y="15"/>
      <point x="19" y="6" type="curve" smooth="yes"/>
      <point x="19" y="-2"/>
      <point x="31" y="-5"/>
      <point x="48" y="-5" type="curve" smooth="yes"/>
    </contour>
    <contour>
      <point x="450" y="675" type="move" name="top.cap"/>
    </contour>
    <contour>
      <point x="407" y="-30" type="move" name="bottom.cap"/>
    </contour>
  </outline>
</glyph>
<glyph name="O" format="1">
  <advance width="763"/>
  <unicode hex="004F"/>
  <note>
    O
  </note>
  <outline>
    <contour>
      <point x="599" y="-14"/>
      <point x="718" y="155"/>
      <point x="718" y="335" type="curve" smooth="yes"/>
      <point x="718" y="532"/>
      <point x="562" y="664"/>
      <point x="386" y="664" type="curve" smooth="yes"/>
      <point x="164" y="664"/>
      <point x="45" y="495"/>
      <point x="45" y="315" type="curve" smooth="yes"/>
      <point x="45" y="118"/>
      <point x="201" y="-14"/>
      <point x="377" y="-14" type="curve" smooth="yes"/>
    </contour>
    <contour>
      <point x="225" y="26"/>
      <point x="141" y="179"/>
      <point x="141" y="365" type="curve" smooth="yes"/>
      <point x="141" y="521"/>
      <point x="219" y="622"/>
      <point x="370" y="622" type="curve" smooth="yes"/>
      <point x="537" y="622"/>
      <point x="622" y="471"/>
      <point x="622" y="286" type="curve" smooth="yes"/>
      <point x="622" y="129"/>
      <point x="545" y="26"/>
      <point x="392" y="26" type="curve" smooth="yes"/>
    </contour>
    <contour>
      <point x="391" y="675" type="move" name="top.cap"/>
    </contour>
    <contour>
      <point x="372" y="-30" type="move" name="bottom.cap"/>
    </contour>
  </outline>
</glyph>
<glyph name="P" format="1">
  <advance width="552"/>
  <unicode hex="0050"/>
  <note>
    P
  </note>
  <outline>
    <contour>
      <point x="107" y="-5"/>
      <point x="132" y="2"/>
      <point x="183" y="2" type="curve" smooth="yes"/>
      <point x="221" y="2"/>
      <point x="227" y="-5"/>
      <point x="281" y="-5" type="curve" smooth="yes"/>
      <point x="298" y="-5"/>
      <point x="310" y="-2"/>
      <point x="310" y="6" type="curve" smooth="yes"/>
      <point x="310" y="15"/>
      <point x="300" y="20"/>
      <point x="277" y="24" type="curve" smooth="yes"/>
      <point x="227" y="33"/>
      <point x="210" y="63"/>
      <point x="210" y="111" type="curve" smooth="yes"/>
      <point x="210" y="588" type="line" smooth="yes"/>
      <point x="210" y="618"/>
      <point x="236" y="630"/>
      <point x="274" y="630" type="curve" smooth="yes"/>
      <point x="371" y="630"/>
      <point x="441" y="564"/>
      <point x="441" y="458" type="curve" smooth="yes"/>
      <point x="441" y="340"/>
      <point x="400" y="285"/>
      <point x="320" y="285" type="curve" smooth="yes"/>
      <point x="293" y="285"/>
      <point x="280" y="287"/>
      <point x="274" y="287" type="curve" smooth="yes"/>
      <point x="267" y="287"/>
      <point x="258" y="278"/>
      <point x="258" y="273" type="curve" smooth="yes"/>
      <point x="258" y="265"/>
      <point x="274" y="254"/>
      <point x="303" y="254" type="curve" smooth="yes"/>
      <point x="456" y="254"/>
      <point x="527" y="342"/>
      <point x="527" y="465" type="curve" smooth="yes"/>
      <point x="527" y="577"/>
      <point x="426" y="658"/>
      <point x="274" y="658" type="curve" smooth="yes"/>
      <point x="246" y="658"/>
      <point x="203" y="652"/>
      <point x="163" y="652" type="curve" smooth="yes"/>
      <point x="122" y="652"/>
      <point x="119" y="653"/>
      <point x="65" y="653" type="curve" smooth="yes"/>
      <point x="48" y="653"/>
      <point x="36" y="650"/>
      <point x="36" y="642" type="curve" smooth="yes"/>
      <point x="36" y="633"/>
      <point x="46" y="626"/>
      <point x="69" y="622" type="curve" smooth="yes"/>
      <point x="119" y="613"/>
      <point x="130" y="582"/>
      <point x="130" y="522" type="curve" smooth="yes"/>
      <point x="130" y="100" type="line" smooth="yes"/>
      <point x="130" y="51"/>
      <point x="107" y="33"/>
      <point x="57" y="24" type="curve" smooth="yes"/>
      <point x="34" y="20"/>
      <point x="24" y="15"/>
      <point x="24" y="6" type="curve" smooth="yes"/>
      <point x="24" y="-2"/>
      <point x="36" y="-5"/>
      <point x="53" y="-5" type="curve" smooth="yes"/>
    </contour>
    <contour>
      <point x="286" y="675" type="move" name="top.cap"/>
    </contour>
    <contour>
      <point x="180" y="-30" type="move" name="bottom.cap"/>
    </contour>
  </outline>
</glyph>
<glyph name="Q" format="1">
  <advance width="763"/>
  <unicode hex="0051"/>
  <note>
    Q
  </note>
  <outline>
    <contour>
      <point x="781" y="-248"/>
      <point x="823" y="-238"/>
      <point x="861" y="-215" type="curve" smooth="yes"/>
      <point x="876" y="-206"/>
      <point x="879" y="-201"/>
      <point x="879" y="-189" type="curve" smooth="yes"/>
      <point x="879" y="-183"/>
      <point x="874" y="-181"/>
      <point x="868" y="-181" type="curve" smooth="yes"/>
      <point x="862" y="-181"/>
      <point x="855" y="-183"/>
      <point x="849" y="-185" type="curve"/>
      <point x="840" y="-189"/>
      <point x="817" y="-192"/>
      <point x="793" y="-192" type="curve" smooth="yes"/>
      <point x="715" y="-192"/>
      <point x="665" y="-177"/>
      <point x="598" y="-129" type="curve" smooth="yes"/>
      <point x="548" y="-93"/>
      <point x="510" y="-60"/>
      <point x="471" y="-18" type="curve"/>
      <point x="468" y="-15"/>
      <point x="467" y="-12"/>
      <point x="467" y="-9" type="curve" smooth="yes"/>
      <point x="467" y="-7"/>
      <point x="468" y="-4"/>
      <point x="475" y="-2" type="curve" smooth="yes"/>
      <point x="634" y="40"/>
      <point x="718" y="183"/>
      <point x="718" y="335" type="curve" smooth="yes"/>
      <point x="718" y="532"/>
      <point x="562" y="664"/>
      <point x="386" y="664" type="curve" smooth="yes"/>
      <point x="164" y="664"/>
      <point x="45" y="495"/>
      <point x="45" y="315" type="curve" smooth="yes"/>
      <point x="45" y="151"/>
      <point x="141" y="61"/>
      <point x="250" y="10" type="curve" smooth="yes"/>
      <point x="278" y="-3"/>
      <point x="318" y="-15"/>
      <point x="365" y="-54" type="curve" smooth="yes"/>
      <point x="430" y="-108"/>
      <point x="471" y="-136"/>
      <point x="523" y="-173" type="curve" smooth="yes"/>
      <point x="587" y="-219"/>
      <point x="648" y="-248"/>
      <point x="744" y="-248" type="curve" smooth="yes"/>
    </contour>
    <contour>
      <point x="225" y="26"/>
      <point x="141" y="179"/>
      <point x="141" y="365" type="curve" smooth="yes"/>
      <point x="141" y="521"/>
      <point x="219" y="622"/>
      <point x="370" y="622" type="curve" smooth="yes"/>
      <point x="537" y="622"/>
      <point x="622" y="471"/>
      <point x="622" y="286" type="curve" smooth="yes"/>
      <point x="622" y="129"/>
      <point x="545" y="26"/>
      <point x="392" y="26" type="curve" smooth="yes"/>
    </contour>
  </outline>
</glyph>
<glyph name="Z" format="1">
  <advance width="603"/>
  <unicode hex="005A"/>
  <note>
    Z
  </note>
  <outline>
    <contour>
      <point x="543" y="-5"/>
      <point x="547" y="4"/>
      <point x="551" y="12" type="curve" smooth="yes"/>
      <point x="562" y="36"/>
      <point x="588" y="147"/>
      <point x="588" y="158" type="curve" smooth="yes"/>
      <point x="588" y="167"/>
      <point x="585" y="171"/>
      <point x="579" y="171" type="curve" smooth="yes"/>
      <point x="569" y="171"/>
      <point x="560" y="158"/>
      <point x="557" y="150" type="curve" smooth="yes"/>
      <point x="531" y="81"/>
      <point x="492" y="46"/>
      <point x="433" y="41" type="curve" smooth="yes"/>
      <point x="386" y="38"/>
      <point x="337" y="36"/>
      <point x="292" y="36" type="curve" smooth="yes"/>
      <point x="248" y="36"/>
      <point x="208" y="38"/>
      <point x="179" y="41" type="curve"/>
      <point x="172" y="42"/>
      <point x="168" y="50"/>
      <point x="168" y="58" type="curve" smooth="yes"/>
      <point x="168" y="62"/>
      <point x="169" y="67"/>
      <point x="171" y="70" type="curve" smooth="yes"/>
      <point x="295" y="262"/>
      <point x="371" y="364"/>
      <point x="509" y="550" type="curve" smooth="yes"/>
      <point x="570" y="631" type="line" smooth="yes"/>
      <point x="574" y="636"/>
      <point x="565" y="649"/>
      <point x="559" y="649" type="curve" smooth="yes"/>
      <point x="485" y="647"/>
      <point x="411" y="646"/>
      <point x="328" y="646" type="curve" smooth="yes"/>
      <point x="283" y="646"/>
      <point x="235" y="646"/>
      <point x="202" y="646" type="curve" smooth="yes"/>
      <point x="168" y="646"/>
      <point x="129" y="656"/>
      <point x="116" y="662" type="curve" smooth="yes"/>
      <point x="105" y="667"/>
      <point x="90" y="676"/>
      <point x="85" y="676" type="curve" smooth="yes"/>
      <point x="80" y="676"/>
      <point x="71" y="674"/>
      <point x="70" y="659" type="curve" smooth="yes"/>
      <point x="67" y="617"/>
      <point x="50" y="562"/>
      <point x="43" y="541" type="curve"/>
      <point x="40" y="533"/>
      <point x="36" y="522"/>
      <point x="36" y="514" type="curve" smooth="yes"/>
      <point x="36" y="508"/>
      <point x="39" y="503"/>
      <point x="45" y="503" type="curve" smooth="yes"/>
      <point x="60" y="503"/>
      <point x="68" y="523"/>
      <point x="73" y="535" type="curve"/>
      <point x="91" y="584"/>
      <point x="139" y="606"/>
      <point x="171" y="609" type="curve" smooth="yes"/>
      <point x="196" y="611"/>
      <point x="234" y="611"/>
      <point x="273" y="611" type="curve" smooth="yes"/>
      <point x="326" y="611"/>
      <point x="383" y="610"/>
      <point x="419" y="609" type="curve"/>
      <point x="434" y="608"/>
      <point x="438" y="605"/>
      <point x="438" y="601" type="curve" smooth="yes"/>
      <point x="438" y="598"/>
      <point x="436" y="596"/>
      <point x="434" y="593" type="curve" smooth="yes"/>
      <point x="306" y="401"/>
      <point x="222" y="290"/>
      <point x="86" y="104" type="curve" smooth="yes"/>
      <point x="63" y="73"/>
      <point x="28" y="21"/>
      <point x="28" y="11" type="curve"/>
      <point x="28" y="11"/>
      <point x="29" y="-3"/>
      <point x="35" y="-3" type="curve" smooth="yes"/>
      <point x="112" y="-3" type="line" smooth="yes"/>
      <point x="150" y="-3"/>
      <point x="191" y="-2"/>
      <point x="231" y="-2" type="curve" smooth="yes"/>
      <point x="320" y="-2"/>
      <point x="419" y="-5"/>
      <point x="533" y="-5" type="curve" smooth="yes"/>
    </contour>
    <contour>
      <point x="315" y="675" type="move" name="top.cap"/>
    </contour>
    <contour>
      <point x="302" y="-30" type="move" name="bottom.cap"/>
    </contour>
  </outline>
</glyph>
<glyph name="a" format="1">
  <advance width="399"/>
  <unicode hex="0061"/>
  <note>
    a
  </note>
  <outline>
    <contour>
      <point x="160" y="-14"/>
      <point x="198" y="2"/>
      <point x="242" y="38" type="curve"/>
      <point x="245" y="38" type="line"/>
      <point x="263" y="3"/>
      <point x="287" y="-14"/>
      <point x="318" y="-14" type="curve" smooth="yes"/>
      <point x="339" y="-14"/>
      <point x="366" y="0"/>
      <point x="387" y="21" type="curve" smooth="yes"/>
      <point x="393" y="27"/>
      <point x="398" y="37"/>
      <point x="398" y="43" type="curve" smooth="yes"/>
      <point x="398" y="49"/>
      <point x="393" y="54"/>
      <point x="387" y="54" type="curve" smooth="yes"/>
      <point x="385" y="54"/>
      <point x="383" y="53"/>
      <point x="379" y="49" type="curve" smooth="yes"/>
      <point x="370" y="41"/>
      <point x="359" y="38"/>
      <point x="342" y="38" type="curve" smooth="yes"/>
      <point x="320" y="38"/>
      <point x="305" y="57"/>
      <point x="306" y="85" type="curve" smooth="yes"/>
      <point x="311" y="325" type="line" smooth="yes"/>
      <point x="312" y="376"/>
      <point x="277" y="414"/>
      <point x="229" y="414" type="curve" smooth="yes"/>
      <point x="189" y="414"/>
      <point x="125" y="384"/>
      <point x="80" y="343" type="curve" smooth="yes"/>
      <point x="55" y="321"/>
      <point x="40" y="295"/>
      <point x="40" y="274" type="curve" smooth="yes"/>
      <point x="40" y="269"/>
      <point x="44" y="265"/>
      <point x="51" y="265" type="curve" smooth="yes"/>
      <point x="71" y="265"/>
      <point x="117" y="290"/>
      <point x="117" y="300" type="curve" smooth="yes"/>
      <point x="117" y="305"/>
      <point x="116" y="313"/>
      <point x="116" y="318" type="curve" smooth="yes"/>
      <point x="116" y="330"/>
      <point x="118" y="341"/>
      <point x="126" y="347" type="curve" smooth="yes"/>
      <point x="139" y="358"/>
      <point x="161" y="365"/>
      <point x="181" y="365" type="curve" smooth="yes"/>
      <point x="219" y="365"/>
      <point x="241" y="336"/>
      <point x="240" y="301" type="curve" smooth="yes"/>
      <point x="238" y="237" type="line" smooth="yes"/>
      <point x="237" y="210"/>
      <point x="236" y="208"/>
      <point x="210" y="197" type="curve" smooth="yes"/>
      <point x="108" y="155" type="line" smooth="yes"/>
      <point x="59" y="135"/>
      <point x="37" y="114"/>
      <point x="37" y="72" type="curve" smooth="yes"/>
      <point x="37" y="35"/>
      <point x="81" y="-14"/>
      <point x="117" y="-14" type="curve" smooth="yes"/>
    </contour>
    <contour>
      <point x="140" y="34"/>
      <point x="115" y="52"/>
      <point x="115" y="87" type="curve" smooth="yes"/>
      <point x="115" y="110"/>
      <point x="138" y="138"/>
      <point x="209" y="164" type="curve" smooth="yes"/>
      <point x="220" y="168"/>
      <point x="226" y="169"/>
      <point x="229" y="169" type="curve" smooth="yes"/>
      <point x="237" y="169"/>
      <point x="239" y="163"/>
      <point x="238" y="148" type="curve" smooth="yes"/>
      <point x="236" y="99" type="line" smooth="yes"/>
      <point x="235" y="74"/>
      <point x="230" y="65"/>
      <point x="223" y="58" type="curve" smooth="yes"/>
      <point x="208" y="43"/>
      <point x="190" y="34"/>
      <point x="164" y="34" type="curve" smooth="yes"/>
    </contour>
    <contour>
      <point x="201" y="440" type="move" name="top"/>
    </contour>
    <contour>
      <point x="193" y="-14" type="move" name="bottom"/>
    </contour>
  </outline>
</glyph>
<glyph name="b" format="1">
  <advance width="515"/>
  <unicode hex="0062"/>
  <note>
    b
  </note>
  <outline>
    <contour>
      <point x="390" y="-14"/>
      <point x="480" y="80"/>
      <point x="480" y="217" type="curve" smooth="yes"/>
      <point x="480" y="328"/>
      <point x="401" y="414"/>
      <point x="300" y="414" type="curve" smooth="yes"/>
      <point x="256" y="414"/>
      <point x="195" y="389"/>
      <point x="154" y="355" type="curve"/>
      <point x="147" y="356"/>
      <point x="145" y="362"/>
      <point x="145" y="388" type="curve" smooth="yes"/>
      <point x="145" y="593" type="line" smooth="yes"/>
      <point x="145" y="649"/>
      <point x="148" y="693"/>
      <point x="148" y="698" type="curve" smooth="yes"/>
      <point x="148" y="702"/>
      <point x="145" y="705"/>
      <point x="142" y="705" type="curve" smooth="yes"/>
      <point x="140" y="705"/>
      <point x="137" y="704"/>
      <point x="133" y="702" type="curve" smooth="yes"/>
      <point x="120" y="696"/>
      <point x="54" y="669"/>
      <point x="28" y="664" type="curve" smooth="yes"/>
      <point x="23" y="663"/>
      <point x="16" y="661"/>
      <point x="16" y="654" type="curve" smooth="yes"/>
      <point x="16" y="646"/>
      <point x="23" y="642"/>
      <point x="29" y="639" type="curve" smooth="yes"/>
      <point x="56" y="627"/>
      <point x="75" y="601"/>
      <point x="75" y="566" type="curve" smooth="yes"/>
      <point x="75" y="81" type="line" smooth="yes"/>
      <point x="75" y="56"/>
      <point x="68" y="21"/>
      <point x="68" y="9" type="curve" smooth="yes"/>
      <point x="68" y="2"/>
      <point x="76" y="-3"/>
      <point x="82" y="-3" type="curve" smooth="yes"/>
      <point x="85" y="-3"/>
      <point x="88" y="-1"/>
      <point x="91" y="2" type="curve" smooth="yes"/>
      <point x="97" y="8"/>
      <point x="105" y="15"/>
      <point x="113" y="15" type="curve" smooth="yes"/>
      <point x="120" y="15"/>
      <point x="144" y="7"/>
      <point x="173" y="-1" type="curve" smooth="yes"/>
      <point x="199" y="-8"/>
      <point x="230" y="-14"/>
      <point x="259" y="-14" type="curve" smooth="yes"/>
    </contour>
    <contour>
      <point x="212" y="17"/>
      <point x="145" y="62"/>
      <point x="145" y="132" type="curve" smooth="yes"/>
      <point x="145" y="253" type="line" smooth="yes"/>
      <point x="145" y="306"/>
      <point x="152" y="323"/>
      <point x="166" y="338" type="curve" smooth="yes"/>
      <point x="188" y="362"/>
      <point x="237" y="373"/>
      <point x="265" y="373" type="curve" smooth="yes"/>
      <point x="360" y="373"/>
      <point x="405" y="272"/>
      <point x="405" y="195" type="curve" smooth="yes"/>
      <point x="405" y="94"/>
      <point x="358" y="17"/>
      <point x="282" y="17" type="curve" smooth="yes"/>
    </contour>
    <contour>
      <point x="253" y="-30" type="move" name="bottom"/>
    </contour>
  </outline>
</glyph>
<glyph name="c" format="1">
  <advance width="377"/>
  <unicode hex="0063"/>
  <note>
    c
  </note>
  <outline>
    <contour>
      <point x="274" y="-15"/>
      <point x="325" y="7"/>
      <point x="357" y="48" type="curve" smooth="yes"/>
      <point x="367" y="61"/>
      <point x="372" y="71"/>
      <point x="372" y="79" type="curve" smooth="yes"/>
      <point x="372" y="87"/>
      <point x="367" y="93"/>
      <point x="361" y="93" type="curve" smooth="yes"/>
      <point x="358" y="93"/>
      <point x="354" y="91"/>
      <point x="351" y="88" type="curve" smooth="yes"/>
      <point x="319" y="56"/>
      <point x="295" y="45"/>
      <point x="256" y="45" type="curve" smooth="yes"/>
      <point x="171" y="45"/>
      <point x="104" y="118"/>
      <point x="104" y="212" type="curve" smooth="yes"/>
      <point x="104" y="310"/>
      <point x="149" y="377"/>
      <point x="214" y="377" type="curve" smooth="yes"/>
      <point x="258" y="377"/>
      <point x="269" y="372"/>
      <point x="308" y="330" type="curve" smooth="yes"/>
      <point x="315" y="323"/>
      <point x="322" y="319"/>
      <point x="329" y="319" type="curve" smooth="yes"/>
      <point x="346" y="319"/>
      <point x="372" y="343"/>
      <point x="372" y="360" type="curve" smooth="yes"/>
      <point x="372" y="367"/>
      <point x="368" y="373"/>
      <point x="360" y="379" type="curve" smooth="yes"/>
      <point x="328" y="402"/>
      <point x="289" y="414"/>
      <point x="246" y="414" type="curve" smooth="yes"/>
      <point x="129" y="414"/>
      <point x="35" y="310"/>
      <point x="35" y="180" type="curve" smooth="yes"/>
      <point x="35" y="69"/>
      <point x="112" y="-15"/>
      <point x="213" y="-15" type="curve" smooth="yes"/>
    </contour>
    <contour>
      <point x="237" y="440" type="move" name="top"/>
    </contour>
  </outline>
</glyph>
<glyph name="d" format="1">
  <advance width="506"/>
  <unicode hex="0064"/>
  <note>
    d
  </note>
  <outline>
    <contour>
      <point x="361" y="-19"/>
      <point x="362" y="-19"/>
      <point x="373" y="-13" type="curve" smooth="yes"/>
      <point x="420" y="7"/>
      <point x="453" y="16"/>
      <point x="490" y="21" type="curve" smooth="yes"/>
      <point x="497" y="21"/>
      <point x="504" y="30"/>
      <point x="504" y="39" type="curve" smooth="yes"/>
      <point x="504" y="47"/>
      <point x="499" y="49"/>
      <point x="486" y="48" type="curve" smooth="yes"/>
      <point x="469" y="46"/>
      <point x="450" y="45"/>
      <point x="443" y="45" type="curve" smooth="yes"/>
      <point x="428" y="45"/>
      <point x="422" y="64"/>
      <point x="422" y="110" type="curve" smooth="yes"/>
      <point x="422" y="562" type="line" smooth="yes"/>
      <point x="422" y="652"/>
      <point x="429" y="686"/>
      <point x="429" y="698" type="curve"/>
      <point x="428" y="702"/>
      <point x="426" y="704"/>
      <point x="422" y="704" type="curve" smooth="yes"/>
      <point x="419" y="704"/>
      <point x="414" y="703"/>
      <point x="409" y="701" type="curve" smooth="yes"/>
      <point x="390" y="693"/>
      <point x="360" y="679"/>
      <point x="301" y="664" type="curve" smooth="yes"/>
      <point x="295" y="662"/>
      <point x="293" y="657"/>
      <point x="293" y="652" type="curve" smooth="yes"/>
      <point x="293" y="646"/>
      <point x="296" y="640"/>
      <point x="302" y="639" type="curve" smooth="yes"/>
      <point x="334" y="633"/>
      <point x="352" y="620"/>
      <point x="352" y="566" type="curve" smooth="yes"/>
      <point x="352" y="424" type="line" smooth="yes"/>
      <point x="352" y="406"/>
      <point x="348" y="400"/>
      <point x="345" y="400" type="curve" smooth="yes"/>
      <point x="342" y="400"/>
      <point x="338" y="401"/>
      <point x="332" y="403" type="curve" smooth="yes"/>
      <point x="317" y="408"/>
      <point x="287" y="414"/>
      <point x="260" y="414" type="curve" smooth="yes"/>
      <point x="120" y="414"/>
      <point x="35" y="306"/>
      <point x="35" y="190" type="curve" smooth="yes"/>
      <point x="35" y="89"/>
      <point x="106" y="-14"/>
      <point x="220" y="-14" type="curve" smooth="yes"/>
      <point x="286" y="-14"/>
      <point x="331" y="26"/>
      <point x="351" y="57" type="curve"/>
      <point x="351" y="51" type="line" smooth="yes"/>
      <point x="351" y="34"/>
      <point x="346" y="4"/>
      <point x="346" y="-9" type="curve" smooth="yes"/>
      <point x="346" y="-12"/>
      <point x="354" y="-19"/>
      <point x="357" y="-19" type="curve" smooth="yes"/>
    </contour>
    <contour>
      <point x="213" y="36"/>
      <point x="106" y="62"/>
      <point x="106" y="213" type="curve" smooth="yes"/>
      <point x="106" y="346"/>
      <point x="183" y="379"/>
      <point x="229" y="379" type="curve" smooth="yes"/>
      <point x="303" y="379"/>
      <point x="352" y="321"/>
      <point x="352" y="267" type="curve" smooth="yes"/>
      <point x="352" y="142" type="line" smooth="yes"/>
      <point x="352" y="119"/>
      <point x="342" y="81"/>
      <point x="328" y="62" type="curve"/>
      <point x="311" y="46"/>
      <point x="286" y="36"/>
      <point x="257" y="36" type="curve" smooth="yes"/>
    </contour>
    <contour>
      <point x="238" y="-30" type="move" name="bottom"/>
    </contour>
  </outline>
</glyph>
<glyph name="e" format="1">
  <advance width="390"/>
  <unicode hex="0065"/>
  <note>
    e
  </note>
  <outline>
    <contour>
      <point x="266" y="-15"/>
      <point x="317" y="8"/>
      <point x="347" y="47" type="curve" smooth="yes"/>
      <point x="359" y="62"/>
      <point x="365" y="76"/>
      <point x="365" y="89" type="curve" smooth="yes"/>
      <point x="365" y="95"/>
      <point x="362" y="99"/>
      <point x="357" y="99" type="curve" smooth="yes"/>
      <point x="353" y="99"/>
      <point x="351" y="98"/>
      <point x="346" y="91" type="curve" smooth="yes"/>
      <point x="321" y="62"/>
      <point x="288" y="46"/>
      <point x="248" y="46" type="curve" smooth="yes"/>
      <point x="163" y="46"/>
      <point x="94" y="124"/>
      <point x="94" y="220" type="curve" smooth="yes"/>
      <point x="94" y="249"/>
      <point x="100" y="257"/>
      <point x="119" y="257" type="curve" smooth="yes"/>
      <point x="330" y="257" type="line" smooth="yes"/>
      <point x="351" y="257"/>
      <point x="360" y="267"/>
      <point x="360" y="288" type="curve" smooth="yes"/>
      <point x="360" y="362"/>
      <point x="303" y="414"/>
      <point x="223" y="414" type="curve" smooth="yes"/>
      <point x="118" y="414"/>
      <point x="30" y="318"/>
      <point x="30" y="203" type="curve" smooth="yes"/>
      <point x="30" y="72"/>
      <point x="103" y="-15"/>
      <point x="213" y="-15" type="curve" smooth="yes"/>
    </contour>
    <contour>
      <point x="113" y="288"/>
      <point x="109" y="291"/>
      <point x="109" y="298" type="curve" smooth="yes"/>
      <point x="109" y="338"/>
      <point x="162" y="385"/>
      <point x="208" y="385" type="curve" smooth="yes"/>
      <point x="255" y="385"/>
      <point x="294" y="353"/>
      <point x="294" y="315" type="curve" smooth="yes"/>
      <point x="294" y="301"/>
      <point x="292" y="294"/>
      <point x="286" y="293" type="curve" smooth="yes"/>
      <point x="264" y="289"/>
      <point x="244" y="288"/>
      <point x="212" y="288" type="curve" smooth="yes"/>
      <point x="121" y="288" type="line" smooth="yes"/>
    </contour>
    <contour>
      <point x="222" y="440" type="move" name="top"/>
    </contour>
    <contour>
      <point x="214" y="-30" type="move" name="bottom"/>
    </contour>
  </outline>
</glyph>
<glyph name="f" format="1">
  <advance width="318"/>
  <unicode hex="0066"/>
  <note>
    f
  </note>
  <outline>
    <contour>
      <point x="84" y="-3"/>
      <point x="92" y="2"/>
      <point x="127" y="2" type="curve" smooth="yes"/>
      <point x="162" y="2"/>
      <point x="189" y="-3"/>
      <point x="229" y="-3" type="curve" smooth="yes"/>
      <point x="242" y="-3"/>
      <point x="249" y="0"/>
      <point x="249" y="8" type="curve" smooth="yes"/>
      <point x="249" y="18"/>
      <point x="240" y="22"/>
      <point x="226" y="24" type="curve" smooth="yes"/>
      <point x="172" y="30"/>
      <point x="160" y="41"/>
      <point x="160" y="68" type="curve" smooth="yes"/>
      <point x="160" y="339" type="line" smooth="yes"/>
      <point x="160" y="347"/>
      <point x="163" y="352"/>
      <point x="179" y="352" type="curve" smooth="yes"/>
      <point x="294" y="352" type="line" smooth="yes"/>
      <point x="297" y="352"/>
      <point x="301" y="355"/>
      <point x="303" y="360" type="curve" smooth="yes"/>
      <point x="307" y="368"/>
      <point x="309" y="380"/>
      <point x="309" y="389" type="curve" smooth="yes"/>
      <point x="309" y="395"/>
      <point x="303" y="400"/>
      <point x="296" y="400" type="curve" smooth="yes"/>
      <point x="171" y="400" type="line" smooth="yes"/>
      <point x="165" y="400"/>
      <point x="160" y="402"/>
      <point x="160" y="410" type="curve" smooth="yes"/>
      <point x="160" y="498" type="line" smooth="yes"/>
      <point x="160" y="611"/>
      <point x="205" y="665"/>
      <point x="268" y="665" type="curve" smooth="yes"/>
      <point x="312" y="665"/>
      <point x="335" y="646"/>
      <point x="352" y="629" type="curve" smooth="yes"/>
      <point x="365" y="617"/>
      <point x="374" y="606"/>
      <point x="386" y="606" type="curve" smooth="yes"/>
      <point x="404" y="606"/>
      <point x="420" y="619"/>
      <point x="420" y="646" type="curve" smooth="yes"/>
      <point x="420" y="681"/>
      <point x="384" y="706"/>
      <point x="310" y="706" type="curve" smooth="yes"/>
      <point x="223" y="706"/>
      <point x="90" y="637"/>
      <point x="90" y="406" type="curve"/>
      <point x="70" y="396"/>
      <point x="55" y="388"/>
      <point x="31" y="376" type="curve" smooth="yes"/>
      <point x="29" y="375"/>
      <point x="24" y="373"/>
      <point x="24" y="370" type="curve" smooth="yes"/>
      <point x="24" y="363"/>
      <point x="34" y="353"/>
      <point x="38" y="352" type="curve"/>
      <point x="59" y="350"/>
      <point x="77" y="350"/>
      <point x="90" y="350" type="curve"/>
      <point x="90" y="68" type="line" smooth="yes"/>
      <point x="90" y="41"/>
      <point x="78" y="31"/>
      <point x="47" y="24" type="curve" smooth="yes"/>
      <point x="33" y="21"/>
      <point x="24" y="18"/>
      <point x="24" y="8" type="curve" smooth="yes"/>
      <point x="24" y="0"/>
      <point x="31" y="-3"/>
      <point x="44" y="-3" type="curve" smooth="yes"/>
    </contour>
  </outline>
</glyph>
<glyph name="g" format="1">
  <advance width="435"/>
  <unicode hex="0067"/>
  <note>
    g
  </note>
  <outline>
    <contour>
      <point x="303" y="-290"/>
      <point x="418" y="-180"/>
      <point x="418" y="-77" type="curve" smooth="yes"/>
      <point x="418" y="-16"/>
      <point x="359" y="17"/>
      <point x="236" y="24" type="curve" smooth="yes"/>
      <point x="151" y="29"/>
      <point x="106" y="46"/>
      <point x="106" y="74" type="curve" smooth="yes"/>
      <point x="106" y="88"/>
      <point x="129" y="109"/>
      <point x="158" y="120" type="curve"/>
      <point x="124" y="137" type="line"/>
      <point x="113" y="119"/>
      <point x="109" y="116"/>
      <point x="63" y="81" type="curve" smooth="yes"/>
      <point x="47" y="68"/>
      <point x="40" y="57"/>
      <point x="40" y="44" type="curve" smooth="yes"/>
      <point x="40" y="-7"/>
      <point x="82" y="-28"/>
      <point x="207" y="-37" type="curve" smooth="yes"/>
      <point x="313" y="-44"/>
      <point x="357" y="-65"/>
      <point x="357" y="-109" type="curve" smooth="yes"/>
      <point x="357" y="-155"/>
      <point x="337" y="-198"/>
      <point x="304" y="-223" type="curve" smooth="yes"/>
      <point x="280" y="-241"/>
      <point x="249" y="-250"/>
      <point x="209" y="-250" type="curve" smooth="yes"/>
      <point x="140" y="-250"/>
      <point x="86" y="-208"/>
      <point x="86" y="-155" type="curve" smooth="yes"/>
      <point x="86" y="-102"/>
      <point x="108" y="-69"/>
      <point x="172" y="-28" type="curve"/>
      <point x="130" y="-26" type="line"/>
      <point x="97" y="-53"/>
      <point x="63" y="-79"/>
      <point x="44" y="-95" type="curve" smooth="yes"/>
      <point x="21" y="-113"/>
      <point x="11" y="-135"/>
      <point x="11" y="-170" type="curve" smooth="yes"/>
      <point x="11" y="-244"/>
      <point x="81" y="-290"/>
      <point x="195" y="-290" type="curve" smooth="yes"/>
    </contour>
    <contour>
      <point x="155" y="141"/>
      <point x="111" y="200"/>
      <point x="111" y="270" type="curve" smooth="yes"/>
      <point x="111" y="331"/>
      <point x="153" y="386"/>
      <point x="200" y="386" type="curve" smooth="yes"/>
      <point x="249" y="386"/>
      <point x="295" y="333"/>
      <point x="295" y="275" type="curve" smooth="yes"/>
      <point x="295" y="199"/>
      <point x="257" y="141"/>
      <point x="207" y="141" type="curve" smooth="yes"/>
    </contour>
    <contour>
      <point x="287" y="106"/>
      <point x="360" y="193"/>
      <point x="360" y="295" type="curve" smooth="yes"/>
      <point x="360" y="313"/>
      <point x="363" y="332"/>
      <point x="366" y="341" type="curve" smooth="yes"/>
      <point x="368" y="346"/>
      <point x="378" y="349"/>
      <point x="396" y="349" type="curve" smooth="yes"/>
      <point x="423" y="349" type="line"/>
      <point x="425" y="349"/>
      <point x="428" y="351"/>
      <point x="431" y="354" type="curve" smooth="yes"/>
      <point x="437" y="360"/>
      <point x="441" y="368"/>
      <point x="441" y="373" type="curve" smooth="yes"/>
      <point x="441" y="382"/>
      <point x="435" y="388"/>
      <point x="428" y="388" type="curve" smooth="yes"/>
      <point x="418" y="388"/>
      <point x="389" y="385"/>
      <point x="373" y="385" type="curve" smooth="yes"/>
      <point x="353" y="385"/>
      <point x="338" y="386"/>
      <point x="306" y="395" type="curve" smooth="yes"/>
      <point x="278" y="403"/>
      <point x="252" y="416"/>
      <point x="213" y="416" type="curve" smooth="yes"/>
      <point x="122" y="416"/>
      <point x="39" y="351"/>
      <point x="39" y="258" type="curve" smooth="yes"/>
      <point x="39" y="176"/>
      <point x="119" y="106"/>
      <point x="201" y="106" type="curve" smooth="yes"/>
    </contour>
    <contour>
      <point x="215" y="440" type="move" name="top"/>
    </contour>
  </outline>
</glyph>
<glyph name="r" format="1">
  <advance width="334"/>
  <unicode hex="0072"/>
  <note>
    r
  </note>
  <outline>
    <contour>
      <point x="89" y="-3"/>
      <point x="95" y="2"/>
      <point x="130" y="2" type="curve" smooth="yes"/>
      <point x="165" y="2"/>
      <point x="177" y="-3"/>
      <point x="217" y="-3" type="curve" smooth="yes"/>
      <point x="231" y="-3"/>
      <point x="237" y="0"/>
      <point x="237" y="8" type="curve" smooth="yes"/>
      <point x="237" y="17"/>
      <point x="228" y="20"/>
      <point x="214" y="24" type="curve" smooth="yes"/>
      <point x="181" y="34"/>
      <point x="161" y="44"/>
      <point x="161" y="62" type="curve" smooth="yes"/>
      <point x="161" y="264" type="line" smooth="yes"/>
      <point x="161" y="331"/>
      <point x="198" y="348"/>
      <point x="230" y="348" type="curve" smooth="yes"/>
      <point x="240" y="348"/>
      <point x="251" y="343"/>
      <point x="262" y="339" type="curve" smooth="yes"/>
      <point x="272" y="334"/>
      <point x="282" y="330"/>
      <point x="290" y="330" type="curve" smooth="yes"/>
      <point x="310" y="330"/>
      <point x="329" y="362"/>
      <point x="329" y="382" type="curve" smooth="yes"/>
      <point x="329" y="400"/>
      <point x="309" y="414"/>
      <point x="281" y="414" type="curve" smooth="yes"/>
      <point x="242" y="414"/>
      <point x="198" y="385"/>
      <point x="166" y="346" type="curve"/>
      <point x="165" y="346"/>
      <point x="164" y="347"/>
      <point x="164" y="348" type="curve"/>
      <point x="166" y="380"/>
      <point x="167" y="416"/>
      <point x="167" y="423" type="curve"/>
      <point x="167" y="427"/>
      <point x="165" y="430"/>
      <point x="162" y="430" type="curve" smooth="yes"/>
      <point x="159" y="430"/>
      <point x="155" y="428"/>
      <point x="147" y="423" type="curve" smooth="yes"/>
      <point x="126" y="410"/>
      <point x="83" y="385"/>
      <point x="48" y="374" type="curve" smooth="yes"/>
      <point x="44" y="373"/>
      <point x="39" y="368"/>
      <point x="39" y="362" type="curve" smooth="yes"/>
      <point x="39" y="356"/>
      <point x="44" y="350"/>
      <point x="49" y="349" type="curve" smooth="yes"/>
      <point x="82" y="342"/>
      <point x="90" y="313"/>
      <point x="90" y="277" type="curve" smooth="yes"/>
      <point x="90" y="62" type="line" smooth="yes"/>
      <point x="90" y="43"/>
      <point x="77" y="30"/>
      <point x="52" y="24" type="curve" smooth="yes"/>
      <point x="37" y="20"/>
      <point x="29" y="18"/>
      <point x="29" y="8" type="curve" smooth="yes"/>
      <point x="29" y="0"/>
      <point x="35" y="-3"/>
      <point x="49" y="-3" type="curve" smooth="yes"/>
    </contour>
    <contour>
      <point x="191" y="440" type="move" name="top"/>
    </contour>
    <contour>
      <point x="133" y="-30" type="move" name="bottom"/>
    </contour>
  </outline>
</glyph>
<glyph name="s" format="1">
  <advance width="323"/>
  <unicode hex="0073"/>
  <note>
    s
  </note>
  <outline>
    <contour>
      <point x="231" y="-14"/>
      <point x="291" y="36"/>
      <point x="291" y="108" type="curve" smooth="yes"/>
      <point x="291" y="170"/>
      <point x="253" y="201"/>
      <point x="176" y="245" type="curve" smooth="yes"/>
      <point x="122" y="276"/>
      <point x="107" y="296"/>
      <point x="107" y="327" type="curve" smooth="yes"/>
      <point x="107" y="365"/>
      <point x="138" y="386"/>
      <point x="171" y="386" type="curve" smooth="yes"/>
      <point x="209" y="386"/>
      <point x="234" y="362"/>
      <point x="252" y="318" type="curve" smooth="yes"/>
      <point x="254" y="313"/>
      <point x="263" y="309"/>
      <point x="271" y="309" type="curve" smooth="yes"/>
      <point x="276" y="309"/>
      <point x="281" y="311"/>
      <point x="281" y="316" type="curve" smooth="yes"/>
      <point x="281" y="344"/>
      <point x="272" y="380"/>
      <point x="262" y="395" type="curve"/>
      <point x="249" y="404"/>
      <point x="222" y="414"/>
      <point x="182" y="414" type="curve" smooth="yes"/>
      <point x="92" y="414"/>
      <point x="47" y="363"/>
      <point x="47" y="299" type="curve" smooth="yes"/>
      <point x="47" y="249"/>
      <point x="74" y="217"/>
      <point x="142" y="175" type="curve" smooth="yes"/>
      <point x="202" y="138"/>
      <point x="223" y="117"/>
      <point x="223" y="81" type="curve" smooth="yes"/>
      <point x="223" y="42"/>
      <point x="192" y="13"/>
      <point x="153" y="13" type="curve" smooth="yes"/>
      <point x="114" y="13"/>
      <point x="71" y="38"/>
      <point x="54" y="104" type="curve"/>
      <point x="53" y="109"/>
      <point x="47" y="111"/>
      <point x="42" y="111" type="curve" smooth="yes"/>
      <point x="35" y="111"/>
      <point x="29" y="108"/>
      <point x="29" y="102" type="curve"/>
      <point x="30" y="79"/>
      <point x="33" y="36"/>
      <point x="40" y="22" type="curve"/>
      <point x="65" y="-1"/>
      <point x="103" y="-14"/>
      <point x="144" y="-14" type="curve" smooth="yes"/>
    </contour>
    <contour>
      <point x="176" y="440" type="move" name="top"/>
    </contour>
    <contour>
      <point x="168" y="-30" type="move" name="bottom"/>
    </contour>
  </outline>
</glyph>
<glyph name="v" format="1">
  <advance width="438"/>
  <unicode hex="0076"/>
  <note>
    v
  </note>
  <outline>
    <contour>
      <point x="220" y="-21" type="line"/>
      <point x="227" y="-12"/>
      <point x="242" y="24"/>
      <point x="242" y="24" type="curve" smooth="yes"/>
      <point x="242" y="24"/>
      <point x="275" y="112"/>
      <point x="280" y="123" type="curve" smooth="yes"/>
      <point x="358" y="311" type="line" smooth="yes"/>
      <point x="372" y="344"/>
      <point x="400" y="372"/>
      <point x="420" y="378" type="curve" smooth="yes"/>
      <point x="436" y="383"/>
      <point x="443" y="387"/>
      <point x="443" y="396" type="curve" smooth="yes"/>
      <point x="443" y="404"/>
      <point x="433" y="405"/>
      <point x="423" y="405" type="curve" smooth="yes"/>
      <point x="404" y="405"/>
      <point x="399" y="400"/>
      <point x="364" y="400" type="curve" smooth="yes"/>
      <point x="329" y="400"/>
      <point x="306" y="405"/>
      <point x="291" y="405" type="curve" smooth="yes"/>
      <point x="282" y="405"/>
      <point x="271" y="404"/>
      <point x="271" y="396" type="curve" smooth="yes"/>
      <point x="271" y="387"/>
      <point x="277" y="384"/>
      <point x="294" y="378" type="curve" smooth="yes"/>
      <point x="312" y="371"/>
      <point x="320" y="362"/>
      <point x="320" y="336" type="curve" smooth="yes"/>
      <point x="320" y="325"/>
      <point x="317" y="308"/>
      <point x="312" y="295" type="curve" smooth="yes"/>
      <point x="236" y="100" type="line"/>
      <point x="235" y="99"/>
      <point x="234" y="99"/>
      <point x="233" y="100" type="curve"/>
      <point x="154" y="310" type="line" smooth="yes"/>
      <point x="151" y="318"/>
      <point x="150" y="328"/>
      <point x="150" y="337" type="curve" smooth="yes"/>
      <point x="150" y="356"/>
      <point x="156" y="373"/>
      <point x="170" y="378" type="curve" smooth="yes"/>
      <point x="182" y="382"/>
      <point x="193" y="386"/>
      <point x="193" y="396" type="curve" smooth="yes"/>
      <point x="193" y="404"/>
      <point x="180" y="405"/>
      <point x="173" y="405" type="curve" smooth="yes"/>
      <point x="134" y="405"/>
      <point x="133" y="400"/>
      <point x="98" y="400" type="curve" smooth="yes"/>
      <point x="63" y="400"/>
      <point x="64" y="405"/>
      <point x="25" y="405" type="curve" smooth="yes"/>
      <point x="18" y="405"/>
      <point x="5" y="404"/>
      <point x="5" y="396" type="curve" smooth="yes"/>
      <point x="5" y="387"/>
      <point x="12" y="384"/>
      <point x="23" y="380" type="curve" smooth="yes"/>
      <point x="43" y="374"/>
      <point x="64" y="353"/>
      <point x="74" y="329" type="curve" smooth="yes"/>
      <point x="106" y="247"/>
      <point x="141" y="170"/>
      <point x="171" y="87" type="curve" smooth="yes"/>
      <point x="179" y="65"/>
      <point x="187" y="39"/>
      <point x="196" y="17" type="curve" smooth="yes"/>
      <point x="199" y="8"/>
      <point x="209" y="-21"/>
      <point x="214" y="-21" type="curve"/>
    </contour>
    <contour>
      <point x="218" y="440" type="move" name="top"/>
    </contour>
    <contour>
      <point x="220" y="-30" type="move" name="bottom"/>
    </contour>
  </outline>
</glyph>
<glyph name="z" format="1">
  <advance width="377"/>
  <unicode hex="007A"/>
  <note>
	z
  </note>
  <outline>
    <contour>
      <point x="56" y="-5"/>
      <point x="91" y="0"/>
      <point x="119" y="0" type="curve" smooth="yes"/>
      <point x="228" y="0"/>
      <point x="299" y="-5"/>
      <point x="328" y="-5" type="curve" smooth="yes"/>
      <point x="336" y="-5"/>
      <point x="342" y="0"/>
      <point x="344" y="9" type="curve" smooth="yes"/>
      <point x="349" y="25"/>
      <point x="374" y="114"/>
      <point x="374" y="122" type="curve" smooth="yes"/>
      <point x="374" y="133"/>
      <point x="358" y="138"/>
      <point x="352" y="129" type="curve" smooth="yes"/>
      <point x="332" y="100"/>
      <point x="314" y="74"/>
      <point x="298" y="58" type="curve" smooth="yes"/>
      <point x="283" y="43"/>
      <point x="268" y="35"/>
      <point x="253" y="35" type="curve" smooth="yes"/>
      <point x="136" y="35" type="line" smooth="yes"/>
      <point x="127" y="35"/>
      <point x="121" y="40"/>
      <point x="127" y="50" type="curve" smooth="yes"/>
      <point x="320" y="343" type="line" smooth="yes"/>
      <point x="334" y="363"/>
      <point x="344" y="376"/>
      <point x="358" y="393" type="curve"/>
      <point x="361" y="397"/>
      <point x="356" y="405"/>
      <point x="351" y="405" type="curve" smooth="yes"/>
      <point x="290" y="403"/>
      <point x="234" y="402"/>
      <point x="165" y="402" type="curve" smooth="yes"/>
      <point x="156" y="402"/>
      <point x="142" y="401"/>
      <point x="127" y="401" type="curve" smooth="yes"/>
      <point x="109" y="401"/>
      <point x="90" y="402"/>
      <point x="84" y="407" type="curve" smooth="yes"/>
      <point x="78" y="412"/>
      <point x="72" y="416"/>
      <point x="69" y="416" type="curve" smooth="yes"/>
      <point x="65" y="416"/>
      <point x="54" y="408"/>
      <point x="54" y="398" type="curve" smooth="yes"/>
      <point x="54" y="373"/>
      <point x="41" y="322"/>
      <point x="35" y="304" type="curve" smooth="yes"/>
      <point x="31" y="293"/>
      <point x="49" y="286"/>
      <point x="57" y="294" type="curve" smooth="yes"/>
      <point x="71" y="312"/>
      <point x="86" y="337"/>
      <point x="101" y="352" type="curve" smooth="yes"/>
      <point x="109" y="360"/>
      <point x="123" y="364"/>
      <point x="142" y="364" type="curve" smooth="yes"/>
      <point x="239" y="364" type="line" smooth="yes"/>
      <point x="254" y="364"/>
      <point x="251" y="358"/>
      <point x="248" y="354" type="curve"/>
      <point x="175" y="238"/>
      <point x="129" y="166"/>
      <point x="62" y="70" type="curve" smooth="yes"/>
      <point x="48" y="51"/>
      <point x="25" y="17"/>
      <point x="25" y="12" type="curve" smooth="yes"/>
      <point x="25" y="7"/>
      <point x="34" y="-5"/>
      <point x="39" y="-5" type="curve" smooth="yes"/>
    </contour>
    <contour>
      <point x="201" y="440" type="move" name="top"/>
    </contour>
    <contour>
      <point x="179" y="-30" type="move" name="bottom"/>
    </contour>
  </outline>
</glyph>
<glyph name="braceleft" format="1">
  <advance width="376"/>
  <unicode hex="007B"/>
  <note>
    braceleft
  </note>
  <outline>
    <contour>
      <point x="344" y="-153"/>
      <point x="353" y="-146"/>
      <point x="353" y="-137" type="curve" smooth="yes"/>
      <point x="353" y="-126"/>
      <point x="338" y="-126"/>
      <point x="327" y="-125" type="curve" smooth="yes"/>
      <point x="263" y="-119"/>
      <point x="218" y="-99"/>
      <point x="218" y="-26" type="curve" smooth="yes"/>
      <point x="218" y="42"/>
      <point x="231" y="89"/>
      <point x="231" y="147" type="curve" smooth="yes"/>
      <point x="231" y="213"/>
      <point x="158" y="270"/>
      <point x="125" y="279" type="curve"/>
      <point x="122" y="280"/>
      <point x="119" y="281"/>
      <point x="123" y="283" type="curve"/>
      <point x="165" y="300"/>
      <point x="231" y="348"/>
      <point x="231" y="414" type="curve" smooth="yes"/>
      <point x="231" y="472"/>
      <point x="218" y="519"/>
      <point x="218" y="587" type="curve" smooth="yes"/>
      <point x="218" y="660"/>
      <point x="266" y="678"/>
      <point x="330" y="686" type="curve" smooth="yes"/>
      <point x="341" y="687"/>
      <point x="356" y="689"/>
      <point x="356" y="700" type="curve" smooth="yes"/>
      <point x="356" y="709"/>
      <point x="347" y="715"/>
      <point x="338" y="715" type="curve" smooth="yes"/>
      <point x="244" y="711"/>
      <point x="153" y="676"/>
      <point x="153" y="582" type="curve" smooth="yes"/>
      <point x="153" y="512"/>
      <point x="166" y="466"/>
      <point x="166" y="404" type="curve" smooth="yes"/>
      <point x="166" y="346"/>
      <point x="124" y="315"/>
      <point x="71" y="301" type="curve" smooth="yes"/>
      <point x="56" y="297"/>
      <point x="50" y="288"/>
      <point x="50" y="282" type="curve" smooth="yes"/>
      <point x="50" y="274"/>
      <point x="60" y="267"/>
      <point x="69" y="265" type="curve" smooth="yes"/>
      <point x="112" y="255"/>
      <point x="166" y="215"/>
      <point x="166" y="157" type="curve" smooth="yes"/>
      <point x="166" y="95"/>
      <point x="153" y="49"/>
      <point x="153" y="-21" type="curve" smooth="yes"/>
      <point x="153" y="-115"/>
      <point x="241" y="-146"/>
      <point x="335" y="-152" type="curve" smooth="yes"/>
    </contour>
  </outline>
</glyph>
<glyph name="asciitilde" format="1">
  <advance width="500"/>
  <unicode hex="007E"/>
  <note>
    asciitilde
  </note>
  <outline>
    <contour>
      <point x="386" y="260"/>
      <point x="450" y="321"/>
      <point x="450" y="362" type="curve" smooth="yes"/>
      <point x="450" y="375"/>
      <point x="435" y="382"/>
      <point x="430" y="382" type="curve" smooth="yes"/>
      <point x="425" y="382"/>
      <point x="382" y="319"/>
      <point x="337" y="319" type="curve" smooth="yes"/>
      <point x="310" y="319"/>
      <point x="285" y="334"/>
      <point x="259" y="350" type="curve" smooth="yes"/>
      <point x="233" y="365"/>
      <point x="205" y="381"/>
      <point x="171" y="381" type="curve" smooth="yes"/>
      <point x="101" y="381"/>
      <point x="50" y="306"/>
      <point x="50" y="279" type="curve" smooth="yes"/>
      <point x="50" y="272"/>
      <point x="61" y="265"/>
      <point x="69" y="265" type="curve" smooth="yes"/>
      <point x="74" y="265"/>
      <point x="110" y="320"/>
      <point x="160" y="320" type="curve" smooth="yes"/>
      <point x="189" y="320"/>
      <point x="216" y="306"/>
      <point x="243" y="291" type="curve" smooth="yes"/>
      <point x="272" y="276"/>
      <point x="302" y="260"/>
      <point x="337" y="260" type="curve" smooth="yes"/>
    </contour>
  </outline>
</glyph>
<glyph name="currency" format="1">
  <advance width="506"/>
  <unicode hex="00A4"/>
  <note>
    currency
  </note>
  <outline>
    <contour>
      <point x="73" y="57"/>
      <point x="76" y="58"/>
      <point x="78" y="60" type="curve" smooth="yes"/>
      <point x="135" y="116" type="line"/>
      <point x="167" y="90"/>
      <point x="208" y="75"/>
      <point x="253" y="75" type="curve" smooth="yes"/>
      <point x="298" y="75"/>
      <point x="339" y="90"/>
      <point x="371" y="116" type="curve"/>
      <point x="427" y="60" type="line" smooth="yes"/>
      <point x="429" y="58"/>
      <point x="432" y="57"/>
      <point x="435" y="57" type="curve" smooth="yes"/>
      <point x="448" y="57"/>
      <point x="466" y="75"/>
      <point x="466" y="88" type="curve" smooth="yes"/>
      <point x="466" y="91"/>
      <point x="465" y="93"/>
      <point x="463" y="95" type="curve" smooth="yes"/>
      <point x="406" y="152" type="line"/>
      <point x="431" y="185"/>
      <point x="445" y="226"/>
      <point x="445" y="270" type="curve" smooth="yes"/>
      <point x="445" y="314"/>
      <point x="431" y="355"/>
      <point x="406" y="388" type="curve"/>
      <point x="461" y="443" type="line" smooth="yes"/>
      <point x="464" y="446"/>
      <point x="465" y="449"/>
      <point x="465" y="453" type="curve" smooth="yes"/>
      <point x="465" y="467"/>
      <point x="447" y="483"/>
      <point x="435" y="483" type="curve" smooth="yes"/>
      <point x="432" y="483"/>
      <point x="429" y="482"/>
      <point x="427" y="480" type="curve" smooth="yes"/>
      <point x="371" y="424" type="line"/>
      <point x="339" y="450"/>
      <point x="298" y="465"/>
      <point x="253" y="465" type="curve" smooth="yes"/>
      <point x="208" y="465"/>
      <point x="167" y="449"/>
      <point x="134" y="424" type="curve"/>
      <point x="79" y="479" type="line" smooth="yes"/>
      <point x="77" y="481"/>
      <point x="74" y="482"/>
      <point x="71" y="482" type="curve" smooth="yes"/>
      <point x="58" y="482"/>
      <point x="40" y="464"/>
      <point x="40" y="451" type="curve" smooth="yes"/>
      <point x="40" y="448"/>
      <point x="41" y="446"/>
      <point x="43" y="444" type="curve" smooth="yes"/>
      <point x="100" y="387" type="line"/>
      <point x="75" y="355"/>
      <point x="61" y="314"/>
      <point x="61" y="270" type="curve" smooth="yes"/>
      <point x="61" y="226"/>
      <point x="75" y="185"/>
      <point x="100" y="152" type="curve"/>
      <point x="43" y="95" type="line" smooth="yes"/>
      <point x="41" y="93"/>
      <point x="40" y="90"/>
      <point x="40" y="87" type="curve" smooth="yes"/>
      <point x="40" y="74"/>
      <point x="57" y="57"/>
      <point x="70" y="57" type="curve" smooth="yes"/>
    </contour>
    <contour>
      <point x="174" y="125"/>
      <point x="111" y="191"/>
      <point x="111" y="270" type="curve" smooth="yes"/>
      <point x="111" y="349"/>
      <point x="174" y="415"/>
      <point x="253" y="415" type="curve" smooth="yes"/>
      <point x="332" y="415"/>
      <point x="395" y="349"/>
      <point x="395" y="270" type="curve" smooth="yes"/>
      <point x="395" y="191"/>
      <point x="332" y="125"/>
      <point x="253" y="125" type="curve" smooth="yes"/>
    </contour>
  </outline>
</glyph>
<glyph name="section" format="1">
  <advance width="400"/>
  <unicode hex="00A7"/>
  <note>
	section
  </note>
  <outline>
    <contour>
      <point x="141" y="-148"/>
      <point x="162" y="-146"/>
      <point x="177" y="-137" type="curve" smooth="yes"/>
      <point x="270" y="-81"/>
      <point x="346" y="42"/>
      <point x="346" y="159" type="curve" smooth="yes"/>
      <point x="346" y="247"/>
      <point x="325" y="310"/>
      <point x="241" y="385" type="curve" smooth="yes"/>
      <point x="182" y="438"/>
      <point x="137" y="496"/>
      <point x="137" y="533" type="curve" smooth="yes"/>
      <point x="137" y="565"/>
      <point x="158" y="596"/>
      <point x="198" y="596" type="curve" smooth="yes"/>
      <point x="216" y="596"/>
      <point x="240" y="580"/>
      <point x="260" y="562" type="curve"/>
      <point x="264" y="558"/>
      <point x="269" y="556"/>
      <point x="273" y="556" type="curve" smooth="yes"/>
      <point x="294" y="556"/>
      <point x="311" y="599"/>
      <point x="311" y="603" type="curve" smooth="yes"/>
      <point x="311" y="611"/>
      <point x="305" y="616"/>
      <point x="299" y="621" type="curve"/>
      <point x="288" y="631"/>
      <point x="254" y="640"/>
      <point x="229" y="640" type="curve" smooth="yes"/>
      <point x="158" y="640"/>
      <point x="105" y="571"/>
      <point x="90" y="513" type="curve"/>
      <point x="52" y="467"/>
      <point x="24" y="418"/>
      <point x="24" y="329" type="curve" smooth="yes"/>
      <point x="24" y="270"/>
      <point x="56" y="212"/>
      <point x="118" y="149" type="curve" smooth="yes"/>
      <point x="170" y="95"/>
      <point x="232" y="38"/>
      <point x="232" y="-12" type="curve" smooth="yes"/>
      <point x="232" y="-64"/>
      <point x="214" y="-94"/>
      <point x="180" y="-94" type="curve" smooth="yes"/>
      <point x="157" y="-94"/>
      <point x="128" y="-85"/>
      <point x="111" y="-70" type="curve"/>
      <point x="106" y="-66"/>
      <point x="96" y="-59"/>
      <point x="89" y="-64" type="curve" smooth="yes"/>
      <point x="66" y="-81"/>
      <point x="61" y="-107"/>
      <point x="61" y="-116" type="curve" smooth="yes"/>
      <point x="61" y="-134"/>
      <point x="88" y="-148"/>
      <point x="123" y="-148" type="curve" smooth="yes"/>
    </contour>
    <contour>
      <point x="270" y="97"/>
      <point x="205" y="161"/>
      <point x="163" y="204" type="curve" smooth="yes"/>
      <point x="103" y="266"/>
      <point x="73" y="316"/>
      <point x="73" y="385" type="curve" smooth="yes"/>
      <point x="73" y="412"/>
      <point x="77" y="431"/>
      <point x="84" y="458" type="curve" smooth="yes"/>
      <point x="85" y="462"/>
      <point x="92" y="463"/>
      <point x="94" y="458" type="curve"/>
      <point x="110" y="412"/>
      <point x="175" y="348"/>
      <point x="217" y="305" type="curve" smooth="yes"/>
      <point x="277" y="243"/>
      <point x="307" y="193"/>
      <point x="307" y="124" type="curve" smooth="yes"/>
      <point x="307" y="97"/>
      <point x="303" y="78"/>
      <point x="296" y="51" type="curve" smooth="yes"/>
      <point x="295" y="47"/>
      <point x="288" y="46"/>
      <point x="286" y="51" type="curve"/>
    </contour>
  </outline>
</glyph>
<glyph name="dieresis" format="1">
  <advance width="300"/>
  <unicode hex="00A8"/>
  <note>
    dieresis
  </note>
  <outline>
    <component base="uni0308" xOffset="150" yOffset="19"/>
    <contour>
      <point x="150" y="440" type="move" name="_top"/>
    </contour>
  </outline>
</glyph>
<glyph name="logicalnot" format="1">
  <advance width="600"/>
  <unicode hex="00AC"/>
  <note>
    logicalnot
  </note>
  <outline>
    <contour>
      <point x="511" y="43"/>
      <point x="550" y="46"/>
      <point x="550" y="67" type="curve" smooth="yes"/>
      <point x="550" y="368" type="line" smooth="yes"/>
      <point x="550" y="375"/>
      <point x="544" y="382"/>
      <point x="537" y="382" type="curve" smooth="yes"/>
      <point x="74" y="382" type="line" smooth="yes"/>
      <point x="53" y="382"/>
      <point x="50" y="343"/>
      <point x="50" y="334" type="curve" smooth="yes"/>
      <point x="50" y="328"/>
      <point x="57" y="322"/>
      <point x="64" y="322" type="curve" smooth="yes"/>
      <point x="476" y="322" type="line" smooth="yes"/>
      <point x="486" y="322"/>
      <point x="490" y="314"/>
      <point x="490" y="304" type="curve" smooth="yes"/>
      <point x="490" y="57" type="line" smooth="yes"/>
      <point x="490" y="50"/>
      <point x="496" y="43"/>
      <point x="502" y="43" type="curve" smooth="yes"/>
    </contour>
  </outline>
</glyph>
<glyph name="registered" format="1">
  <advance width="665"/>
  <unicode hex="00AE"/>
  <note>
    registered
  </note>
  <outline>
    <contour>
      <point x="512" y="24"/>
      <point x="649" y="160"/>
      <point x="649" y="327" type="curve" smooth="yes"/>
      <point x="649" y="494"/>
      <point x="513" y="630"/>
      <point x="346" y="630" type="curve" smooth="yes"/>
      <point x="179" y="630"/>
      <point x="43" y="494"/>
      <point x="43" y="327" type="curve" smooth="yes"/>
      <point x="43" y="160"/>
      <point x="178" y="24"/>
      <point x="345" y="24" type="curve" smooth="yes"/>
    </contour>
    <contour>
      <point x="199" y="58"/>
      <point x="83" y="181"/>
      <point x="83" y="327" type="curve" smooth="yes"/>
      <point x="83" y="472"/>
      <point x="201" y="590"/>
      <point x="346" y="590" type="curve" smooth="yes"/>
      <point x="491" y="590"/>
      <point x="609" y="472"/>
      <point x="609" y="327" type="curve" smooth="yes"/>
      <point x="609" y="180"/>
      <point x="492" y="58"/>
      <point x="345" y="58" type="curve" smooth="yes"/>
    </contour>
    <contour>
      <point x="502" y="173"/>
      <point x="527" y="182"/>
      <point x="527" y="200" type="curve" smooth="yes"/>
      <point x="527" y="208"/>
      <point x="515" y="204"/>
      <point x="511" y="204" type="curve" smooth="yes"/>
      <point x="483" y="204"/>
      <point x="428" y="268"/>
      <point x="408" y="320" type="curve" smooth="yes"/>
      <point x="405" y="327"/>
      <point x="399" y="334"/>
      <point x="408" y="337" type="curve" smooth="yes"/>
      <point x="438" y="348"/>
      <point x="470" y="376"/>
      <point x="470" y="417" type="curve" smooth="yes"/>
      <point x="470" y="470"/>
      <point x="418" y="498"/>
      <point x="366" y="496" type="curve" smooth="yes"/>
      <point x="335" y="495"/>
      <point x="305" y="491"/>
      <point x="274" y="491" type="curve" smooth="yes"/>
      <point x="257" y="491"/>
      <point x="239" y="495"/>
      <point x="222" y="496" type="curve" smooth="yes"/>
      <point x="209" y="497"/>
      <point x="202" y="492"/>
      <point x="202" y="484" type="curve" smooth="yes"/>
      <point x="202" y="476"/>
      <point x="207" y="472"/>
      <point x="221" y="468" type="curve" smooth="yes"/>
      <point x="241" y="462"/>
      <point x="244" y="467"/>
      <point x="244" y="426" type="curve" smooth="yes"/>
      <point x="244" y="231" type="line" smooth="yes"/>
      <point x="244" y="209"/>
      <point x="235" y="204"/>
      <point x="219" y="199" type="curve" smooth="yes"/>
      <point x="210" y="196"/>
      <point x="200" y="191"/>
      <point x="200" y="183" type="curve" smooth="yes"/>
      <point x="200" y="177"/>
      <point x="210" y="172"/>
      <point x="216" y="172" type="curve" smooth="yes"/>
      <point x="248" y="172"/>
      <point x="249" y="176"/>
      <point x="277" y="176" type="curve" smooth="yes"/>
      <point x="305" y="176"/>
      <point x="310" y="172"/>
      <point x="342" y="172" type="curve" smooth="yes"/>
      <point x="348" y="172"/>
      <point x="358" y="177"/>
      <point x="358" y="183" type="curve" smooth="yes"/>
      <point x="358" y="191"/>
      <point x="348" y="196"/>
      <point x="339" y="199" type="curve" smooth="yes"/>
      <point x="323" y="204"/>
      <point x="305" y="209"/>
      <point x="305" y="231" type="curve"/>
      <point x="304" y="309" type="line"/>
      <point x="304" y="316"/>
      <point x="312" y="320"/>
      <point x="320" y="320" type="curve" smooth="yes"/>
      <point x="345" y="320"/>
      <point x="355" y="312"/>
      <point x="358" y="304" type="curve" smooth="yes"/>
      <point x="375" y="260"/>
      <point x="431" y="173"/>
      <point x="483" y="173" type="curve" smooth="yes"/>
    </contour>
    <contour>
      <point x="317" y="347"/>
      <point x="304" y="348"/>
      <point x="304" y="367" type="curve" smooth="yes"/>
      <point x="304" y="437" type="line" smooth="yes"/>
      <point x="304" y="455"/>
      <point x="312" y="467"/>
      <point x="342" y="467" type="curve" smooth="yes"/>
      <point x="377" y="467"/>
      <point x="406" y="445"/>
      <point x="406" y="413" type="curve" smooth="yes"/>
      <point x="406" y="374"/>
      <point x="370" y="347"/>
      <point x="331" y="347" type="curve" smooth="yes"/>
    </contour>
  </outline>
</glyph>
<glyph name="macron" format="1">
  <advance width="300"/>
  <unicode hex="00AF"/>
  <note>
	macron
  </note>
  <outline>
    <component base="uni0304" xOffset="-30" yOffset="10"/>
    <contour>
      <point x="150" y="440" type="move" name="_top"/>
    </contour>
  </outline>
</glyph>
<glyph name="mu" format="1">
  <advance width="502"/>
  <unicode hex="00B5"/>
  <note>
    mu
  </note>
  <outline>
    <contour>
      <point x="137" y="-285"/>
      <point x="167" y="-274"/>
      <point x="167" y="-254" type="curve" smooth="yes"/>
      <point x="167" y="-236"/>
      <point x="88" y="-217"/>
      <point x="86" y="-131" type="curve" smooth="yes"/>
      <point x="85" y="-94"/>
      <point x="82" y="-1"/>
      <point x="82" y="28" type="curve" smooth="yes"/>
      <point x="82" y="49"/>
      <point x="85" y="62"/>
      <point x="89" y="62" type="curve" smooth="yes"/>
      <point x="92" y="62"/>
      <point x="102" y="44"/>
      <point x="119" y="26" type="curve" smooth="yes"/>
      <point x="137" y="6"/>
      <point x="164" y="-15"/>
      <point x="202" y="-15" type="curve" smooth="yes"/>
      <point x="252" y="-15"/>
      <point x="323" y="102"/>
      <point x="330" y="118" type="curve"/>
      <point x="332" y="118" type="line"/>
      <point x="333" y="104"/>
      <point x="334" y="91"/>
      <point x="336" y="79" type="curve" smooth="yes"/>
      <point x="347" y="20"/>
      <point x="375" y="-15"/>
      <point x="406" y="-15" type="curve" smooth="yes"/>
      <point x="449" y="-15"/>
      <point x="497" y="25"/>
      <point x="497" y="100" type="curve" smooth="yes"/>
      <point x="497" y="105"/>
      <point x="491" y="109"/>
      <point x="486" y="109" type="curve" smooth="yes"/>
      <point x="478" y="109"/>
      <point x="450" y="75"/>
      <point x="413" y="75" type="curve" smooth="yes"/>
      <point x="368" y="75"/>
      <point x="350" y="125"/>
      <point x="350" y="162" type="curve"/>
      <point x="377" y="254"/>
      <point x="398" y="336"/>
      <point x="398" y="377" type="curve" smooth="yes"/>
      <point x="398" y="399"/>
      <point x="370" y="415"/>
      <point x="336" y="415" type="curve" smooth="yes"/>
      <point x="321" y="415"/>
      <point x="310" y="406"/>
      <point x="310" y="379" type="curve" smooth="yes"/>
      <point x="310" y="299"/>
      <point x="303" y="204"/>
      <point x="288" y="152" type="curve"/>
      <point x="248" y="77"/>
      <point x="222" y="53"/>
      <point x="170" y="53" type="curve" smooth="yes"/>
      <point x="126" y="53"/>
      <point x="110" y="106"/>
      <point x="110" y="132" type="curve" smooth="yes"/>
      <point x="110" y="172"/>
      <point x="141" y="349"/>
      <point x="141" y="391" type="curve" smooth="yes"/>
      <point x="141" y="400"/>
      <point x="118" y="418"/>
      <point x="89" y="418" type="curve" smooth="yes"/>
      <point x="63" y="418"/>
      <point x="50" y="411"/>
      <point x="50" y="397" type="curve" smooth="yes"/>
      <point x="50" y="353"/>
      <point x="57" y="125"/>
      <point x="57" y="92" type="curve" smooth="yes"/>
      <point x="57" y="60"/>
      <point x="50" y="17"/>
      <point x="50" y="0" type="curve" smooth="yes"/>
      <point x="50" y="-75"/>
      <point x="56" y="-210"/>
      <point x="65" y="-234" type="curve" smooth="yes"/>
      <point x="77" y="-265"/>
      <point x="86" y="-285"/>
      <point x="118" y="-285" type="curve" smooth="yes"/>
    </contour>
  </outline>
</glyph>
<glyph name="AE" format="1">
  <advance width="857"/>
  <unicode hex="00C6"/>
  <note>
    AE
  </note>
  <outline>
    <contour>
      <point x="57" y="-5"/>
      <point x="105" y="1"/>
      <point x="150" y="1" type="curve" smooth="yes"/>
      <point x="186" y="1"/>
      <point x="221" y="-1"/>
      <point x="239" y="-1" type="curve" smooth="yes"/>
      <point x="256" y="-1"/>
      <point x="268" y="2"/>
      <point x="268" y="10" type="curve" smooth="yes"/>
      <point x="268" y="19"/>
      <point x="258" y="24"/>
      <point x="235" y="30" type="curve" smooth="yes"/>
      <point x="206" y="37"/>
      <point x="170" y="50"/>
      <point x="170" y="82" type="curve" smooth="yes"/>
      <point x="170" y="91"/>
      <point x="173" y="101"/>
      <point x="179" y="112" type="curve" smooth="yes"/>
      <point x="211" y="174"/>
      <point x="235" y="217"/>
      <point x="261" y="262" type="curve" smooth="yes"/>
      <point x="268" y="275"/>
      <point x="276" y="285"/>
      <point x="291" y="285" type="curve" smooth="yes"/>
      <point x="432" y="285" type="line" smooth="yes"/>
      <point x="452" y="285"/>
      <point x="454" y="277"/>
      <point x="454" y="267" type="curve" smooth="yes"/>
      <point x="454" y="96" type="line" smooth="yes"/>
      <point x="454" y="50"/>
      <point x="430" y="33"/>
      <point x="381" y="24" type="curve" smooth="yes"/>
      <point x="358" y="20"/>
      <point x="348" y="15"/>
      <point x="348" y="6" type="curve" smooth="yes"/>
      <point x="348" y="-2"/>
      <point x="360" y="-5"/>
      <point x="377" y="-5" type="curve" smooth="yes"/>
      <point x="431" y="-5"/>
      <point x="447" y="1"/>
      <point x="492" y="1" type="curve" smooth="yes"/>
      <point x="606" y="1"/>
      <point x="702" y="-5"/>
      <point x="816" y="-5" type="curve" smooth="yes"/>
      <point x="826" y="-5"/>
      <point x="828" y="4"/>
      <point x="830" y="12" type="curve" smooth="yes"/>
      <point x="838" y="43"/>
      <point x="847" y="77"/>
      <point x="847" y="115" type="curve" smooth="yes"/>
      <point x="847" y="121"/>
      <point x="841" y="125"/>
      <point x="834" y="126" type="curve" smooth="yes"/>
      <point x="827" y="127"/>
      <point x="824" y="124"/>
      <point x="820" y="116" type="curve" smooth="yes"/>
      <point x="812" y="99"/>
      <point x="796" y="67"/>
      <point x="778" y="53" type="curve" smooth="yes"/>
      <point x="765" y="43"/>
      <point x="707" y="35"/>
      <point x="702" y="35" type="curve" smooth="yes"/>
      <point x="598" y="35" type="line" smooth="yes"/>
      <point x="553" y="35"/>
      <point x="533" y="73"/>
      <point x="533" y="111" type="curve" smooth="yes"/>
      <point x="533" y="269" type="line" smooth="yes"/>
      <point x="533" y="285"/>
      <point x="544" y="292"/>
      <point x="556" y="292" type="curve" smooth="yes"/>
      <point x="595" y="292"/>
      <point x="617" y="292"/>
      <point x="659" y="290" type="curve" smooth="yes"/>
      <point x="675" y="289"/>
      <point x="696" y="277"/>
      <point x="706" y="246" type="curve" smooth="yes"/>
      <point x="708" y="239"/>
      <point x="716" y="223"/>
      <point x="729" y="223" type="curve" smooth="yes"/>
      <point x="737" y="223"/>
      <point x="738" y="231"/>
      <point x="738" y="240" type="curve"/>
      <point x="736" y="269"/>
      <point x="735" y="290"/>
      <point x="735" y="313" type="curve" smooth="yes"/>
      <point x="735" y="331"/>
      <point x="736" y="349"/>
      <point x="738" y="372" type="curve" smooth="yes"/>
      <point x="739" y="381"/>
      <point x="730" y="388"/>
      <point x="725" y="388" type="curve" smooth="yes"/>
      <point x="712" y="388"/>
      <point x="708" y="363"/>
      <point x="690" y="347" type="curve" smooth="yes"/>
      <point x="678" y="336"/>
      <point x="665" y="330"/>
      <point x="646" y="329" type="curve" smooth="yes"/>
      <point x="622" y="328"/>
      <point x="592" y="327"/>
      <point x="550" y="327" type="curve" smooth="yes"/>
      <point x="540" y="327"/>
      <point x="533" y="338"/>
      <point x="533" y="349" type="curve" smooth="yes"/>
      <point x="533" y="592" type="line" smooth="yes"/>
      <point x="533" y="610"/>
      <point x="557" y="618"/>
      <point x="568" y="618" type="curve" smooth="yes"/>
      <point x="699" y="618" type="line" smooth="yes"/>
      <point x="724" y="618"/>
      <point x="747" y="612"/>
      <point x="766" y="591" type="curve" smooth="yes"/>
      <point x="775" y="581"/>
      <point x="782" y="564"/>
      <point x="789" y="542" type="curve" smooth="yes"/>
      <point x="791" y="535"/>
      <point x="793" y="532"/>
      <point x="800" y="532" type="curve" smooth="yes"/>
      <point x="806" y="532"/>
      <point x="814" y="535"/>
      <point x="814" y="541" type="curve"/>
      <point x="813" y="576"/>
      <point x="809" y="606"/>
      <point x="802" y="644" type="curve"/>
      <point x="801" y="651"/>
      <point x="791" y="653"/>
      <point x="784" y="653" type="curve" smooth="yes"/>
      <point x="733" y="653"/>
      <point x="584" y="648"/>
      <point x="475" y="648" type="curve" smooth="yes"/>
      <point x="407" y="648"/>
      <point x="342" y="651"/>
      <point x="300" y="651" type="curve" smooth="yes"/>
      <point x="294" y="651"/>
      <point x="290" y="645"/>
      <point x="290" y="639" type="curve" smooth="yes"/>
      <point x="290" y="634"/>
      <point x="293" y="629"/>
      <point x="300" y="626" type="curve"/>
      <point x="388" y="611" type="line"/>
      <point x="401" y="610"/>
      <point x="410" y="602"/>
      <point x="405" y="594" type="curve" smooth="yes"/>
      <point x="132" y="126" type="line" smooth="yes"/>
      <point x="104" y="78"/>
      <point x="62" y="38"/>
      <point x="28" y="28" type="curve" smooth="yes"/>
      <point x="6" y="21"/>
      <point x="-5" y="15"/>
      <point x="-5" y="6" type="curve" smooth="yes"/>
      <point x="-5" y="-2"/>
      <point x="7" y="-5"/>
      <point x="24" y="-5" type="curve" smooth="yes"/>
    </contour>
    <contour>
      <point x="303" y="328"/>
      <point x="298" y="329"/>
      <point x="298" y="333" type="curve" smooth="yes"/>
      <point x="298" y="335"/>
      <point x="299" y="338"/>
      <point x="302" y="343" type="curve" smooth="yes"/>
      <point x="438" y="581" type="line" smooth="yes"/>
      <point x="451" y="604"/>
      <point x="454" y="604"/>
      <point x="454" y="580" type="curve" smooth="yes"/>
      <point x="454" y="343" type="line" smooth="yes"/>
      <point x="454" y="328"/>
      <point x="453" y="328"/>
      <point x="438" y="328" type="curve" smooth="yes"/>
      <point x="314" y="328" type="line" smooth="yes"/>
    </contour>
    <contour>
      <point x="543" y="675" type="move" name="top.cap"/>
    </contour>
  </outline>
</glyph>
<glyph name="multiply" format="1">
  <advance width="600"/>
  <unicode hex="00D7"/>
  <note>
    multiply
  </note>
  <outline>
    <contour>
      <point x="467" y="60"/>
      <point x="486" y="84"/>
      <point x="486" y="102" type="curve" smooth="yes"/>
      <point x="486" y="107"/>
      <point x="484" y="111"/>
      <point x="481" y="114" type="curve" smooth="yes"/>
      <point x="345" y="250" type="line" smooth="yes"/>
      <point x="343" y="252"/>
      <point x="343" y="253"/>
      <point x="345" y="255" type="curve" smooth="yes"/>
      <point x="476" y="386" type="line" smooth="yes"/>
      <point x="481" y="391"/>
      <point x="483" y="396"/>
      <point x="483" y="401" type="curve" smooth="yes"/>
      <point x="483" y="413"/>
      <point x="473" y="428"/>
      <point x="466" y="441" type="curve"/>
      <point x="464" y="444"/>
      <point x="460" y="446"/>
      <point x="457" y="446" type="curve" smooth="yes"/>
      <point x="453" y="446"/>
      <point x="450" y="444"/>
      <point x="447" y="441" type="curve" smooth="yes"/>
      <point x="303" y="298" type="line" smooth="yes"/>
      <point x="301" y="296"/>
      <point x="301" y="294"/>
      <point x="296" y="299" type="curve" smooth="yes"/>
      <point x="153" y="441" type="line" smooth="yes"/>
      <point x="148" y="446"/>
      <point x="139" y="446"/>
      <point x="134" y="441" type="curve"/>
      <point x="131" y="437"/>
      <point x="118" y="416"/>
      <point x="118" y="400" type="curve" smooth="yes"/>
      <point x="118" y="395"/>
      <point x="119" y="390"/>
      <point x="123" y="386" type="curve" smooth="yes"/>
      <point x="252" y="258" type="line" smooth="yes"/>
      <point x="256" y="254"/>
      <point x="257" y="252"/>
      <point x="253" y="248" type="curve" smooth="yes"/>
      <point x="119" y="114" type="line" smooth="yes"/>
      <point x="116" y="111"/>
      <point x="114" y="106"/>
      <point x="114" y="102" type="curve" smooth="yes"/>
      <point x="114" y="87"/>
      <point x="131" y="68"/>
      <point x="136" y="63" type="curve" smooth="yes"/>
      <point x="140" y="59"/>
      <point x="149" y="59"/>
      <point x="154" y="64" type="curve" smooth="yes"/>
      <point x="297" y="207" type="line" smooth="yes"/>
      <point x="299" y="209"/>
      <point x="302" y="209"/>
      <point x="304" y="207" type="curve" smooth="yes"/>
      <point x="446" y="64" type="line" smooth="yes"/>
      <point x="449" y="61"/>
      <point x="452" y="60"/>
      <point x="456" y="60" type="curve" smooth="yes"/>
    </contour>
  </outline>
</glyph>
<glyph name="Oslash" format="1">
  <advance width="773"/>
  <unicode hex="00D8"/>
  <note>
    Oslash
  </note>
  <outline>
    <contour>
      <point x="74" y="-14"/>
      <point x="77" y="-13"/>
      <point x="79" y="-11" type="curve"/>
      <point x="712" y="621" type="line"/>
      <point x="717" y="626"/>
      <point x="719" y="632"/>
      <point x="719" y="639" type="curve" smooth="yes"/>
      <point x="719" y="644"/>
      <point x="717" y="650"/>
      <point x="716" y="654" type="curve"/>
      <point x="713" y="663"/>
      <point x="699" y="665"/>
      <point x="692" y="658" type="curve"/>
      <point x="52" y="26" type="line"/>
      <point x="46" y="20"/>
      <point x="42" y="13"/>
      <point x="42" y="6" type="curve" smooth="yes"/>
      <point x="42" y="-4"/>
      <point x="56" y="-14"/>
      <point x="70" y="-14" type="curve" smooth="yes"/>
    </contour>
    <component base="O"/>
  </outline>
</glyph>
<glyph name="germandbls" format="1">
  <advance width="504"/>
  <unicode hex="00DF"/>
  <note>
    germandbls
  </note>
  <outline>
    <contour>
      <point x="391" y="-15"/>
      <point x="474" y="58"/>
      <point x="474" y="140" type="curve" smooth="yes"/>
      <point x="474" y="179"/>
      <point x="463" y="205"/>
      <point x="401" y="266" type="curve" smooth="yes"/>
      <point x="339" y="327"/>
      <point x="324" y="336"/>
      <point x="324" y="364" type="curve" smooth="yes"/>
      <point x="324" y="401"/>
      <point x="342" y="414"/>
      <point x="375" y="443" type="curve" smooth="yes"/>
      <point x="437" y="497"/>
      <point x="454" y="528"/>
      <point x="454" y="572" type="curve" smooth="yes"/>
      <point x="454" y="644"/>
      <point x="397" y="706"/>
      <point x="318" y="706" type="curve" smooth="yes"/>
      <point x="220" y="706"/>
      <point x="89" y="633"/>
      <point x="89" y="402" type="curve"/>
      <point x="71" y="392"/>
      <point x="60" y="384"/>
      <point x="30" y="376" type="curve"/>
      <point x="28" y="375"/>
      <point x="26" y="372"/>
      <point x="26" y="369" type="curve" smooth="yes"/>
      <point x="26" y="362"/>
      <point x="33" y="353"/>
      <point x="37" y="352" type="curve"/>
      <point x="58" y="350"/>
      <point x="76" y="350"/>
      <point x="89" y="350" type="curve"/>
      <point x="89" y="69" type="line" smooth="yes"/>
      <point x="89" y="41"/>
      <point x="67" y="30"/>
      <point x="47" y="24" type="curve"/>
      <point x="36" y="20"/>
      <point x="24" y="16"/>
      <point x="24" y="6" type="curve" smooth="yes"/>
      <point x="24" y="-4"/>
      <point x="42" y="-3"/>
      <point x="47" y="-3" type="curve" smooth="yes"/>
      <point x="86" y="-3"/>
      <point x="90" y="2"/>
      <point x="125" y="2" type="curve" smooth="yes"/>
      <point x="160" y="2"/>
      <point x="162" y="-3"/>
      <point x="201" y="-3" type="curve" smooth="yes"/>
      <point x="206" y="-3"/>
      <point x="224" y="-4"/>
      <point x="224" y="6" type="curve" smooth="yes"/>
      <point x="224" y="16"/>
      <point x="212" y="20"/>
      <point x="201" y="24" type="curve"/>
      <point x="181" y="30"/>
      <point x="159" y="41"/>
      <point x="159" y="69" type="curve" smooth="yes"/>
      <point x="159" y="475" type="line" smooth="yes"/>
      <point x="159" y="613"/>
      <point x="206" y="665"/>
      <point x="272" y="665" type="curve" smooth="yes"/>
      <point x="356" y="665"/>
      <point x="391" y="616"/>
      <point x="391" y="555" type="curve" smooth="yes"/>
      <point x="391" y="519"/>
      <point x="373" y="482"/>
      <point x="350" y="458" type="curve" smooth="yes"/>
      <point x="304" y="410"/>
      <point x="245" y="383"/>
      <point x="245" y="336" type="curve" smooth="yes"/>
      <point x="245" y="302"/>
      <point x="256" y="292"/>
      <point x="334" y="217" type="curve" smooth="yes"/>
      <point x="398" y="156"/>
      <point x="422" y="134"/>
      <point x="422" y="98" type="curve" smooth="yes"/>
      <point x="422" y="58"/>
      <point x="391" y="41"/>
      <point x="365" y="41" type="curve" smooth="yes"/>
      <point x="334" y="41"/>
      <point x="320" y="46"/>
      <point x="296" y="66" type="curve" smooth="yes"/>
      <point x="288" y="72"/>
      <point x="273" y="81"/>
      <point x="265" y="81" type="curve" smooth="yes"/>
      <point x="247" y="81"/>
      <point x="241" y="59"/>
      <point x="241" y="33" type="curve" smooth="yes"/>
      <point x="241" y="-1"/>
      <point x="277" y="-15"/>
      <point x="314" y="-15" type="curve" smooth="yes"/>
    </contour>
  </outline>
</glyph>
<glyph name="ae" format="1">
  <advance width="557"/>
  <unicode hex="00E6"/>
  <note>
    ae
  </note>
  <outline>
    <contour>
      <point x="191" y="-13"/>
      <point x="222" y="22"/>
      <point x="238" y="34" type="curve"/>
      <point x="241" y="37"/>
      <point x="244" y="38"/>
      <point x="246" y="38" type="curve" smooth="yes"/>
      <point x="248" y="38"/>
      <point x="256" y="29"/>
      <point x="259" y="26" type="curve"/>
      <point x="290" y="0"/>
      <point x="329" y="-14"/>
      <point x="368" y="-14" type="curve" smooth="yes"/>
      <point x="444" y="-14"/>
      <point x="487" y="19"/>
      <point x="531" y="83" type="curve"/>
      <point x="532" y="84"/>
      <point x="532" y="86"/>
      <point x="532" y="87" type="curve" smooth="yes"/>
      <point x="532" y="93"/>
      <point x="526" y="98"/>
      <point x="519" y="98" type="curve" smooth="yes"/>
      <point x="516" y="98"/>
      <point x="513" y="97"/>
      <point x="510" y="94" type="curve"/>
      <point x="478" y="57"/>
      <point x="439" y="46"/>
      <point x="399" y="46" type="curve" smooth="yes"/>
      <point x="355" y="46"/>
      <point x="311" y="63"/>
      <point x="311" y="129" type="curve" smooth="yes"/>
      <point x="311" y="185" type="line" smooth="yes"/>
      <point x="311" y="190"/>
      <point x="316" y="200"/>
      <point x="322" y="203" type="curve"/>
      <point x="356" y="218"/>
      <point x="493" y="277"/>
      <point x="506" y="284" type="curve" smooth="yes"/>
      <point x="520" y="291"/>
      <point x="530" y="296"/>
      <point x="530" y="318" type="curve" smooth="yes"/>
      <point x="530" y="383"/>
      <point x="465" y="413"/>
      <point x="413" y="413" type="curve" smooth="yes"/>
      <point x="380" y="413"/>
      <point x="330" y="397"/>
      <point x="306" y="380" type="curve" smooth="yes"/>
      <point x="303" y="378"/>
      <point x="300" y="376"/>
      <point x="299" y="376" type="curve" smooth="yes"/>
      <point x="297" y="376"/>
      <point x="296" y="378"/>
      <point x="294" y="381" type="curve"/>
      <point x="286" y="395"/>
      <point x="251" y="414"/>
      <point x="231" y="414" type="curve" smooth="yes"/>
      <point x="178" y="414"/>
      <point x="113" y="370"/>
      <point x="82" y="342" type="curve" smooth="yes"/>
      <point x="57" y="320"/>
      <point x="42" y="294"/>
      <point x="42" y="273" type="curve" smooth="yes"/>
      <point x="42" y="270"/>
      <point x="44" y="264"/>
      <point x="50" y="264" type="curve" smooth="yes"/>
      <point x="63" y="264"/>
      <point x="119" y="285"/>
      <point x="119" y="299" type="curve" smooth="yes"/>
      <point x="119" y="304"/>
      <point x="118" y="308"/>
      <point x="118" y="313" type="curve" smooth="yes"/>
      <point x="118" y="320"/>
      <point x="119" y="327"/>
      <point x="122" y="332" type="curve" smooth="yes"/>
      <point x="130" y="346"/>
      <point x="159" y="365"/>
      <point x="183" y="365" type="curve" smooth="yes"/>
      <point x="220" y="365"/>
      <point x="243" y="334"/>
      <point x="243" y="299" type="curve" smooth="yes"/>
      <point x="243" y="233" type="line" smooth="yes"/>
      <point x="243" y="217"/>
      <point x="240" y="214"/>
      <point x="214" y="202" type="curve" smooth="yes"/>
      <point x="110" y="155" type="line" smooth="yes"/>
      <point x="61" y="133"/>
      <point x="37" y="107"/>
      <point x="37" y="65" type="curve" smooth="yes"/>
      <point x="37" y="26"/>
      <point x="82" y="-14"/>
      <point x="123" y="-14" type="curve" smooth="yes"/>
    </contour>
    <contour>
      <point x="147" y="32"/>
      <point x="117" y="49"/>
      <point x="117" y="87" type="curve"/>
      <point x="119" y="130"/>
      <point x="186" y="160"/>
      <point x="219" y="169" type="curve" smooth="yes"/>
      <point x="226" y="171"/>
      <point x="231" y="172"/>
      <point x="234" y="172" type="curve" smooth="yes"/>
      <point x="242" y="172"/>
      <point x="242" y="164"/>
      <point x="242" y="148" type="curve" smooth="yes"/>
      <point x="242" y="96" type="line" smooth="yes"/>
      <point x="242" y="71"/>
      <point x="235" y="65"/>
      <point x="228" y="59" type="curve" smooth="yes"/>
      <point x="212" y="45"/>
      <point x="192" y="32"/>
      <point x="166" y="32" type="curve" smooth="yes"/>
    </contour>
    <contour>
      <point x="322" y="242"/>
      <point x="312" y="244"/>
      <point x="312" y="254" type="curve" smooth="yes"/>
      <point x="312" y="321" type="line" smooth="yes"/>
      <point x="313" y="356"/>
      <point x="370" y="378"/>
      <point x="387" y="378" type="curve" smooth="yes"/>
      <point x="430" y="378"/>
      <point x="461" y="344"/>
      <point x="461" y="306" type="curve" smooth="yes"/>
      <point x="461" y="300"/>
      <point x="460" y="294"/>
      <point x="454" y="292" type="curve"/>
      <point x="435" y="284"/>
      <point x="376" y="264"/>
      <point x="327" y="244" type="curve" smooth="yes"/>
    </contour>
    <contour>
      <point x="302" y="440" type="move" name="top"/>
    </contour>
  </outline>
</glyph>
<glyph name="eth" format="1">
  <advance width="487"/>
  <unicode hex="00F0"/>
  <note>
    eth
  </note>
  <outline>
    <contour>
      <point x="381" y="-14"/>
      <point x="456" y="133"/>
      <point x="456" y="250" type="curve" smooth="yes"/>
      <point x="456" y="427"/>
      <point x="399" y="522"/>
      <point x="342" y="583" type="curve"/>
      <point x="417" y="622" type="line" smooth="yes"/>
      <point x="433" y="630"/>
      <point x="435" y="646"/>
      <point x="435" y="664" type="curve" smooth="yes"/>
      <point x="435" y="674"/>
      <point x="418" y="670"/>
      <point x="410" y="665" type="curve"/>
      <point x="309" y="612" type="line"/>
      <point x="236" y="671"/>
      <point x="151" y="705"/>
      <point x="90" y="705" type="curve" smooth="yes"/>
      <point x="76" y="705"/>
      <point x="64" y="702"/>
      <point x="64" y="693" type="curve" smooth="yes"/>
      <point x="64" y="683"/>
      <point x="76" y="680"/>
      <point x="84" y="678" type="curve" smooth="yes"/>
      <point x="134" y="667"/>
      <point x="199" y="636"/>
      <point x="254" y="584" type="curve"/>
      <point x="122" y="515" type="line" smooth="yes"/>
      <point x="114" y="511"/>
      <point x="114" y="489"/>
      <point x="114" y="480" type="curve" smooth="yes"/>
      <point x="114" y="475"/>
      <point x="120" y="468"/>
      <point x="128" y="472" type="curve" smooth="yes"/>
      <point x="283" y="552" type="line"/>
      <point x="313" y="516"/>
      <point x="335" y="459"/>
      <point x="351" y="400" type="curve"/>
      <point x="353" y="390"/>
      <point x="352" y="387"/>
      <point x="343" y="391" type="curve"/>
      <point x="315" y="406"/>
      <point x="288" y="414"/>
      <point x="256" y="414" type="curve" smooth="yes"/>
      <point x="133" y="414"/>
      <point x="25" y="310"/>
      <point x="25" y="186" type="curve" smooth="yes"/>
      <point x="25" y="66"/>
      <point x="119" y="-14"/>
      <point x="231" y="-14" type="curve" smooth="yes"/>
    </contour>
    <contour>
      <point x="172" y="16"/>
      <point x="108" y="111"/>
      <point x="108" y="210" type="curve" smooth="yes"/>
      <point x="108" y="293"/>
      <point x="151" y="380"/>
      <point x="236" y="380" type="curve" smooth="yes"/>
      <point x="277" y="380"/>
      <point x="317" y="359"/>
      <point x="345" y="329" type="curve" smooth="yes"/>
      <point x="369" y="304"/>
      <point x="378" y="265"/>
      <point x="378" y="219" type="curve" smooth="yes"/>
      <point x="378" y="111"/>
      <point x="322" y="16"/>
      <point x="252" y="16" type="curve" smooth="yes"/>
    </contour>
  </outline>
</glyph>
<glyph name="divide" format="1">
  <advance width="590"/>
  <unicode hex="00F7"/>
  <note>
    divide
  </note>
  <outline>
    <contour>
      <point x="493" y="231" type="line" smooth="yes"/>
      <point x="511" y="231"/>
      <point x="523" y="253"/>
      <point x="523" y="272" type="curve" smooth="yes"/>
      <point x="523" y="277"/>
      <point x="516" y="282"/>
      <point x="511" y="282" type="curve" smooth="yes"/>
      <point x="93" y="282" type="line" smooth="yes"/>
      <point x="73" y="282"/>
      <point x="70" y="249"/>
      <point x="70" y="241" type="curve" smooth="yes"/>
      <point x="70" y="236"/>
      <point x="77" y="231"/>
      <point x="84" y="231" type="curve" smooth="yes"/>
    </contour>
    <contour>
      <point x="320" y="67"/>
      <point x="341" y="88"/>
      <point x="341" y="114" type="curve" smooth="yes"/>
      <point x="341" y="140"/>
      <point x="320" y="161"/>
      <point x="294" y="161" type="curve" smooth="yes"/>
      <point x="269" y="161"/>
      <point x="247" y="140"/>
      <point x="247" y="114" type="curve" smooth="yes"/>
      <point x="247" y="88"/>
      <point x="269" y="67"/>
      <point x="294" y="67" type="curve" smooth="yes"/>
    </contour>
    <contour>
      <point x="319" y="352"/>
      <point x="340" y="373"/>
      <point x="340" y="399" type="curve" smooth="yes"/>
      <point x="340" y="425"/>
      <point x="319" y="446"/>
      <point x="293" y="446" type="curve" smooth="yes"/>
      <point x="268" y="446"/>
      <point x="246" y="425"/>
      <point x="246" y="399" type="curve" smooth="yes"/>
      <point x="246" y="373"/>
      <point x="268" y="352"/>
      <point x="293" y="352" type="curve" smooth="yes"/>
    </contour>
  </outline>
</glyph>
<glyph name="eogonek" format="1">
  <advance width="383"/>
  <unicode hex="0119"/>
  <note>
    eogonek
  </note>
  <outline>
    <contour>
      <point x="299" y="-287"/>
      <point x="343" y="-226"/>
      <point x="343" y="-207" type="curve" smooth="yes"/>
      <point x="343" y="-201"/>
      <point x="339" y="-200"/>
      <point x="335" y="-200" type="curve" smooth="yes"/>
      <point x="330" y="-200"/>
      <point x="311" y="-221"/>
      <point x="276" y="-221" type="curve" smooth="yes"/>
      <point x="242" y="-221"/>
      <point x="216" y="-196"/>
      <point x="216" y="-152" type="curve" smooth="yes"/>
      <point x="216" y="-55"/>
      <point x="287" y="4"/>
      <point x="303" y="16" type="curve"/>
      <point x="331" y="35"/>
      <point x="349" y="59"/>
      <point x="354" y="77" type="curve" smooth="yes"/>
      <point x="355" y="81"/>
      <point x="355" y="85"/>
      <point x="355" y="88" type="curve" smooth="yes"/>
      <point x="354" y="93"/>
      <point x="352" y="97"/>
      <point x="348" y="97" type="curve" smooth="yes"/>
      <point x="345" y="97"/>
      <point x="340" y="93"/>
      <point x="337" y="90" type="curve"/>
      <point x="311" y="56"/>
      <point x="268" y="46"/>
      <point x="243" y="46" type="curve" smooth="yes"/>
      <point x="153" y="46"/>
      <point x="92" y="130"/>
      <point x="92" y="220" type="curve" smooth="yes"/>
      <point x="92" y="254"/>
      <point x="101" y="257"/>
      <point x="117" y="257" type="curve" smooth="yes"/>
      <point x="281" y="257" type="line" smooth="yes"/>
      <point x="339" y="257"/>
      <point x="358" y="272"/>
      <point x="358" y="323" type="curve" smooth="yes"/>
      <point x="358" y="376"/>
      <point x="310" y="414"/>
      <point x="229" y="414" type="curve" smooth="yes"/>
      <point x="116" y="414"/>
      <point x="30" y="316"/>
      <point x="30" y="203" type="curve" smooth="yes"/>
      <point x="30" y="70"/>
      <point x="107" y="-14"/>
      <point x="198" y="-14" type="curve" smooth="yes"/>
      <point x="215" y="-14"/>
      <point x="231" y="-12"/>
      <point x="245" y="-9" type="curve"/>
      <point x="204" y="-43"/>
      <point x="142" y="-107"/>
      <point x="142" y="-179" type="curve" smooth="yes"/>
      <point x="142" y="-253"/>
      <point x="185" y="-287"/>
      <point x="243" y="-287" type="curve" smooth="yes"/>
    </contour>
    <contour>
      <point x="116" y="288"/>
      <point x="111" y="295"/>
      <point x="111" y="303" type="curve" smooth="yes"/>
      <point x="111" y="329"/>
      <point x="157" y="383"/>
      <point x="213" y="383" type="curve" smooth="yes"/>
      <point x="252" y="383"/>
      <point x="295" y="361"/>
      <point x="295" y="321" type="curve" smooth="yes"/>
      <point x="295" y="310"/>
      <point x="292" y="294"/>
      <point x="285" y="293" type="curve"/>
      <point x="264" y="289"/>
      <point x="241" y="288"/>
      <point x="212" y="288" type="curve" smooth="yes"/>
      <point x="130" y="288" type="line" smooth="yes"/>
    </contour>
  </outline>
</glyph>
<glyph name="Hbar" format="1">
  <advance width="810"/>
  <unicode hex="0126"/>
  <note>
    Hbar
  </note>
  <outline>
    <contour>
      <point x="731" y="456" type="line" smooth="yes"/>
      <point x="747" y="456"/>
      <point x="762" y="471"/>
      <point x="762" y="480" type="curve" smooth="yes"/>
      <point x="762" y="488"/>
      <point x="756" y="492"/>
      <point x="749" y="492" type="curve"/>
      <point x="76" y="492" type="line" smooth="yes"/>
      <point x="63" y="492"/>
      <point x="52" y="485"/>
      <point x="52" y="474" type="curve" smooth="yes"/>
      <point x="52" y="465"/>
      <point x="60" y="456"/>
      <point x="68" y="456" type="curve" smooth="yes"/>
    </contour>
    <component base="H"/>
  </outline>
</glyph>
<glyph name="hbar" format="1">
  <advance width="515"/>
  <unicode hex="0127"/>
  <note>
	hbar
  </note>
  <outline>
    <contour>
      <point x="79" y="-3"/>
      <point x="85" y="2"/>
      <point x="120" y="2" type="curve" smooth="yes"/>
      <point x="155" y="2"/>
      <point x="156" y="-3"/>
      <point x="196" y="-3" type="curve" smooth="yes"/>
      <point x="211" y="-3"/>
      <point x="216" y="0"/>
      <point x="216" y="8" type="curve" smooth="yes"/>
      <point x="216" y="16"/>
      <point x="208" y="20"/>
      <point x="194" y="24" type="curve" smooth="yes"/>
      <point x="174" y="30"/>
      <point x="155" y="38"/>
      <point x="155" y="65" type="curve" smooth="yes"/>
      <point x="155" y="253" type="line" smooth="yes"/>
      <point x="155" y="294"/>
      <point x="161" y="308"/>
      <point x="182" y="325" type="curve" smooth="yes"/>
      <point x="201" y="340"/>
      <point x="240" y="347"/>
      <point x="265" y="347" type="curve" smooth="yes"/>
      <point x="308" y="347"/>
      <point x="358" y="307"/>
      <point x="358" y="257" type="curve" smooth="yes"/>
      <point x="358" y="68" type="line" smooth="yes"/>
      <point x="358" y="41"/>
      <point x="339" y="31"/>
      <point x="319" y="24" type="curve" smooth="yes"/>
      <point x="304" y="19"/>
      <point x="296" y="17"/>
      <point x="296" y="8" type="curve" smooth="yes"/>
      <point x="296" y="0"/>
      <point x="302" y="-3"/>
      <point x="316" y="-3" type="curve" smooth="yes"/>
      <point x="356" y="-3"/>
      <point x="359" y="2"/>
      <point x="394" y="2" type="curve" smooth="yes"/>
      <point x="429" y="2"/>
      <point x="432" y="-3"/>
      <point x="472" y="-3" type="curve" smooth="yes"/>
      <point x="486" y="-3"/>
      <point x="492" y="0"/>
      <point x="492" y="8" type="curve" smooth="yes"/>
      <point x="492" y="16"/>
      <point x="483" y="20"/>
      <point x="469" y="24" type="curve" smooth="yes"/>
      <point x="449" y="30"/>
      <point x="428" y="41"/>
      <point x="428" y="68" type="curve" smooth="yes"/>
      <point x="428" y="263" type="line" smooth="yes"/>
      <point x="428" y="341"/>
      <point x="379" y="399"/>
      <point x="314" y="399" type="curve" smooth="yes"/>
      <point x="251" y="399"/>
      <point x="193" y="359"/>
      <point x="162" y="336" type="curve"/>
      <point x="157" y="345"/>
      <point x="155" y="352"/>
      <point x="155" y="373" type="curve" smooth="yes"/>
      <point x="155" y="562" type="line" smooth="yes"/>
      <point x="155" y="669"/>
      <point x="164" y="686"/>
      <point x="164" y="698" type="curve" smooth="yes"/>
      <point x="164" y="702"/>
      <point x="161" y="705"/>
      <point x="157" y="705" type="curve" smooth="yes"/>
      <point x="155" y="705"/>
      <point x="153" y="704"/>
      <point x="151" y="703" type="curve" smooth="yes"/>
      <point x="118" y="689"/>
      <point x="68" y="673"/>
      <point x="40" y="664" type="curve" smooth="yes"/>
      <point x="34" y="662"/>
      <point x="32" y="658"/>
      <point x="32" y="652" type="curve" smooth="yes"/>
      <point x="32" y="644"/>
      <point x="35" y="639"/>
      <point x="41" y="638" type="curve" smooth="yes"/>
      <point x="75" y="632"/>
      <point x="85" y="602"/>
      <point x="85" y="566" type="curve" smooth="yes"/>
      <point x="85" y="65" type="line" smooth="yes"/>
      <point x="84" y="38"/>
      <point x="62" y="30"/>
      <point x="42" y="24" type="curve" smooth="yes"/>
      <point x="25" y="19"/>
      <point x="19" y="16"/>
      <point x="19" y="8" type="curve" smooth="yes"/>
      <point x="19" y="0"/>
      <point x="27" y="-3"/>
      <point x="39" y="-3" type="curve" smooth="yes"/>
    </contour>
    <contour>
      <point x="275" y="538" type="line"/>
      <point x="290" y="538"/>
      <point x="299" y="546"/>
      <point x="306" y="559" type="curve"/>
      <point x="306" y="560"/>
      <point x="307" y="561"/>
      <point x="307" y="562" type="curve" smooth="yes"/>
      <point x="307" y="567"/>
      <point x="299" y="572"/>
      <point x="293" y="572" type="curve"/>
      <point x="39" y="572" type="line"/>
      <point x="27" y="572"/>
      <point x="15" y="564"/>
      <point x="15" y="555" type="curve" smooth="yes"/>
      <point x="15" y="549"/>
      <point x="20" y="538"/>
      <point x="29" y="538" type="curve"/>
    </contour>
    <contour>
      <point x="232" y="-30" type="move" name="bottom"/>
    </contour>
  </outline>
</glyph>
<glyph name="kgreenlandic" format="1">
  <advance width="474"/>
  <unicode hex="0138"/>
  <note>
	kgreenlandic
  </note>
  <outline>
    <contour>
      <point x="86" y="-3"/>
      <point x="90" y="2"/>
      <point x="125" y="2" type="curve" smooth="yes"/>
      <point x="160" y="2"/>
      <point x="156" y="-3"/>
      <point x="195" y="-3" type="curve" smooth="yes"/>
      <point x="200" y="-3"/>
      <point x="218" y="-4"/>
      <point x="218" y="6" type="curve" smooth="yes"/>
      <point x="218" y="16"/>
      <point x="206" y="20"/>
      <point x="195" y="24" type="curve"/>
      <point x="175" y="30"/>
      <point x="160" y="38"/>
      <point x="160" y="65" type="curve" smooth="yes"/>
      <point x="160" y="195" type="line" smooth="yes"/>
      <point x="160" y="207"/>
      <point x="167" y="208"/>
      <point x="170" y="205" type="curve"/>
      <point x="296" y="60" type="line"/>
      <point x="300" y="55"/>
      <point x="303" y="50"/>
      <point x="303" y="46" type="curve" smooth="yes"/>
      <point x="303" y="36"/>
      <point x="292" y="32"/>
      <point x="281" y="28" type="curve" smooth="yes"/>
      <point x="270" y="24"/>
      <point x="259" y="19"/>
      <point x="259" y="9" type="curve" smooth="yes"/>
      <point x="259" y="-1"/>
      <point x="277" y="0"/>
      <point x="282" y="0" type="curve" smooth="yes"/>
      <point x="301" y="0"/>
      <point x="321" y="0"/>
      <point x="340" y="0" type="curve" smooth="yes"/>
      <point x="387" y="0"/>
      <point x="423" y="-5"/>
      <point x="464" y="-5" type="curve" smooth="yes"/>
      <point x="471" y="-5"/>
      <point x="484" y="-4"/>
      <point x="484" y="4" type="curve" smooth="yes"/>
      <point x="484" y="14"/>
      <point x="472" y="18"/>
      <point x="461" y="22" type="curve"/>
      <point x="441" y="28"/>
      <point x="401" y="49"/>
      <point x="379" y="70" type="curve" smooth="yes"/>
      <point x="358" y="89"/>
      <point x="289" y="161"/>
      <point x="237" y="224" type="curve" smooth="yes"/>
      <point x="232" y="228"/>
      <point x="229" y="232"/>
      <point x="229" y="236" type="curve" smooth="yes"/>
      <point x="229" y="240"/>
      <point x="231" y="244"/>
      <point x="235" y="247" type="curve" smooth="yes"/>
      <point x="283" y="289"/>
      <point x="350" y="345"/>
      <point x="363" y="353" type="curve" smooth="yes"/>
      <point x="381" y="364"/>
      <point x="408" y="379"/>
      <point x="433" y="384" type="curve" smooth="yes"/>
      <point x="442" y="386"/>
      <point x="453" y="397"/>
      <point x="453" y="405" type="curve" smooth="yes"/>
      <point x="453" y="409"/>
      <point x="448" y="412"/>
      <point x="445" y="412" type="curve"/>
      <point x="418" y="409"/>
      <point x="385" y="400"/>
      <point x="349" y="400" type="curve" smooth="yes"/>
      <point x="300" y="400" type="line" smooth="yes"/>
      <point x="296" y="400"/>
      <point x="278" y="398"/>
      <point x="278" y="386" type="curve" smooth="yes"/>
      <point x="278" y="383"/>
      <point x="287" y="379"/>
      <point x="290" y="378" type="curve"/>
      <point x="304" y="375"/>
      <point x="314" y="368"/>
      <point x="314" y="361" type="curve" smooth="yes"/>
      <point x="314" y="360"/>
      <point x="314" y="359"/>
      <point x="313" y="358" type="curve"/>
      <point x="302" y="342"/>
      <point x="255" y="295"/>
      <point x="201" y="248" type="curve" smooth="yes"/>
      <point x="186" y="235"/>
      <point x="175" y="226"/>
      <point x="166" y="224" type="curve" smooth="yes"/>
      <point x="162" y="223"/>
      <point x="160" y="224"/>
      <point x="160" y="231" type="curve" smooth="yes"/>
      <point x="160" y="294" type="line" smooth="yes"/>
      <point x="160" y="339"/>
      <point x="165" y="388"/>
      <point x="169" y="429" type="curve"/>
      <point x="169" y="432"/>
      <point x="166" y="434"/>
      <point x="162" y="434" type="curve" smooth="yes"/>
      <point x="160" y="434"/>
      <point x="156" y="432"/>
      <point x="150" y="428" type="curve" smooth="yes"/>
      <point x="131" y="416"/>
      <point x="93" y="389"/>
      <point x="42" y="377" type="curve" smooth="yes"/>
      <point x="38" y="376"/>
      <point x="35" y="370"/>
      <point x="35" y="365" type="curve" smooth="yes"/>
      <point x="35" y="359"/>
      <point x="38" y="353"/>
      <point x="43" y="352" type="curve" smooth="yes"/>
      <point x="77" y="345"/>
      <point x="90" y="315"/>
      <point x="90" y="279" type="curve" smooth="yes"/>
      <point x="90" y="65" type="line" smooth="yes"/>
      <point x="90" y="38"/>
      <point x="67" y="30"/>
      <point x="47" y="24" type="curve"/>
      <point x="36" y="20"/>
      <point x="24" y="16"/>
      <point x="24" y="6" type="curve" smooth="yes"/>
      <point x="24" y="-4"/>
      <point x="42" y="-3"/>
      <point x="47" y="-3" type="curve" smooth="yes"/>
    </contour>
  </outline>
</glyph>
<glyph name="Lslash" format="1">
  <advance width="584"/>
  <unicode hex="0141"/>
  <note>
	Lslash
  </note>
  <outline>
    <contour>
      <point x="151" y="290" type="line"/>
      <point x="181" y="297" type="line"/>
      <point x="375" y="368" type="line" smooth="yes"/>
      <point x="384" y="371"/>
      <point x="393" y="385"/>
      <point x="393" y="405" type="curve" smooth="yes"/>
      <point x="393" y="412"/>
      <point x="382" y="414"/>
      <point x="375" y="411" type="curve" smooth="yes"/>
      <point x="180" y="339" type="line"/>
      <point x="150" y="332" type="line"/>
      <point x="53" y="296" type="line" smooth="yes"/>
      <point x="42" y="292"/>
      <point x="39" y="277"/>
      <point x="39" y="263" type="curve" smooth="yes"/>
      <point x="39" y="255"/>
      <point x="52" y="254"/>
      <point x="60" y="257" type="curve" smooth="yes"/>
    </contour>
    <component base="L"/>
  </outline>
</glyph>
<glyph name="Eng" format="1">
  <advance width="770"/>
  <unicode hex="014A"/>
  <note>
    Eng
  </note>
  <outline>
    <contour>
      <point x="622" y="-255"/>
      <point x="679" y="-124"/>
      <point x="679" y="14" type="curve" smooth="yes"/>
      <point x="679" y="568" type="line" smooth="yes"/>
      <point x="679" y="601"/>
      <point x="692" y="613"/>
      <point x="742" y="622" type="curve" smooth="yes"/>
      <point x="765" y="626"/>
      <point x="775" y="633"/>
      <point x="775" y="642" type="curve" smooth="yes"/>
      <point x="775" y="650"/>
      <point x="763" y="653"/>
      <point x="746" y="653" type="curve" smooth="yes"/>
      <point x="685" y="653"/>
      <point x="679" y="650"/>
      <point x="631" y="650" type="curve" smooth="yes"/>
      <point x="612" y="650"/>
      <point x="593" y="650"/>
      <point x="574" y="650" type="curve" smooth="yes"/>
      <point x="557" y="650"/>
      <point x="545" y="647"/>
      <point x="545" y="639" type="curve" smooth="yes"/>
      <point x="545" y="630"/>
      <point x="555" y="623"/>
      <point x="578" y="619" type="curve" smooth="yes"/>
      <point x="600" y="615"/>
      <point x="635" y="590"/>
      <point x="636" y="564" type="curve"/>
      <point x="636" y="381"/>
      <point x="635" y="195"/>
      <point x="634" y="157" type="curve"/>
      <point x="633" y="142"/>
      <point x="629" y="136"/>
      <point x="624" y="136" type="curve" smooth="yes"/>
      <point x="616" y="136"/>
      <point x="604" y="150"/>
      <point x="599" y="156" type="curve" smooth="yes"/>
      <point x="579" y="180"/>
      <point x="237" y="609"/>
      <point x="218" y="636" type="curve"/>
      <point x="211" y="645"/>
      <point x="206" y="653"/>
      <point x="194" y="653" type="curve" smooth="yes"/>
      <point x="122" y="653"/>
      <point x="118" y="656"/>
      <point x="40" y="658" type="curve" smooth="yes"/>
      <point x="33" y="658"/>
      <point x="17" y="656"/>
      <point x="17" y="644" type="curve" smooth="yes"/>
      <point x="17" y="632"/>
      <point x="42" y="622"/>
      <point x="48" y="620" type="curve" smooth="yes"/>
      <point x="107" y="601"/>
      <point x="147" y="578"/>
      <point x="147" y="507" type="curve" smooth="yes"/>
      <point x="147" y="342"/>
      <point x="138" y="182"/>
      <point x="129" y="107" type="curve" smooth="yes"/>
      <point x="127" y="94"/>
      <point x="109" y="31"/>
      <point x="71" y="24" type="curve" smooth="yes"/>
      <point x="48" y="20"/>
      <point x="38" y="15"/>
      <point x="38" y="6" type="curve" smooth="yes"/>
      <point x="38" y="-2"/>
      <point x="50" y="-5"/>
      <point x="67" y="-5" type="curve" smooth="yes"/>
      <point x="121" y="-5"/>
      <point x="122" y="0"/>
      <point x="158" y="0" type="curve" smooth="yes"/>
      <point x="195" y="0"/>
      <point x="198" y="-5"/>
      <point x="252" y="-5" type="curve" smooth="yes"/>
      <point x="269" y="-5"/>
      <point x="281" y="-2"/>
      <point x="281" y="6" type="curve" smooth="yes"/>
      <point x="281" y="15"/>
      <point x="271" y="20"/>
      <point x="248" y="24" type="curve" smooth="yes"/>
      <point x="198" y="33"/>
      <point x="184" y="68"/>
      <point x="184" y="104" type="curve" smooth="yes"/>
      <point x="184" y="227"/>
      <point x="187" y="380"/>
      <point x="189" y="479" type="curve" smooth="yes"/>
      <point x="189" y="487"/>
      <point x="191" y="500"/>
      <point x="198" y="500" type="curve" smooth="yes"/>
      <point x="203" y="500"/>
      <point x="209" y="496"/>
      <point x="219" y="484" type="curve" smooth="yes"/>
      <point x="242" y="456"/>
      <point x="585" y="35"/>
      <point x="603" y="11" type="curve" smooth="yes"/>
      <point x="615" y="-5"/>
      <point x="626" y="-30"/>
      <point x="626" y="-55" type="curve" smooth="yes"/>
      <point x="626" y="-118"/>
      <point x="603" y="-144"/>
      <point x="496" y="-156" type="curve" smooth="yes"/>
      <point x="473" y="-158"/>
      <point x="468" y="-162"/>
      <point x="468" y="-181" type="curve" smooth="yes"/>
      <point x="468" y="-224"/>
      <point x="497" y="-255"/>
      <point x="541" y="-255" type="curve" smooth="yes"/>
    </contour>
  </outline>
</glyph>
<glyph name="eng" format="1">
  <advance width="513"/>
  <unicode hex="014B"/>
  <note>
	eng
  </note>
  <outline>
    <contour>
      <point x="336" y="-288"/>
      <point x="395" y="-259"/>
      <point x="424" y="-173" type="curve" smooth="yes"/>
      <point x="439" y="-128"/>
      <point x="441" y="-16"/>
      <point x="441" y="90" type="curve" smooth="yes"/>
      <point x="441" y="295" type="line" smooth="yes"/>
      <point x="441" y="373"/>
      <point x="396" y="414"/>
      <point x="331" y="414" type="curve" smooth="yes"/>
      <point x="268" y="414"/>
      <point x="181" y="367"/>
      <point x="162" y="348" type="curve"/>
      <point x="161" y="349"/>
      <point x="161" y="352"/>
      <point x="161" y="356" type="curve" smooth="yes"/>
      <point x="161" y="373"/>
      <point x="168" y="411"/>
      <point x="168" y="421" type="curve"/>
      <point x="167" y="424"/>
      <point x="164" y="430"/>
      <point x="161" y="430" type="curve" smooth="yes"/>
      <point x="160" y="430"/>
      <point x="160" y="430"/>
      <point x="159" y="429" type="curve"/>
      <point x="136" y="412"/>
      <point x="101" y="386"/>
      <point x="49" y="374" type="curve" smooth="yes"/>
      <point x="44" y="373"/>
      <point x="42" y="367"/>
      <point x="42" y="362" type="curve" smooth="yes"/>
      <point x="42" y="356"/>
      <point x="45" y="350"/>
      <point x="50" y="349" type="curve" smooth="yes"/>
      <point x="84" y="342"/>
      <point x="89" y="313"/>
      <point x="91" y="277" type="curve"/>
      <point x="91" y="66" type="line"/>
      <point x="89" y="38"/>
      <point x="67" y="30"/>
      <point x="47" y="24" type="curve"/>
      <point x="36" y="20"/>
      <point x="24" y="16"/>
      <point x="24" y="6" type="curve" smooth="yes"/>
      <point x="24" y="-4"/>
      <point x="42" y="-3"/>
      <point x="47" y="-3" type="curve" smooth="yes"/>
      <point x="86" y="-3"/>
      <point x="90" y="2"/>
      <point x="125" y="2" type="curve" smooth="yes"/>
      <point x="160" y="2"/>
      <point x="164" y="-3"/>
      <point x="203" y="-3" type="curve" smooth="yes"/>
      <point x="208" y="-3"/>
      <point x="226" y="-4"/>
      <point x="226" y="6" type="curve" smooth="yes"/>
      <point x="226" y="16"/>
      <point x="214" y="20"/>
      <point x="203" y="24" type="curve"/>
      <point x="183" y="30"/>
      <point x="161" y="41"/>
      <point x="161" y="69" type="curve" smooth="yes"/>
      <point x="161" y="268" type="line" smooth="yes"/>
      <point x="161" y="309"/>
      <point x="171" y="323"/>
      <point x="186" y="334" type="curve" smooth="yes"/>
      <point x="211" y="353"/>
      <point x="245" y="365"/>
      <point x="279" y="365" type="curve" smooth="yes"/>
      <point x="332" y="365"/>
      <point x="370" y="330"/>
      <point x="370" y="272" type="curve" smooth="yes"/>
      <point x="373" y="50" type="line" smooth="yes"/>
      <point x="374" y="-53"/>
      <point x="370" y="-160"/>
      <point x="358" y="-201" type="curve" smooth="yes"/>
      <point x="348" y="-236"/>
      <point x="316" y="-256"/>
      <point x="291" y="-256" type="curve" smooth="yes"/>
      <point x="248" y="-256"/>
      <point x="240" y="-207"/>
      <point x="216" y="-207" type="curve" smooth="yes"/>
      <point x="204" y="-207"/>
      <point x="189" y="-239"/>
      <point x="189" y="-255" type="curve" smooth="yes"/>
      <point x="189" y="-262"/>
      <point x="206" y="-274"/>
      <point x="216" y="-278" type="curve" smooth="yes"/>
      <point x="240" y="-288"/>
      <point x="257" y="-288"/>
      <point x="282" y="-288" type="curve" smooth="yes"/>
    </contour>
  </outline>
</glyph>
<glyph name="OE" format="1">
  <advance width="932"/>
  <unicode hex="0152"/>
  <note>
    OE
  </note>
  <outline>
    <contour>
      <point x="456" y="-14"/>
      <point x="521" y="7"/>
      <point x="573" y="43" type="curve"/>
      <point x="528" y="92" type="line"/>
      <point x="528" y="36"/>
      <point x="477" y="26"/>
      <point x="391" y="26" type="curve" smooth="yes"/>
      <point x="230" y="26"/>
      <point x="143" y="156"/>
      <point x="143" y="345" type="curve" smooth="yes"/>
      <point x="143" y="514"/>
      <point x="220" y="623"/>
      <point x="370" y="623" type="curve" smooth="yes"/>
      <point x="447" y="623"/>
      <point x="528" y="613"/>
      <point x="528" y="527" type="curve"/>
      <point x="573" y="609" type="line"/>
      <point x="519" y="644"/>
      <point x="454" y="664"/>
      <point x="386" y="664" type="curve" smooth="yes"/>
      <point x="164" y="664"/>
      <point x="45" y="495"/>
      <point x="45" y="315" type="curve" smooth="yes"/>
      <point x="45" y="118"/>
      <point x="201" y="-14"/>
      <point x="377" y="-14" type="curve" smooth="yes"/>
    </contour>
    <component base="E" xOffset="383"/>
    <contour>
      <point x="367" y="675" type="move" name="top.cap"/>
    </contour>
    <contour>
      <point x="357" y="-30" type="move" name="bottom.cap"/>
    </contour>
  </outline>
</glyph>
<glyph name="tbar" format="1">
  <advance width="351"/>
  <unicode hex="0167"/>
  <note>
    tbar
  </note>
  <outline>
    <contour>
      <point x="244" y="210" type="line" smooth="yes"/>
      <point x="259" y="210"/>
      <point x="268" y="218"/>
      <point x="275" y="231" type="curve"/>
      <point x="275" y="232"/>
      <point x="276" y="233"/>
      <point x="276" y="234" type="curve" smooth="yes"/>
      <point x="276" y="239"/>
      <point x="268" y="244"/>
      <point x="262" y="244" type="curve" smooth="yes"/>
      <point x="64" y="244" type="line" smooth="yes"/>
      <point x="52" y="244"/>
      <point x="40" y="236"/>
      <point x="40" y="227" type="curve" smooth="yes"/>
      <point x="40" y="221"/>
      <point x="45" y="210"/>
      <point x="54" y="210" type="curve" smooth="yes"/>
    </contour>
    <component base="t" xOffset="11"/>
  </outline>
</glyph>
<glyph name="longs" format="1">
  <advance width="261"/>
  <unicode hex="017F"/>
  <note>
    longs
  </note>
  <outline>
    <contour>
      <point x="84" y="-3"/>
      <point x="92" y="2"/>
      <point x="127" y="2" type="curve" smooth="yes"/>
      <point x="162" y="2"/>
      <point x="166" y="-3"/>
      <point x="206" y="-3" type="curve" smooth="yes"/>
      <point x="214" y="-3"/>
      <point x="226" y="-2"/>
      <point x="226" y="6" type="curve" smooth="yes"/>
      <point x="226" y="16"/>
      <point x="214" y="20"/>
      <point x="203" y="24" type="curve"/>
      <point x="183" y="30"/>
      <point x="160" y="42"/>
      <point x="160" y="68" type="curve" smooth="yes"/>
      <point x="160" y="475" type="line" smooth="yes"/>
      <point x="160" y="610"/>
      <point x="204" y="665"/>
      <point x="266" y="665" type="curve" smooth="yes"/>
      <point x="345" y="665"/>
      <point x="355" y="606"/>
      <point x="384" y="606" type="curve" smooth="yes"/>
      <point x="411" y="606"/>
      <point x="418" y="630"/>
      <point x="418" y="647" type="curve" smooth="yes"/>
      <point x="418" y="660"/>
      <point x="413" y="672"/>
      <point x="402" y="681" type="curve" smooth="yes"/>
      <point x="373" y="705"/>
      <point x="353" y="706"/>
      <point x="308" y="706" type="curve" smooth="yes"/>
      <point x="221" y="706"/>
      <point x="90" y="633"/>
      <point x="90" y="402" type="curve"/>
      <point x="71" y="392"/>
      <point x="61" y="384"/>
      <point x="31" y="376" type="curve"/>
      <point x="29" y="375"/>
      <point x="25" y="372"/>
      <point x="25" y="369" type="curve" smooth="yes"/>
      <point x="25" y="362"/>
      <point x="34" y="353"/>
      <point x="38" y="352" type="curve"/>
      <point x="59" y="350"/>
      <point x="77" y="350"/>
      <point x="90" y="350" type="curve"/>
      <point x="90" y="68" type="line" smooth="yes"/>
      <point x="90" y="41"/>
      <point x="67" y="30"/>
      <point x="47" y="24" type="curve"/>
      <point x="36" y="20"/>
      <point x="24" y="16"/>
      <point x="24" y="6" type="curve" smooth="yes"/>
      <point x="24" y="-2"/>
      <point x="36" y="-3"/>
      <point x="44" y="-3" type="curve" smooth="yes"/>
    </contour>
  </outline>
</glyph>
<glyph name="uni0180" format="1">
  <advance width="515"/>
  <unicode hex="0180"/>
  <note>
    uni0180
  </note>
  <outline>
    <contour>
      <point x="410" y="-14"/>
      <point x="480" y="100"/>
      <point x="480" y="217" type="curve" smooth="yes"/>
      <point x="480" y="325"/>
      <point x="404" y="414"/>
      <point x="300" y="414" type="curve" smooth="yes"/>
      <point x="266" y="414"/>
      <point x="204" y="397"/>
      <point x="154" y="355" type="curve"/>
      <point x="145" y="356"/>
      <point x="145" y="367"/>
      <point x="145" y="388" type="curve" smooth="yes"/>
      <point x="145" y="593" type="line" smooth="yes"/>
      <point x="145" y="649"/>
      <point x="148" y="693"/>
      <point x="148" y="698" type="curve" smooth="yes"/>
      <point x="148" y="702"/>
      <point x="145" y="705"/>
      <point x="142" y="705" type="curve" smooth="yes"/>
      <point x="140" y="705"/>
      <point x="137" y="704"/>
      <point x="133" y="702" type="curve" smooth="yes"/>
      <point x="120" y="696"/>
      <point x="54" y="669"/>
      <point x="28" y="664" type="curve" smooth="yes"/>
      <point x="23" y="663"/>
      <point x="20" y="659"/>
      <point x="20" y="652" type="curve" smooth="yes"/>
      <point x="20" y="644"/>
      <point x="23" y="640"/>
      <point x="29" y="639" type="curve" smooth="yes"/>
      <point x="62" y="633"/>
      <point x="75" y="601"/>
      <point x="75" y="566" type="curve" smooth="yes"/>
      <point x="75" y="81" type="line" smooth="yes"/>
      <point x="75" y="48"/>
      <point x="68" y="21"/>
      <point x="68" y="9" type="curve" smooth="yes"/>
      <point x="68" y="2"/>
      <point x="76" y="-3"/>
      <point x="82" y="-3" type="curve" smooth="yes"/>
      <point x="85" y="-3"/>
      <point x="88" y="-1"/>
      <point x="91" y="2" type="curve" smooth="yes"/>
      <point x="97" y="8"/>
      <point x="105" y="15"/>
      <point x="113" y="15" type="curve" smooth="yes"/>
      <point x="127" y="15"/>
      <point x="197" y="-14"/>
      <point x="259" y="-14" type="curve" smooth="yes"/>
    </contour>
    <contour>
      <point x="212" y="17"/>
      <point x="145" y="62"/>
      <point x="145" y="132" type="curve" smooth="yes"/>
      <point x="145" y="253" type="line" smooth="yes"/>
      <point x="145" y="306"/>
      <point x="152" y="323"/>
      <point x="166" y="338" type="curve" smooth="yes"/>
      <point x="188" y="362"/>
      <point x="237" y="373"/>
      <point x="265" y="373" type="curve" smooth="yes"/>
      <point x="360" y="373"/>
      <point x="405" y="272"/>
      <point x="405" y="195" type="curve" smooth="yes"/>
      <point x="405" y="94"/>
      <point x="358" y="17"/>
      <point x="282" y="17" type="curve" smooth="yes"/>
    </contour>
    <contour>
      <point x="266" y="532" type="line"/>
      <point x="281" y="532"/>
      <point x="290" y="540"/>
      <point x="297" y="553" type="curve"/>
      <point x="297" y="554"/>
      <point x="298" y="555"/>
      <point x="298" y="556" type="curve" smooth="yes"/>
      <point x="298" y="561"/>
      <point x="290" y="566"/>
      <point x="284" y="566" type="curve"/>
      <point x="4" y="566" type="line"/>
      <point x="-8" y="566"/>
      <point x="-20" y="558"/>
      <point x="-20" y="549" type="curve" smooth="yes"/>
      <point x="-20" y="543"/>
      <point x="-15" y="532"/>
      <point x="-6" y="532" type="curve"/>
    </contour>
    <contour>
      <point x="253" y="-30" type="move" name="bottom"/>
    </contour>
  </outline>
</glyph>
<glyph name="uni0181" format="1">
  <advance width="652"/>
  <unicode hex="0181"/>
  <note>
    uni0181
  </note>
  <outline>
    <contour>
      <point x="180" y="-5"/>
      <point x="200" y="0"/>
      <point x="252" y="0" type="curve" smooth="yes"/>
      <point x="292" y="0"/>
      <point x="329" y="-4"/>
      <point x="347" y="-4" type="curve" smooth="yes"/>
      <point x="413" y="-4"/>
      <point x="465" y="9"/>
      <point x="507" y="30" type="curve" smooth="yes"/>
      <point x="548" y="51"/>
      <point x="611" y="84"/>
      <point x="611" y="194" type="curve" smooth="yes"/>
      <point x="611" y="310"/>
      <point x="529" y="340"/>
      <point x="469" y="359" type="curve" smooth="yes"/>
      <point x="463" y="361"/>
      <point x="464" y="367"/>
      <point x="469" y="369" type="curve" smooth="yes"/>
      <point x="502" y="382"/>
      <point x="515" y="392"/>
      <point x="536" y="412" type="curve" smooth="yes"/>
      <point x="551" y="427"/>
      <point x="570" y="463"/>
      <point x="570" y="508" type="curve" smooth="yes"/>
      <point x="570" y="618"/>
      <point x="475" y="657"/>
      <point x="370" y="657" type="curve" smooth="yes"/>
      <point x="324" y="657"/>
      <point x="289" y="652"/>
      <point x="214" y="652" type="curve" smooth="yes"/>
      <point x="56" y="652"/>
      <point x="15" y="599"/>
      <point x="15" y="520" type="curve" smooth="yes"/>
      <point x="15" y="492"/>
      <point x="42" y="447"/>
      <point x="69" y="447" type="curve" smooth="yes"/>
      <point x="81" y="447"/>
      <point x="115" y="470"/>
      <point x="115" y="490" type="curve" smooth="yes"/>
      <point x="115" y="500"/>
      <point x="104" y="510"/>
      <point x="92" y="520" type="curve" smooth="yes"/>
      <point x="78" y="532"/>
      <point x="62" y="545"/>
      <point x="62" y="563" type="curve" smooth="yes"/>
      <point x="62" y="607"/>
      <point x="115" y="621"/>
      <point x="170" y="621" type="curve" smooth="yes"/>
      <point x="200" y="621"/>
      <point x="204" y="605"/>
      <point x="204" y="577" type="curve" smooth="yes"/>
      <point x="204" y="99" type="line" smooth="yes"/>
      <point x="204" y="51"/>
      <point x="176" y="33"/>
      <point x="126" y="24" type="curve" smooth="yes"/>
      <point x="103" y="20"/>
      <point x="93" y="15"/>
      <point x="93" y="6" type="curve" smooth="yes"/>
      <point x="93" y="-2"/>
      <point x="105" y="-5"/>
      <point x="122" y="-5" type="curve" smooth="yes"/>
    </contour>
    <contour>
      <point x="310" y="37"/>
      <point x="282" y="52"/>
      <point x="282" y="108" type="curve" smooth="yes"/>
      <point x="282" y="307" type="line" smooth="yes"/>
      <point x="282" y="320"/>
      <point x="296" y="343"/>
      <point x="339" y="343" type="curve" smooth="yes"/>
      <point x="389" y="343"/>
      <point x="425" y="328"/>
      <point x="443" y="318" type="curve" smooth="yes"/>
      <point x="470" y="303"/>
      <point x="517" y="266"/>
      <point x="517" y="189" type="curve" smooth="yes"/>
      <point x="517" y="103"/>
      <point x="439" y="37"/>
      <point x="361" y="37" type="curve" smooth="yes"/>
    </contour>
    <contour>
      <point x="312" y="371"/>
      <point x="282" y="373"/>
      <point x="282" y="408" type="curve" smooth="yes"/>
      <point x="282" y="582" type="line" smooth="yes"/>
      <point x="282" y="612"/>
      <point x="284" y="625"/>
      <point x="339" y="625" type="curve" smooth="yes"/>
      <point x="452" y="625"/>
      <point x="484" y="555"/>
      <point x="484" y="498" type="curve" smooth="yes"/>
      <point x="484" y="440"/>
      <point x="453" y="408"/>
      <point x="439" y="400" type="curve" smooth="yes"/>
      <point x="399" y="376"/>
      <point x="354" y="371"/>
      <point x="328" y="371" type="curve" smooth="yes"/>
    </contour>
  </outline>
</glyph>
<glyph name="uni0185" format="1">
  <advance width="515"/>
  <unicode hex="0185"/>
  <note>
    uni0185
  </note>
  <outline>
    <contour>
      <point x="410" y="-14"/>
      <point x="480" y="100"/>
      <point x="480" y="217" type="curve" smooth="yes"/>
      <point x="480" y="325"/>
      <point x="404" y="414"/>
      <point x="300" y="414" type="curve" smooth="yes"/>
      <point x="266" y="414"/>
      <point x="204" y="397"/>
      <point x="154" y="355" type="curve"/>
      <point x="145" y="356"/>
      <point x="145" y="367"/>
      <point x="145" y="388" type="curve" smooth="yes"/>
      <point x="145" y="593" type="line" smooth="yes"/>
      <point x="145" y="630"/>
      <point x="149" y="650"/>
      <point x="151" y="664" type="curve" smooth="yes"/>
      <point x="153" y="674"/>
      <point x="155" y="682"/>
      <point x="155" y="690" type="curve" smooth="yes"/>
      <point x="155" y="693"/>
      <point x="145" y="705"/>
      <point x="142" y="705" type="curve" smooth="yes"/>
      <point x="139" y="705"/>
      <point x="136" y="704"/>
      <point x="132" y="701" type="curve" smooth="yes"/>
      <point x="111" y="689"/>
      <point x="73" y="651"/>
      <point x="41" y="622" type="curve"/>
      <point x="34" y="615"/>
      <point x="19" y="611"/>
      <point x="19" y="596" type="curve" smooth="yes"/>
      <point x="19" y="588"/>
      <point x="27" y="586"/>
      <point x="37" y="582" type="curve" smooth="yes"/>
      <point x="53" y="576"/>
      <point x="75" y="562"/>
      <point x="75" y="498" type="curve" smooth="yes"/>
      <point x="75" y="105" type="line" smooth="yes"/>
      <point x="75" y="52"/>
      <point x="68" y="11"/>
      <point x="68" y="9" type="curve" smooth="yes"/>
      <point x="68" y="3"/>
      <point x="76" y="-3"/>
      <point x="84" y="-3" type="curve" smooth="yes"/>
      <point x="87" y="-3"/>
      <point x="91" y="1"/>
      <point x="95" y="4" type="curve" smooth="yes"/>
      <point x="100" y="9"/>
      <point x="106" y="15"/>
      <point x="113" y="15" type="curve" smooth="yes"/>
      <point x="127" y="15"/>
      <point x="197" y="-14"/>
      <point x="259" y="-14" type="curve" smooth="yes"/>
    </contour>
    <contour>
      <point x="212" y="17"/>
      <point x="145" y="62"/>
      <point x="145" y="132" type="curve" smooth="yes"/>
      <point x="145" y="253" type="line" smooth="yes"/>
      <point x="145" y="306"/>
      <point x="152" y="323"/>
      <point x="166" y="338" type="curve" smooth="yes"/>
      <point x="188" y="362"/>
      <point x="237" y="373"/>
      <point x="265" y="373" type="curve" smooth="yes"/>
      <point x="360" y="373"/>
      <point x="405" y="272"/>
      <point x="405" y="195" type="curve" smooth="yes"/>
      <point x="405" y="94"/>
      <point x="358" y="17"/>
      <point x="282" y="17" type="curve" smooth="yes"/>
    </contour>
  </outline>
</glyph>
<glyph name="uni0187" format="1">
  <advance width="660"/>
  <unicode hex="0187"/>
  <note>
    uni0187
  </note>
  <outline>
    <contour>
      <point x="429" y="-15"/>
      <point x="503" y="-11"/>
      <point x="537" y="5" type="curve" smooth="yes"/>
      <point x="561" y="16"/>
      <point x="581" y="18"/>
      <point x="586" y="26" type="curve" smooth="yes"/>
      <point x="599" y="46"/>
      <point x="620" y="122"/>
      <point x="620" y="142" type="curve" smooth="yes"/>
      <point x="620" y="157"/>
      <point x="595" y="155"/>
      <point x="587" y="141" type="curve" smooth="yes"/>
      <point x="561" y="90"/>
      <point x="512" y="16"/>
      <point x="400" y="16" type="curve" smooth="yes"/>
      <point x="244" y="16"/>
      <point x="146" y="184"/>
      <point x="146" y="347" type="curve" smooth="yes"/>
      <point x="146" y="494"/>
      <point x="247" y="632"/>
      <point x="394" y="632" type="curve" smooth="yes"/>
      <point x="486" y="632"/>
      <point x="531" y="591"/>
      <point x="541" y="581" type="curve"/>
      <point x="553" y="570"/>
      <point x="573" y="532"/>
      <point x="581" y="482" type="curve" smooth="yes"/>
      <point x="583" y="469"/>
      <point x="613" y="471"/>
      <point x="613" y="487" type="curve" smooth="yes"/>
      <point x="613" y="539"/>
      <point x="608" y="576"/>
      <point x="607" y="603" type="curve" smooth="yes"/>
      <point x="607" y="659"/>
      <point x="618" y="683"/>
      <point x="651" y="683" type="curve" smooth="yes"/>
      <point x="668" y="683"/>
      <point x="681" y="671"/>
      <point x="693" y="659" type="curve" smooth="yes"/>
      <point x="705" y="647"/>
      <point x="716" y="635"/>
      <point x="728" y="635" type="curve" smooth="yes"/>
      <point x="745" y="635"/>
      <point x="770" y="657"/>
      <point x="770" y="678" type="curve" smooth="yes"/>
      <point x="770" y="701"/>
      <point x="749" y="725"/>
      <point x="681" y="725" type="curve" smooth="yes"/>
      <point x="639" y="725"/>
      <point x="593" y="704"/>
      <point x="577" y="649" type="curve" smooth="yes"/>
      <point x="574" y="640"/>
      <point x="571" y="639"/>
      <point x="566" y="639" type="curve" smooth="yes"/>
      <point x="537" y="639"/>
      <point x="507" y="663"/>
      <point x="410" y="663" type="curve" smooth="yes"/>
      <point x="216" y="663"/>
      <point x="46" y="517"/>
      <point x="46" y="323" type="curve" smooth="yes"/>
      <point x="46" y="141"/>
      <point x="187" y="-15"/>
      <point x="369" y="-15" type="curve" smooth="yes"/>
    </contour>
  </outline>
</glyph>
<glyph name="uni018A" format="1">
  <advance width="797"/>
  <unicode hex="018A"/>
  <note>
    uni018A
  </note>
  <outline>
    <contour>
      <point x="589" y="-7"/>
      <point x="762" y="121"/>
      <point x="762" y="330" type="curve" smooth="yes"/>
      <point x="762" y="533"/>
      <point x="647" y="658"/>
      <point x="386" y="658" type="curve" smooth="yes"/>
      <point x="358" y="658"/>
      <point x="270" y="652"/>
      <point x="214" y="652" type="curve" smooth="yes"/>
      <point x="56" y="652"/>
      <point x="15" y="599"/>
      <point x="15" y="520" type="curve" smooth="yes"/>
      <point x="15" y="492"/>
      <point x="42" y="447"/>
      <point x="69" y="447" type="curve" smooth="yes"/>
      <point x="81" y="447"/>
      <point x="115" y="470"/>
      <point x="115" y="490" type="curve" smooth="yes"/>
      <point x="115" y="500"/>
      <point x="104" y="510"/>
      <point x="92" y="520" type="curve" smooth="yes"/>
      <point x="78" y="532"/>
      <point x="62" y="545"/>
      <point x="62" y="563" type="curve" smooth="yes"/>
      <point x="62" y="607"/>
      <point x="115" y="621"/>
      <point x="170" y="621" type="curve" smooth="yes"/>
      <point x="200" y="621"/>
      <point x="203" y="605"/>
      <point x="203" y="558" type="curve" smooth="yes"/>
      <point x="203" y="99" type="line" smooth="yes"/>
      <point x="203" y="51"/>
      <point x="186" y="33"/>
      <point x="136" y="24" type="curve" smooth="yes"/>
      <point x="113" y="20"/>
      <point x="103" y="15"/>
      <point x="103" y="6" type="curve" smooth="yes"/>
      <point x="103" y="-2"/>
      <point x="115" y="-5"/>
      <point x="132" y="-5" type="curve" smooth="yes"/>
      <point x="185" y="-5"/>
      <point x="197" y="0"/>
      <point x="237" y="0" type="curve" smooth="yes"/>
      <point x="316" y="0"/>
      <point x="345" y="-7"/>
      <point x="394" y="-7" type="curve" smooth="yes"/>
    </contour>
    <contour>
      <point x="335" y="28"/>
      <point x="284" y="38"/>
      <point x="284" y="121" type="curve" smooth="yes"/>
      <point x="284" y="551" type="line" smooth="yes"/>
      <point x="284" y="611"/>
      <point x="295" y="624"/>
      <point x="371" y="624" type="curve" smooth="yes"/>
      <point x="565" y="624"/>
      <point x="667" y="491"/>
      <point x="667" y="323" type="curve" smooth="yes"/>
      <point x="667" y="157"/>
      <point x="557" y="28"/>
      <point x="422" y="28" type="curve" smooth="yes"/>
    </contour>
  </outline>
</glyph>
<glyph name="uni018B" format="1">
  <advance width="577"/>
  <unicode hex="018B"/>
  <note>
    uni018B
  </note>
  <outline>
    <contour>
      <point x="547" y="-5"/>
      <point x="559" y="-2"/>
      <point x="559" y="6" type="curve" smooth="yes"/>
      <point x="559" y="15"/>
      <point x="549" y="20"/>
      <point x="526" y="24" type="curve" smooth="yes"/>
      <point x="476" y="33"/>
      <point x="448" y="51"/>
      <point x="448" y="98" type="curve" smooth="yes"/>
      <point x="448" y="550" type="line" smooth="yes"/>
      <point x="448" y="597"/>
      <point x="465" y="613"/>
      <point x="515" y="622" type="curve" smooth="yes"/>
      <point x="538" y="626"/>
      <point x="548" y="633"/>
      <point x="548" y="642" type="curve" smooth="yes"/>
      <point x="548" y="650"/>
      <point x="536" y="653"/>
      <point x="519" y="653" type="curve" smooth="yes"/>
      <point x="487" y="653"/>
      <point x="448" y="643"/>
      <point x="402" y="643" type="curve" smooth="yes"/>
      <point x="197" y="644" type="line" smooth="yes"/>
      <point x="151" y="644"/>
      <point x="121" y="655"/>
      <point x="115" y="655" type="curve" smooth="yes"/>
      <point x="108" y="655"/>
      <point x="105" y="645"/>
      <point x="105" y="641" type="curve" smooth="yes"/>
      <point x="104" y="598"/>
      <point x="94" y="566"/>
      <point x="94" y="533" type="curve" smooth="yes"/>
      <point x="94" y="519"/>
      <point x="103" y="512"/>
      <point x="108" y="512" type="curve" smooth="yes"/>
      <point x="121" y="512"/>
      <point x="131" y="536"/>
      <point x="135" y="547" type="curve" smooth="yes"/>
      <point x="149" y="590"/>
      <point x="168" y="611"/>
      <point x="233" y="611" type="curve" smooth="yes"/>
      <point x="339" y="611" type="line" smooth="yes"/>
      <point x="350" y="611"/>
      <point x="368" y="588"/>
      <point x="368" y="576" type="curve" smooth="yes"/>
      <point x="368" y="408" type="line" smooth="yes"/>
      <point x="368" y="376"/>
      <point x="368" y="357"/>
      <point x="361" y="357" type="curve" smooth="yes"/>
      <point x="359" y="357"/>
      <point x="354" y="357"/>
      <point x="351" y="359" type="curve"/>
      <point x="334" y="369"/>
      <point x="308" y="375"/>
      <point x="273" y="375" type="curve" smooth="yes"/>
      <point x="148" y="375"/>
      <point x="45" y="292"/>
      <point x="45" y="178" type="curve" smooth="yes"/>
      <point x="45" y="68"/>
      <point x="124" y="-4"/>
      <point x="264" y="-4" type="curve" smooth="yes"/>
      <point x="284" y="-4"/>
      <point x="381" y="4"/>
      <point x="425" y="4" type="curve" smooth="yes"/>
      <point x="467" y="4"/>
      <point x="476" y="-5"/>
      <point x="530" y="-5" type="curve" smooth="yes"/>
    </contour>
    <contour>
      <point x="193" y="24"/>
      <point x="135" y="92"/>
      <point x="135" y="198" type="curve" smooth="yes"/>
      <point x="135" y="275"/>
      <point x="154" y="295"/>
      <point x="177" y="317" type="curve" smooth="yes"/>
      <point x="192" y="331"/>
      <point x="219" y="342"/>
      <point x="252" y="342" type="curve" smooth="yes"/>
      <point x="322" y="342"/>
      <point x="368" y="319"/>
      <point x="368" y="264" type="curve" smooth="yes"/>
      <point x="368" y="108" type="line" smooth="yes"/>
      <point x="368" y="63"/>
      <point x="337" y="24"/>
      <point x="288" y="24" type="curve" smooth="yes"/>
    </contour>
  </outline>
</glyph>
<glyph name="florin" format="1">
  <advance width="325"/>
  <unicode hex="0192"/>
  <note>
    florin
  </note>
  <outline>
    <contour>
      <point x="-32" y="-207"/>
      <point x="83" y="-134"/>
      <point x="106" y="-27" type="curve" smooth="yes"/>
      <point x="139" y="129"/>
      <point x="153" y="195"/>
      <point x="180" y="346" type="curve"/>
      <point x="183" y="358"/>
      <point x="191" y="362"/>
      <point x="205" y="362" type="curve" smooth="yes"/>
      <point x="296" y="363" type="line" smooth="yes"/>
      <point x="314" y="363"/>
      <point x="325" y="383"/>
      <point x="325" y="392" type="curve" smooth="yes"/>
      <point x="325" y="400"/>
      <point x="322" y="403"/>
      <point x="318" y="403" type="curve" smooth="yes"/>
      <point x="284" y="403"/>
      <point x="250" y="400"/>
      <point x="210" y="400" type="curve" smooth="yes"/>
      <point x="204" y="400"/>
      <point x="200" y="402"/>
      <point x="200" y="409" type="curve"/>
      <point x="207" y="440"/>
      <point x="214" y="472"/>
      <point x="222" y="503" type="curve" smooth="yes"/>
      <point x="238" y="569"/>
      <point x="262" y="622"/>
      <point x="307" y="622" type="curve" smooth="yes"/>
      <point x="329" y="622"/>
      <point x="347" y="608"/>
      <point x="359" y="581" type="curve" smooth="yes"/>
      <point x="369" y="559"/>
      <point x="376" y="542"/>
      <point x="386" y="542" type="curve" smooth="yes"/>
      <point x="404" y="542"/>
      <point x="427" y="559"/>
      <point x="427" y="593" type="curve" smooth="yes"/>
      <point x="427" y="634"/>
      <point x="392" y="663"/>
      <point x="333" y="663" type="curve" smooth="yes"/>
      <point x="261" y="663"/>
      <point x="183" y="596"/>
      <point x="147" y="450" type="curve" smooth="yes"/>
      <point x="139" y="418" type="line" smooth="yes"/>
      <point x="136" y="406"/>
      <point x="129" y="399"/>
      <point x="120" y="398" type="curve" smooth="yes"/>
      <point x="50" y="394" type="line"/>
      <point x="40" y="393"/>
      <point x="31" y="379"/>
      <point x="31" y="368" type="curve" smooth="yes"/>
      <point x="31" y="361"/>
      <point x="35" y="356"/>
      <point x="44" y="356" type="curve" smooth="yes"/>
      <point x="106" y="357" type="line" smooth="yes"/>
      <point x="120" y="357"/>
      <point x="123" y="352"/>
      <point x="120" y="339" type="curve" smooth="yes"/>
      <point x="42" y="-32" type="line" smooth="yes"/>
      <point x="18" y="-146"/>
      <point x="-10" y="-167"/>
      <point x="-48" y="-167" type="curve" smooth="yes"/>
      <point x="-72" y="-167"/>
      <point x="-88" y="-156"/>
      <point x="-100" y="-143" type="curve" smooth="yes"/>
      <point x="-113" y="-129"/>
      <point x="-122" y="-115"/>
      <point x="-132" y="-115" type="curve" smooth="yes"/>
      <point x="-145" y="-115"/>
      <point x="-171" y="-137"/>
      <point x="-171" y="-157" type="curve" smooth="yes"/>
      <point x="-171" y="-190"/>
      <point x="-138" y="-207"/>
      <point x="-88" y="-207" type="curve" smooth="yes"/>
    </contour>
  </outline>
</glyph>
<glyph name="uni0193" format="1">
  <advance width="757"/>
  <unicode hex="0193"/>
  <note>
	uni0193
  </note>
  <outline>
    <contour>
      <point x="478" y="-14"/>
      <point x="541" y="23"/>
      <point x="630" y="54" type="curve" smooth="yes"/>
      <point x="638" y="57"/>
      <point x="644" y="67"/>
      <point x="644" y="72" type="curve" smooth="yes"/>
      <point x="644" y="77"/>
      <point x="635" y="82"/>
      <point x="631" y="89" type="curve"/>
      <point x="628" y="95"/>
      <point x="625" y="98"/>
      <point x="625" y="105" type="curve" smooth="yes"/>
      <point x="625" y="132" type="line" smooth="yes"/>
      <point x="625" y="157"/>
      <point x="626" y="178"/>
      <point x="630" y="207" type="curve" smooth="yes"/>
      <point x="634" y="234"/>
      <point x="643" y="248"/>
      <point x="672" y="256" type="curve"/>
      <point x="677" y="257"/>
      <point x="693" y="265"/>
      <point x="693" y="274" type="curve" smooth="yes"/>
      <point x="693" y="287"/>
      <point x="677" y="290"/>
      <point x="672" y="290" type="curve" smooth="yes"/>
      <point x="636" y="290"/>
      <point x="618" y="286"/>
      <point x="583" y="286" type="curve" smooth="yes"/>
      <point x="528" y="286"/>
      <point x="506" y="290"/>
      <point x="457" y="290" type="curve" smooth="yes"/>
      <point x="452" y="290"/>
      <point x="437" y="283"/>
      <point x="437" y="273" type="curve" smooth="yes"/>
      <point x="437" y="263"/>
      <point x="452" y="256"/>
      <point x="457" y="256" type="curve" smooth="yes"/>
      <point x="477" y="256"/>
      <point x="538" y="247"/>
      <point x="555" y="225" type="curve" smooth="yes"/>
      <point x="559" y="220"/>
      <point x="560" y="209"/>
      <point x="560" y="195" type="curve" smooth="yes"/>
      <point x="560" y="177"/>
      <point x="558" y="154"/>
      <point x="558" y="137" type="curve" smooth="yes"/>
      <point x="558" y="102"/>
      <point x="552" y="72"/>
      <point x="534" y="60" type="curve" smooth="yes"/>
      <point x="520" y="51"/>
      <point x="475" y="23"/>
      <point x="398" y="23" type="curve" smooth="yes"/>
      <point x="239" y="23"/>
      <point x="144" y="186"/>
      <point x="144" y="346" type="curve" smooth="yes"/>
      <point x="144" y="504"/>
      <point x="255" y="625"/>
      <point x="404" y="625" type="curve" smooth="yes"/>
      <point x="499" y="625"/>
      <point x="550" y="588"/>
      <point x="563" y="572" type="curve" smooth="yes"/>
      <point x="579" y="553"/>
      <point x="586" y="540"/>
      <point x="594" y="519" type="curve"/>
      <point x="598" y="507"/>
      <point x="603" y="492"/>
      <point x="617" y="492" type="curve" smooth="yes"/>
      <point x="625" y="492"/>
      <point x="632" y="502"/>
      <point x="632" y="512" type="curve" smooth="yes"/>
      <point x="632" y="538"/>
      <point x="627" y="576"/>
      <point x="623" y="603" type="curve"/>
      <point x="623" y="607"/>
      <point x="622" y="612"/>
      <point x="622" y="617" type="curve" smooth="yes"/>
      <point x="622" y="624"/>
      <point x="623" y="632"/>
      <point x="627" y="639" type="curve" smooth="yes"/>
      <point x="634" y="652"/>
      <point x="649" y="675"/>
      <point x="671" y="675" type="curve" smooth="yes"/>
      <point x="711" y="675"/>
      <point x="716" y="625"/>
      <point x="738" y="625" type="curve" smooth="yes"/>
      <point x="757" y="625"/>
      <point x="777" y="657"/>
      <point x="777" y="681" type="curve" smooth="yes"/>
      <point x="777" y="711"/>
      <point x="740" y="725"/>
      <point x="704" y="725" type="curve" smooth="yes"/>
      <point x="659" y="725"/>
      <point x="607" y="697"/>
      <point x="593" y="643" type="curve" smooth="yes"/>
      <point x="592" y="638"/>
      <point x="580" y="639"/>
      <point x="575" y="640" type="curve"/>
      <point x="559" y="644"/>
      <point x="463" y="663"/>
      <point x="413" y="663" type="curve" smooth="yes"/>
      <point x="219" y="663"/>
      <point x="45" y="522"/>
      <point x="45" y="329" type="curve" smooth="yes"/>
      <point x="45" y="137"/>
      <point x="207" y="-14"/>
      <point x="399" y="-14" type="curve" smooth="yes"/>
    </contour>
  </outline>
</glyph>
<glyph name="uni019A" format="1">
  <advance width="275"/>
  <unicode hex="019A"/>
  <note>
	uni019A
  </note>
  <outline>
    <contour>
      <point x="199" y="324" type="line"/>
      <point x="214" y="324"/>
      <point x="223" y="332"/>
      <point x="230" y="345" type="curve"/>
      <point x="230" y="346"/>
      <point x="231" y="347"/>
      <point x="231" y="348" type="curve" smooth="yes"/>
      <point x="231" y="353"/>
      <point x="223" y="358"/>
      <point x="217" y="358" type="curve"/>
      <point x="39" y="358" type="line"/>
      <point x="27" y="358"/>
      <point x="15" y="350"/>
      <point x="15" y="341" type="curve" smooth="yes"/>
      <point x="15" y="335"/>
      <point x="20" y="324"/>
      <point x="29" y="324" type="curve"/>
    </contour>
    <component base="l"/>
  </outline>
</glyph>
<glyph name="uni019D" format="1">
  <advance width="770"/>
  <unicode hex="019D"/>
  <note>
    uni019D
  </note>
  <outline>
    <contour>
      <point x="158" y="-200"/>
      <point x="183" y="-25"/>
      <point x="183" y="180" type="curve" smooth="yes"/>
      <point x="183" y="278"/>
      <point x="177" y="383"/>
      <point x="174" y="479" type="curve" smooth="yes"/>
      <point x="174" y="487"/>
      <point x="176" y="500"/>
      <point x="183" y="500" type="curve" smooth="yes"/>
      <point x="188" y="500"/>
      <point x="194" y="496"/>
      <point x="204" y="484" type="curve" smooth="yes"/>
      <point x="227" y="456"/>
      <point x="542" y="71"/>
      <point x="560" y="46" type="curve" smooth="yes"/>
      <point x="592" y="2"/>
      <point x="629" y="-17"/>
      <point x="641" y="-17" type="curve" smooth="yes"/>
      <point x="651" y="-17"/>
      <point x="662" y="-13"/>
      <point x="662" y="8" type="curve" smooth="yes"/>
      <point x="662" y="23"/>
      <point x="661" y="68"/>
      <point x="661" y="126" type="curve" smooth="yes"/>
      <point x="662" y="285"/>
      <point x="663" y="543"/>
      <point x="664" y="561" type="curve" smooth="yes"/>
      <point x="665" y="594"/>
      <point x="682" y="609"/>
      <point x="725" y="617" type="curve" smooth="yes"/>
      <point x="748" y="621"/>
      <point x="760" y="633"/>
      <point x="760" y="642" type="curve" smooth="yes"/>
      <point x="760" y="650"/>
      <point x="748" y="653"/>
      <point x="731" y="653" type="curve" smooth="yes"/>
      <point x="670" y="653"/>
      <point x="664" y="650"/>
      <point x="616" y="650" type="curve" smooth="yes"/>
      <point x="597" y="650"/>
      <point x="578" y="650"/>
      <point x="559" y="650" type="curve" smooth="yes"/>
      <point x="542" y="650"/>
      <point x="530" y="647"/>
      <point x="530" y="639" type="curve" smooth="yes"/>
      <point x="530" y="630"/>
      <point x="540" y="623"/>
      <point x="563" y="619" type="curve" smooth="yes"/>
      <point x="585" y="615"/>
      <point x="620" y="590"/>
      <point x="621" y="564" type="curve"/>
      <point x="621" y="381"/>
      <point x="620" y="195"/>
      <point x="619" y="157" type="curve"/>
      <point x="618" y="142"/>
      <point x="614" y="136"/>
      <point x="609" y="136" type="curve" smooth="yes"/>
      <point x="601" y="136"/>
      <point x="589" y="150"/>
      <point x="584" y="156" type="curve" smooth="yes"/>
      <point x="564" y="180"/>
      <point x="222" y="609"/>
      <point x="203" y="636" type="curve" smooth="yes"/>
      <point x="196" y="645"/>
      <point x="191" y="653"/>
      <point x="179" y="653" type="curve" smooth="yes"/>
      <point x="107" y="653"/>
      <point x="103" y="656"/>
      <point x="25" y="658" type="curve" smooth="yes"/>
      <point x="18" y="658"/>
      <point x="2" y="656"/>
      <point x="2" y="644" type="curve" smooth="yes"/>
      <point x="2" y="632"/>
      <point x="27" y="622"/>
      <point x="33" y="620" type="curve" smooth="yes"/>
      <point x="92" y="601"/>
      <point x="127" y="578"/>
      <point x="132" y="507" type="curve" smooth="yes"/>
      <point x="137" y="430"/>
      <point x="141" y="347"/>
      <point x="143" y="267" type="curve" smooth="yes"/>
      <point x="147" y="45"/>
      <point x="130" y="-158"/>
      <point x="61" y="-158" type="curve" smooth="yes"/>
      <point x="44" y="-158"/>
      <point x="29" y="-152"/>
      <point x="14" y="-129" type="curve" smooth="yes"/>
      <point x="2" y="-111"/>
      <point x="-10" y="-103"/>
      <point x="-36" y="-103" type="curve" smooth="yes"/>
      <point x="-54" y="-103"/>
      <point x="-72" y="-131"/>
      <point x="-72" y="-158" type="curve" smooth="yes"/>
      <point x="-72" y="-179"/>
      <point x="-34" y="-200"/>
      <point x="31" y="-200" type="curve" smooth="yes"/>
    </contour>
  </outline>
</glyph>
<glyph name="Ohorn" format="1">
  <advance width="763"/>
  <unicode hex="01A0"/>
  <note>
    Ohorn
  </note>
  <outline>
    <contour>
      <point x="601" y="-14"/>
      <point x="718" y="155"/>
      <point x="718" y="335" type="curve" smooth="yes"/>
      <point x="718" y="421"/>
      <point x="694" y="474"/>
      <point x="654" y="534" type="curve" smooth="yes"/>
      <point x="651" y="539"/>
      <point x="653" y="547"/>
      <point x="667" y="547" type="curve" smooth="yes"/>
      <point x="726" y="547"/>
      <point x="777" y="601"/>
      <point x="777" y="661" type="curve" smooth="yes"/>
      <point x="777" y="687"/>
      <point x="758" y="721"/>
      <point x="739" y="721" type="curve" smooth="yes"/>
      <point x="717" y="721"/>
      <point x="679" y="688"/>
      <point x="679" y="663" type="curve" smooth="yes"/>
      <point x="679" y="647"/>
      <point x="691" y="642"/>
      <point x="702" y="638" type="curve" smooth="yes"/>
      <point x="715" y="633"/>
      <point x="721" y="627"/>
      <point x="721" y="615" type="curve" smooth="yes"/>
      <point x="721" y="602"/>
      <point x="703" y="589"/>
      <point x="678" y="589" type="curve" smooth="yes"/>
      <point x="642" y="589"/>
      <point x="613" y="604"/>
      <point x="578" y="620" type="curve" smooth="yes"/>
      <point x="533" y="641"/>
      <point x="477" y="664"/>
      <point x="382" y="664" type="curve" smooth="yes"/>
      <point x="163" y="664"/>
      <point x="45" y="500"/>
      <point x="45" y="320" type="curve" smooth="yes"/>
      <point x="45" y="130"/>
      <point x="205" y="-14"/>
      <point x="382" y="-14" type="curve" smooth="yes"/>
    </contour>
    <contour>
      <point x="247" y="25"/>
      <point x="142" y="179"/>
      <point x="142" y="350" type="curve" smooth="yes"/>
      <point x="142" y="490"/>
      <point x="227" y="625"/>
      <point x="375" y="625" type="curve" smooth="yes"/>
      <point x="535" y="625"/>
      <point x="621" y="495"/>
      <point x="621" y="305" type="curve" smooth="yes"/>
      <point x="621" y="134"/>
      <point x="545" y="25"/>
      <point x="395" y="25" type="curve" smooth="yes"/>
    </contour>
    <contour>
      <point x="382" y="675" type="move" name="top.cap"/>
    </contour>
    <contour>
      <point x="372" y="-30" type="move" name="bottom.cap"/>
    </contour>
  </outline>
</glyph>
<glyph name="ohorn" format="1">
  <advance width="506"/>
  <unicode hex="01A1"/>
  <note>
	ohorn
  </note>
  <outline>
    <contour>
      <point x="384" y="-14"/>
      <point x="460" y="96"/>
      <point x="460" y="213" type="curve" smooth="yes"/>
      <point x="460" y="248"/>
      <point x="450" y="289"/>
      <point x="424" y="323" type="curve" smooth="yes"/>
      <point x="421" y="327"/>
      <point x="417" y="337"/>
      <point x="422" y="337" type="curve" smooth="yes"/>
      <point x="462" y="337"/>
      <point x="506" y="390"/>
      <point x="506" y="432" type="curve" smooth="yes"/>
      <point x="506" y="466"/>
      <point x="485" y="497"/>
      <point x="465" y="497" type="curve" smooth="yes"/>
      <point x="435" y="497"/>
      <point x="408" y="472"/>
      <point x="408" y="454" type="curve" smooth="yes"/>
      <point x="408" y="447"/>
      <point x="412" y="441"/>
      <point x="417" y="439" type="curve" smooth="yes"/>
      <point x="428" y="435"/>
      <point x="446" y="421"/>
      <point x="446" y="405" type="curve" smooth="yes"/>
      <point x="446" y="391"/>
      <point x="438" y="374"/>
      <point x="420" y="374" type="curve" smooth="yes"/>
      <point x="405" y="374"/>
      <point x="358" y="390"/>
      <point x="327" y="401" type="curve"/>
      <point x="308" y="407"/>
      <point x="280" y="414"/>
      <point x="254" y="414" type="curve" smooth="yes"/>
      <point x="131" y="414"/>
      <point x="35" y="298"/>
      <point x="35" y="187" type="curve" smooth="yes"/>
      <point x="35" y="70"/>
      <point x="122" y="-14"/>
      <point x="234" y="-14" type="curve" smooth="yes"/>
    </contour>
    <contour>
      <point x="175" y="16"/>
      <point x="117" y="111"/>
      <point x="117" y="210" type="curve" smooth="yes"/>
      <point x="117" y="258"/>
      <point x="122" y="309"/>
      <point x="149" y="343" type="curve" smooth="yes"/>
      <point x="173" y="374"/>
      <point x="201" y="383"/>
      <point x="237" y="383" type="curve" smooth="yes"/>
      <point x="322" y="383"/>
      <point x="378" y="284"/>
      <point x="378" y="189" type="curve" smooth="yes"/>
      <point x="378" y="150"/>
      <point x="374" y="102"/>
      <point x="358" y="71" type="curve" smooth="yes"/>
      <point x="338" y="32"/>
      <point x="300" y="16"/>
      <point x="255" y="16" type="curve" smooth="yes"/>
    </contour>
    <contour>
      <point x="248" y="440" type="move" name="top"/>
    </contour>
    <contour>
      <point x="247" y="-30" type="move" name="bottom"/>
    </contour>
  </outline>
</glyph>
<glyph name="uni01A2" format="1">
  <advance width="910"/>
  <unicode hex="01A2"/>
  <note>
    uni01A2
  </note>
  <outline>
    <contour>
      <point x="680" y="-281"/>
      <point x="704" y="-276"/>
      <point x="754" y="-276" type="curve" smooth="yes"/>
      <point x="800" y="-276"/>
      <point x="817" y="-281"/>
      <point x="871" y="-281" type="curve" smooth="yes"/>
      <point x="888" y="-281"/>
      <point x="900" y="-278"/>
      <point x="900" y="-270" type="curve" smooth="yes"/>
      <point x="900" y="-261"/>
      <point x="890" y="-256"/>
      <point x="867" y="-252" type="curve" smooth="yes"/>
      <point x="817" y="-243"/>
      <point x="788" y="-225"/>
      <point x="788" y="-178" type="curve" smooth="yes"/>
      <point x="787" y="455" type="line" smooth="yes"/>
      <point x="787" y="599"/>
      <point x="714" y="663"/>
      <point x="583" y="663" type="curve" smooth="yes"/>
      <point x="523" y="663"/>
      <point x="475" y="639"/>
      <point x="448" y="617" type="curve"/>
      <point x="488" y="603" type="line"/>
      <point x="519" y="623"/>
      <point x="557" y="627"/>
      <point x="584" y="626" type="curve" smooth="yes"/>
      <point x="661" y="624"/>
      <point x="708" y="566"/>
      <point x="708" y="464" type="curve" smooth="yes"/>
      <point x="708" y="-178" type="line" smooth="yes"/>
      <point x="708" y="-225"/>
      <point x="680" y="-243"/>
      <point x="630" y="-252" type="curve" smooth="yes"/>
      <point x="607" y="-256"/>
      <point x="597" y="-261"/>
      <point x="597" y="-270" type="curve" smooth="yes"/>
      <point x="597" y="-278"/>
      <point x="609" y="-281"/>
      <point x="626" y="-281" type="curve" smooth="yes"/>
    </contour>
    <contour>
      <point x="525" y="-14"/>
      <point x="628" y="155"/>
      <point x="628" y="334" type="curve" smooth="yes"/>
      <point x="628" y="531"/>
      <point x="493" y="663"/>
      <point x="340" y="663" type="curve" smooth="yes"/>
      <point x="148" y="663"/>
      <point x="45" y="494"/>
      <point x="45" y="315" type="curve" smooth="yes"/>
      <point x="45" y="118"/>
      <point x="181" y="-14"/>
      <point x="333" y="-14" type="curve" smooth="yes"/>
    </contour>
    <contour>
      <point x="220" y="30"/>
      <point x="141" y="179"/>
      <point x="141" y="364" type="curve" smooth="yes"/>
      <point x="141" y="520"/>
      <point x="197" y="612"/>
      <point x="319" y="617" type="curve" smooth="yes"/>
      <point x="454" y="622"/>
      <point x="532" y="483"/>
      <point x="532" y="286" type="curve" smooth="yes"/>
      <point x="532" y="129"/>
      <point x="478" y="30"/>
      <point x="355" y="30" type="curve" smooth="yes"/>
    </contour>
  </outline>
</glyph>
<glyph name="uni01A3" format="1">
  <advance width="648"/>
  <unicode hex="01A3"/>
  <note>
    uni01A3
  </note>
  <outline>
    <contour>
      <point x="505" y="-287"/>
      <point x="512" y="-282"/>
      <point x="547" y="-282" type="curve" smooth="yes"/>
      <point x="582" y="-282"/>
      <point x="589" y="-287"/>
      <point x="628" y="-287" type="curve" smooth="yes"/>
      <point x="635" y="-287"/>
      <point x="648" y="-286"/>
      <point x="648" y="-278" type="curve" smooth="yes"/>
      <point x="648" y="-268"/>
      <point x="636" y="-264"/>
      <point x="625" y="-260" type="curve"/>
      <point x="605" y="-254"/>
      <point x="582" y="-249"/>
      <point x="582" y="-222" type="curve" smooth="yes"/>
      <point x="582" y="275" type="line" smooth="yes"/>
      <point x="582" y="353"/>
      <point x="542" y="414"/>
      <point x="489" y="414" type="curve" smooth="yes"/>
      <point x="437" y="414"/>
      <point x="394" y="392"/>
      <point x="356" y="347" type="curve"/>
      <point x="383" y="364" type="line"/>
      <point x="351" y="395"/>
      <point x="310" y="414"/>
      <point x="267" y="414" type="curve" smooth="yes"/>
      <point x="127" y="414"/>
      <point x="35" y="315"/>
      <point x="35" y="178" type="curve" smooth="yes"/>
      <point x="35" y="57"/>
      <point x="133" y="-14"/>
      <point x="235" y="-14" type="curve" smooth="yes"/>
      <point x="367" y="-14"/>
      <point x="451" y="79"/>
      <point x="451" y="204" type="curve" smooth="yes"/>
      <point x="451" y="262"/>
      <point x="428" y="317"/>
      <point x="392" y="355" type="curve"/>
      <point x="373" y="335" type="line"/>
      <point x="393" y="352"/>
      <point x="417" y="359"/>
      <point x="444" y="359" type="curve" smooth="yes"/>
      <point x="486" y="359"/>
      <point x="512" y="322"/>
      <point x="512" y="269" type="curve" smooth="yes"/>
      <point x="512" y="-222" type="line" smooth="yes"/>
      <point x="512" y="-249"/>
      <point x="489" y="-254"/>
      <point x="469" y="-260" type="curve"/>
      <point x="458" y="-264"/>
      <point x="446" y="-268"/>
      <point x="446" y="-278" type="curve" smooth="yes"/>
      <point x="446" y="-286"/>
      <point x="459" y="-287"/>
      <point x="466" y="-287" type="curve" smooth="yes"/>
    </contour>
    <contour>
      <point x="209" y="13"/>
      <point x="117" y="72"/>
      <point x="117" y="205" type="curve" smooth="yes"/>
      <point x="117" y="330"/>
      <point x="162" y="382"/>
      <point x="244" y="382" type="curve" smooth="yes"/>
      <point x="332" y="382"/>
      <point x="376" y="275"/>
      <point x="376" y="195" type="curve" smooth="yes"/>
      <point x="376" y="117"/>
      <point x="347" y="13"/>
      <point x="269" y="13" type="curve" smooth="yes"/>
    </contour>
  </outline>
</glyph>
<glyph name="uni01A5" format="1">
  <advance width="519"/>
  <unicode hex="01A5"/>
  <note>
    uni01A5
  </note>
  <outline>
    <contour>
      <point x="79" y="-285"/>
      <point x="85" y="-280"/>
      <point x="120" y="-280" type="curve" smooth="yes"/>
      <point x="155" y="-280"/>
      <point x="175" y="-285"/>
      <point x="214" y="-285" type="curve" smooth="yes"/>
      <point x="222" y="-285"/>
      <point x="236" y="-284"/>
      <point x="236" y="-276" type="curve" smooth="yes"/>
      <point x="236" y="-266"/>
      <point x="224" y="-262"/>
      <point x="213" y="-258" type="curve"/>
      <point x="193" y="-252"/>
      <point x="155" y="-247"/>
      <point x="155" y="-220" type="curve" smooth="yes"/>
      <point x="155" y="-33" type="line" smooth="yes"/>
      <point x="155" y="-27"/>
      <point x="156" y="18"/>
      <point x="159" y="18" type="curve"/>
      <point x="179" y="0"/>
      <point x="231" y="-14"/>
      <point x="259" y="-14" type="curve" smooth="yes"/>
      <point x="385" y="-14"/>
      <point x="484" y="106"/>
      <point x="484" y="225" type="curve" smooth="yes"/>
      <point x="484" y="319"/>
      <point x="423" y="414"/>
      <point x="320" y="414" type="curve" smooth="yes"/>
      <point x="257" y="414"/>
      <point x="176" y="367"/>
      <point x="157" y="348" type="curve"/>
      <point x="157" y="508" type="line" smooth="yes"/>
      <point x="157" y="617"/>
      <point x="192" y="676"/>
      <point x="235" y="676" type="curve" smooth="yes"/>
      <point x="284" y="676"/>
      <point x="287" y="622"/>
      <point x="314" y="622" type="curve" smooth="yes"/>
      <point x="333" y="622"/>
      <point x="351" y="645"/>
      <point x="351" y="667" type="curve" smooth="yes"/>
      <point x="351" y="673"/>
      <point x="349" y="679"/>
      <point x="343" y="686" type="curve" smooth="yes"/>
      <point x="330" y="702"/>
      <point x="299" y="706"/>
      <point x="266" y="706" type="curve" smooth="yes"/>
      <point x="177" y="706"/>
      <point x="84" y="624"/>
      <point x="84" y="465" type="curve" smooth="yes"/>
      <point x="85" y="-220" type="line" smooth="yes"/>
      <point x="85" y="-247"/>
      <point x="62" y="-252"/>
      <point x="42" y="-258" type="curve"/>
      <point x="31" y="-262"/>
      <point x="19" y="-266"/>
      <point x="19" y="-276" type="curve" smooth="yes"/>
      <point x="19" y="-284"/>
      <point x="33" y="-285"/>
      <point x="40" y="-285" type="curve" smooth="yes"/>
    </contour>
    <contour>
      <point x="230" y="17"/>
      <point x="196" y="28"/>
      <point x="181" y="42" type="curve" smooth="yes"/>
      <point x="162" y="60"/>
      <point x="158" y="97"/>
      <point x="157" y="115" type="curve" smooth="yes"/>
      <point x="156" y="136"/>
      <point x="155" y="171"/>
      <point x="155" y="205" type="curve" smooth="yes"/>
      <point x="155" y="229"/>
      <point x="156" y="252"/>
      <point x="156" y="269" type="curve"/>
      <point x="158" y="310"/>
      <point x="167" y="329"/>
      <point x="182" y="340" type="curve" smooth="yes"/>
      <point x="207" y="359"/>
      <point x="234" y="369"/>
      <point x="268" y="369" type="curve" smooth="yes"/>
      <point x="311" y="369"/>
      <point x="404" y="347"/>
      <point x="404" y="193" type="curve" smooth="yes"/>
      <point x="404" y="59"/>
      <point x="313" y="17"/>
      <point x="274" y="17" type="curve" smooth="yes"/>
    </contour>
  </outline>
</glyph>
